<svg id="Layer_1" data-name="Layer 1" xmlns="http://www.w3.org/2000/svg" viewBox="0 0 96 96"><path d="M72,56.18c-4.65,0-17.4-.72-30.91-1.48-13.93-.79-28.33-1.6-33.7-1.6a4.84,4.84,0,0,1-4.56-2.42c-2.13-3.8.38-10.84,1.79-13.13.78-1.29.57-4.14.37-6.9-.28-3.73-.54-7.25,1.18-9.11a3.79,3.79,0,0,1,2.89-1.15c1.72,0,2.73,1.44,3.8,3,1.92,2.75,4.31,6.16,11.76,5.13a28.55,28.55,0,0,0,10.81-3.86l-.36-1.41a10.17,10.17,0,0,1,1.08-7.7l.93-1.58a3.84,3.84,0,0,1,5.6-1.1c2.49,1.88,6.14,4.82,10,7.93,7.59,6.11,17,13.7,20.39,15.45a29.55,29.55,0,0,0,7.13,1.89C86.36,39.26,94,40.7,94,47.1,94,52.72,81.19,56.18,72,56.18ZM9.06,22.39a1.72,1.72,0,0,0-1.42.52C6.5,24.13,6.76,27.51,7,30.5c.24,3.22.47,6.26-.66,8.09C4.85,41,3.07,47,4.57,49.7a2.93,2.93,0,0,0,2.82,1.4c5.43,0,19.86.81,33.81,1.6,13.48.76,26.21,1.48,30.8,1.48,9.53,0,20-3.71,20-7.08,0-4.74-6.18-5.9-12.16-7-3-.56-5.77-1.09-7.68-2.08-3.54-1.84-12.67-9.18-20.72-15.66-3.86-3.1-7.5-6-10-7.89A1.8,1.8,0,0,0,40,14.1,1.83,1.83,0,0,0,38.8,15l-.93,1.57A8.2,8.2,0,0,0,37,22.72l.2.75a20.31,20.31,0,0,0,2.23-1.8,1,1,0,0,1,1.2-.17L60.74,32.79a10,10,0,0,1,4.43,5.13l4.56,12a1,1,0,0,1-1.87.71l-4.56-12a8,8,0,0,0-3.54-4.1L40.28,23.6a30,30,0,0,1-15.39,6.87c-8.65,1.21-11.67-3.11-13.67-6C10.3,23.19,9.7,22.39,9.06,22.39Z"/><path d="M61.62,51.09a1,1,0,0,1-.94-.65l-3.51-9.22a3.7,3.7,0,0,0-1.64-1.89l-3.94-2.22a7.21,7.21,0,0,0-10,9.39,1,1,0,1,1-1.77.93A9.2,9.2,0,0,1,52.57,35.37l3.94,2.21A5.67,5.67,0,0,1,59,40.51l3.51,9.22A1,1,0,0,1,62,51,1,1,0,0,1,61.62,51.09Z"/><path d="M68.8,51.26a1,1,0,0,1-.94-.65l-4.56-12a8,8,0,0,0-3.54-4.1L40.28,23.6a30,30,0,0,1-15.39,6.87,1,1,0,0,1-1.12-.85,1,1,0,0,1,.85-1.13,27.91,27.91,0,0,0,14.81-6.82,1,1,0,0,1,1.2-.17L60.74,32.79a10,10,0,0,1,4.43,5.13l4.56,12a1,1,0,0,1-.58,1.29A.84.84,0,0,1,68.8,51.26Z"/><path d="M67.54,51.27q-3.8,0-7.59-.3A191.58,191.58,0,0,1,37.1,47.26c-2.92-.6-5.94-1.22-8.91-1.77-8-1.48-15.89-2.71-24.5-1.56a1,1,0,1,1-.26-2c8.9-1.19,17,.06,25.12,1.57,3,.56,6,1.18,9,1.78A187.53,187.53,0,0,0,60.11,49a92.8,92.8,0,0,0,32.61-3.18,1,1,0,0,1,1.23.69,1,1,0,0,1-.69,1.24A95.12,95.12,0,0,1,67.54,51.27Z"/><path d="M43.75,25.4a1,1,0,0,1-.83-1.57l4.18-6.16a1,1,0,1,1,1.66,1.12L44.57,25A1,1,0,0,1,43.75,25.4Z"/><path d="M49.44,28.59a1,1,0,0,1-.56-.17A1,1,0,0,1,48.61,27l3.58-5.27a1,1,0,1,1,1.65,1.12l-3.57,5.27A1,1,0,0,1,49.44,28.59Z"/><path d="M55.13,31.79a1,1,0,0,1-.56-.17,1,1,0,0,1-.27-1.39l3-4.39A1,1,0,1,1,58.94,27l-3,4.39A1,1,0,0,1,55.13,31.79Z"/><path d="M60.82,35a1,1,0,0,1-.56-.17A1,1,0,0,1,60,33.42l2.4-3.55A1,1,0,0,1,64.06,31l-2.41,3.55A1,1,0,0,1,60.82,35Z"/><path d="M29.22,45.67a1,1,0,0,1-.77-.36L12.84,26.66a1,1,0,0,1,1.54-1.29L30,44a1,1,0,0,1-.13,1.41A1,1,0,0,1,29.22,45.67Z"/><path d="M9.48,76.69a1,1,0,0,1-1-1v-15a1,1,0,0,1,2,0v15A1,1,0,0,1,9.48,76.69Z"/><path d="M22.88,83.93a1,1,0,0,1-1-1V80.06a1,1,0,0,1,2,0v2.87A1,1,0,0,1,22.88,83.93Z"/><path d="M22.88,76.28a1,1,0,0,1-1-1V60.68a1,1,0,0,1,2,0v14.6A1,1,0,0,1,22.88,76.28Z"/><path d="M29.59,76.69a1,1,0,0,1-1-1v-15a1,1,0,0,1,2,0v15A1,1,0,0,1,29.59,76.69Z"/><path d="M16.18,65.06a1,1,0,0,1-1-1V60.68a1,1,0,0,1,2,0v3.38A1,1,0,0,1,16.18,65.06Z"/><path d="M16.18,81.17a1,1,0,0,1-1-1V68.47a1,1,0,0,1,2,0v11.7A1,1,0,0,1,16.18,81.17Z"/><path d="M56.62,76.69a1,1,0,0,1-1-1v-15a1,1,0,0,1,2,0v15A1,1,0,0,1,56.62,76.69Z"/><path d="M70,83.93a1,1,0,0,1-1-1V80.06a1,1,0,0,1,2,0v2.87A1,1,0,0,1,70,83.93Z"/><path d="M70,76.28a1,1,0,0,1-1-1V60.68a1,1,0,1,1,2,0v14.6A1,1,0,0,1,70,76.28Z"/><path d="M76.72,76.69a1,1,0,0,1-1-1v-15a1,1,0,0,1,2,0v15A1,1,0,0,1,76.72,76.69Z"/><path d="M63.32,65.06a1,1,0,0,1-1-1V60.68a1,1,0,1,1,2,0v3.38A1,1,0,0,1,63.32,65.06Z"/><path d="M63.32,81.17a1,1,0,0,1-1-1V68.47a1,1,0,1,1,2,0v11.7A1,1,0,0,1,63.32,81.17Z"/></svg>