<?xml version="1.0" encoding="UTF-8" standalone="no"?>
<svg
   xmlns:dc="http://purl.org/dc/elements/1.1/"
   xmlns:cc="http://creativecommons.org/ns#"
   xmlns:rdf="http://www.w3.org/1999/02/22-rdf-syntax-ns#"
   xmlns:svg="http://www.w3.org/2000/svg"
   xmlns="http://www.w3.org/2000/svg"
   id="svg1932"
   version="1.1"
   viewBox="0 0 71.752122 78.121147"
   height="78.121147mm"
   width="71.752121mm">
  <defs
     id="defs1926">
    <clipPath
       id="clipPath106"
       clipPathUnits="userSpaceOnUse">
      <path
         id="path104"
         d="m 2187.21,2830.68 c 320.61,0 283.24,300.44 295.35,528.35 14.69,276.15 41.46,549.01 61.18,824.35 17.43,243.58 11.99,464.8 -183,644.32 -126.26,116.23 -452.89,238.62 -574.68,49.85 -253.74,-393.32 146.08,-874.96 99.7,-1289.31 -33.48,-299.03 -195.51,-757.56 301.45,-757.56 z m -1138.52,0 c -320.6,0 -283.237,300.44 -295.346,528.35 -14.696,276.15 -41.453,549.01 -61.172,824.35 -17.442,243.58 -12,464.8 182.988,644.32 126.26,116.23 452.9,238.62 574.69,49.85 253.73,-393.32 -146.09,-874.96 -99.71,-1289.31 33.49,-299.03 195.51,-757.56 -301.45,-757.56 z" />
    </clipPath>
    <clipPath
       id="clipPath258"
       clipPathUnits="userSpaceOnUse">
      <path
         id="path256"
         d="m 4441.53,2795.99 c 320.6,0 283.24,300.43 295.35,528.34 14.69,276.15 41.45,549 61.17,824.35 17.42,243.58 11.99,464.8 -183.01,644.32 -126.25,116.23 -452.89,238.62 -574.68,49.84 -253.72,-393.32 146.09,-874.96 99.7,-1289.3 -33.47,-299.04 -195.5,-757.55 301.47,-757.55 z m -1138.53,0 c -320.6,0 -283.23,300.43 -295.34,528.34 -14.7,276.15 -41.47,549 -61.18,824.35 -17.44,243.58 -12,464.8 182.99,644.32 126.26,116.23 452.89,238.62 574.69,49.84 253.74,-393.32 -146.09,-874.96 -99.71,-1289.3 33.48,-299.04 195.53,-757.55 -301.45,-757.55 z" />
    </clipPath>
    <clipPath
       id="clipPath620"
       clipPathUnits="userSpaceOnUse">
      <path
         id="path618"
         d="m 6701.74,2810.93 c 320.61,0 283.25,300.44 295.35,528.36 14.69,276.14 41.45,549 61.18,824.34 17.42,243.59 11.99,464.81 -182.99,644.32 -126.27,116.23 -452.89,238.62 -574.69,49.85 -253.75,-393.32 146.08,-874.96 99.69,-1289.31 -33.48,-299.02 -195.49,-757.56 301.46,-757.56 z m -1138.53,0 c -320.59,0 -283.22,300.44 -295.33,528.36 -14.69,276.14 -41.47,549 -61.18,824.34 -17.44,243.59 -12.01,464.81 182.99,644.32 126.27,116.23 452.89,238.62 574.69,49.85 253.73,-393.32 -146.09,-874.96 -99.71,-1289.31 33.48,-299.02 195.51,-757.56 -301.46,-757.56 z" />
    </clipPath>
  </defs>
  <metadata
     id="metadata1929">
    <rdf:RDF>
      <cc:Work
         rdf:about="">
        <dc:format>image/svg+xml</dc:format>
        <dc:type
           rdf:resource="http://purl.org/dc/dcmitype/StillImage" />
        <dc:title></dc:title>
      </cc:Work>
    </rdf:RDF>
  </metadata>
  <g
     transform="translate(2.4666242,-51.563562)"
     id="layer1">
    <g
       id="g2811"
       transform="matrix(0.35277777,0,0,-0.35277777,-194.68605,227.09326)">
      <path
         id="path610"
         style="fill:#62d2f4;fill-opacity:1;fill-rule:nonzero;stroke:none;stroke-width:0.1"
         d="m 589.64361,280.25993 c 49.674,1.52 33.494,45.854 30.146,75.756 -4.638,41.435 35.344,89.599 9.971,128.931 -12.18,18.877 -44.842,6.638 -57.469,-4.985 -19.5,-17.951 -20.043,-40.073 -18.299,-64.432 1.971,-27.534 4.649,-54.82 6.118,-82.434 1.211,-22.792 -2.51,-53.816 29.533,-52.836" />
      <path
         id="path612"
         style="fill:#62d2f4;fill-opacity:1;fill-rule:nonzero;stroke:none;stroke-width:0.1"
         d="m 703.49661,280.25993 c -49.672,1.52 -33.494,45.854 -30.146,75.756 4.639,41.435 -35.344,89.599 -9.969,128.931 12.18,18.877 44.842,6.638 57.469,-4.985 19.498,-17.951 20.041,-40.073 18.299,-64.432 -1.973,-27.534 -4.649,-54.82 -6.118,-82.434 -1.21,-22.792 2.51,-53.816 -29.535,-52.836" />
      <g
         id="g614"
         transform="matrix(0.1,0,0,0.1,33.322608,-0.83306519)">
        <g
           clip-path="url(#clipPath620)"
           id="g616">
          <path
             id="path622"
             style="fill:#00b0d8;fill-opacity:1;fill-rule:nonzero;stroke:none"
             d="M 6164.97,2400.41 5923.36,2258.91 4643.87,4443.59 4885.49,4585.1 6164.97,2400.41" />
          <path
             id="path624"
             style="fill:none;stroke:#d6ea42;stroke-width:41.25600052;stroke-linecap:butt;stroke-linejoin:miter;stroke-miterlimit:4;stroke-dasharray:none;stroke-opacity:1"
             d="m 6164.97,2400.41 -241.61,-141.5 -1279.49,2184.68 241.62,141.51 z" />
          <path
             id="path626"
             style="fill:#2ec0d8;fill-opacity:1;fill-rule:nonzero;stroke:none"
             d="m 6164.97,2400.41 -51.78,-30.31 -1279.47,2184.67 51.77,30.33 1279.48,-2184.69" />
          <path
             id="path628"
             style="fill:#00b0d8;fill-opacity:1;fill-rule:nonzero;stroke:none"
             d="M 6637.72,2677.29 6396.1,2535.78 5116.63,4720.46 5358.23,4861.97 6637.72,2677.29" />
          <path
             id="path630"
             style="fill:none;stroke:#d6ea42;stroke-width:41.25600052;stroke-linecap:butt;stroke-linejoin:miter;stroke-miterlimit:4;stroke-dasharray:none;stroke-opacity:1"
             d="m 6637.72,2677.29 -241.62,-141.51 -1279.47,2184.68 241.6,141.51 z" />
          <path
             id="path632"
             style="fill:#2ec0d8;fill-opacity:1;fill-rule:nonzero;stroke:none"
             d="m 6637.72,2677.29 -51.78,-30.32 -1279.49,2184.67 51.78,30.33 1279.49,-2184.68" />
          <path
             id="path634"
             style="fill:#00b0d8;fill-opacity:1;fill-rule:nonzero;stroke:none"
             d="m 7132.11,2917.17 -241.62,-141.51 -1301.13,2221.67 241.62,141.5 1301.13,-2221.66" />
          <path
             id="path636"
             style="fill:none;stroke:#d6ea42;stroke-width:41.60400009;stroke-linecap:butt;stroke-linejoin:miter;stroke-miterlimit:4;stroke-dasharray:none;stroke-opacity:1"
             d="m 7132.11,2917.17 -241.62,-141.51 -1301.13,2221.67 241.62,141.5 z" />
          <path
             id="path638"
             style="fill:#2ec0d8;fill-opacity:1;fill-rule:nonzero;stroke:none"
             d="m 7110.45,2954.16 -51.77,-30.32 -1279.48,2184.67 51.78,30.32 1279.47,-2184.67" />
          <path
             id="path640"
             style="fill:#00b0d8;fill-opacity:1;fill-rule:nonzero;stroke:none"
             d="M 7585.22,3232.21 7343.6,3090.71 6064.13,5275.38 6305.75,5416.89 7585.22,3232.21" />
          <path
             id="path642"
             style="fill:none;stroke:#d6ea42;stroke-width:41.25600052;stroke-linecap:butt;stroke-linejoin:miter;stroke-miterlimit:4;stroke-dasharray:none;stroke-opacity:1"
             d="m 7585.22,3232.21 -241.62,-141.5 -1279.47,2184.67 241.62,141.51 z" />
          <path
             id="path644"
             style="fill:#2ec0d8;fill-opacity:1;fill-rule:nonzero;stroke:none"
             d="m 7585.22,3232.21 -51.78,-30.32 -1279.47,2184.67 51.78,30.33 1279.47,-2184.68" />
        </g>
      </g>
      <path
         id="path646"
         style="fill:#00addd;fill-opacity:1;fill-rule:nonzero;stroke:none;stroke-width:0.1"
         d="m 633.67861,483.66293 c -3.197,4.957 -7.809,7.765 -13.096,9.006 3.496,-1.559 6.533,-4.014 8.838,-7.586 25.373,-39.332 -14.607,-87.497 -9.969,-128.932 3.346,-29.901 19.549,-75.755 -30.146,-75.755 -3.668,-0.112 -6.863,0.199 -9.654,0.865 3.662,-1.619 8.22,-2.459 13.912,-2.285 49.695,0 33.492,45.854 30.144,75.756 -4.638,41.435 35.344,89.6 9.971,128.931" />
      <path
         id="path648"
         style="fill:#00addd;fill-opacity:1;fill-rule:nonzero;stroke:none;stroke-width:0.1"
         d="m 548.54961,397.58093 c 0,0 -2.24,-20.485 8.981,-39.477 0,0 3.253,-7.038 8.439,-4.423 5.141,2.591 1.027,9.7 0.041,11.886 -0.982,2.173 -7.904,12.132 -9.297,14.178 -2.137,3.142 -4.947,12.97 -5.443,16.1 -0.49,3.104 -0.34,8.108 1.076,12.228 0,0 -3.223,-6.43 -3.797,-10.492" />
      <path
         id="path650"
         style="fill:none;stroke:#0088a8;stroke-width:1;stroke-linecap:butt;stroke-linejoin:miter;stroke-miterlimit:4;stroke-dasharray:none;stroke-opacity:1"
         d="m 548.54961,397.58093 c 0,0 -2.24,-20.485 8.981,-39.477 0,0 3.253,-7.038 8.439,-4.423 5.141,2.591 1.027,9.7 0.041,11.886 -0.982,2.173 -7.904,12.132 -9.297,14.178 -2.137,3.142 -4.947,12.97 -5.443,16.1 -0.49,3.104 -0.34,8.108 1.076,12.228 0,0 -3.223,-6.43 -3.797,-10.492 z" />
      <path
         id="path652"
         style="fill:#00addd;fill-opacity:1;fill-rule:nonzero;stroke:none;stroke-width:0.1"
         d="m 623.13761,416.70893 c 0,0 1.527,-20.582 0.826,-23.903 -0.707,-3.351 -5.947,-12.716 -9.795,-16.024 -3.885,-3.343 -10.377,-13.128 -10.98,-15.587 -0.608,-2.475 -3.479,-7.68 1.224,-10.992 4.735,-3.332 8.494,0.845 10.559,2.69 0,0 4.912,5.32 7.344,10.324 2.398,4.935 7.84,16.553 6.191,30.714 -1.59,13.658 -5.369,22.778 -5.369,22.778" />
      <path
         id="path654"
         style="fill:none;stroke:#0088a8;stroke-width:1;stroke-linecap:butt;stroke-linejoin:miter;stroke-miterlimit:4;stroke-dasharray:none;stroke-opacity:1"
         d="m 623.13761,416.70893 c 0,0 1.527,-20.582 0.826,-23.903 -0.707,-3.351 -5.947,-12.716 -9.795,-16.024 -3.885,-3.343 -10.377,-13.128 -10.98,-15.587 -0.608,-2.475 -3.479,-7.68 1.224,-10.992 4.735,-3.332 8.494,0.845 10.559,2.69 0,0 4.912,5.32 7.344,10.324 2.398,4.935 7.84,16.553 6.191,30.714 -1.59,13.658 -5.369,22.778 -5.369,22.778 z" />
      <path
         id="path656"
         style="fill:#bed63a;fill-opacity:1;fill-rule:nonzero;stroke:none;stroke-width:0.1"
         d="m 595.57261,464.11893 c 0,0 5.616,3.065 7.469,4.917 1.852,1.852 5.586,1.64 5.586,-1.153 0,-2.793 -3.888,-7.263 -6.076,-8.478 l -6.979,4.714" />
      <path
         id="path658"
         style="fill:#bed63a;fill-opacity:1;fill-rule:nonzero;stroke:none;stroke-width:0.1"
         d="m 548.67161,386.54193 c 0,0 3.56,29.653 19.314,43.317 20,17.347 30.734,22.674 30.734,22.674 0,0 17.07,-16.533 24.418,-38.337 6.433,-23.091 5.598,-26.574 5.598,-26.574 0,0 4.72,26.781 1.382,38.591 -3.826,13.537 -7.109,24.822 -19.886,34.043 -2.27,1.638 -7.778,5.04 -10.987,5.197 -3.599,0.177 -8.755,-3.296 -11.437,-4.745 -7.203,-3.895 -13.666,-8.641 -19.467,-14.145 -7.801,-7.402 -15.449,-14.836 -18.014,-25.157 -3.412,-13.726 -1.684,-21.211 -1.655,-34.864" />
      <path
         id="path660"
         style="fill:none;stroke:#0088a8;stroke-width:1;stroke-linecap:butt;stroke-linejoin:miter;stroke-miterlimit:4;stroke-dasharray:none;stroke-opacity:1"
         d="m 548.67161,386.54193 c 0,0 3.56,29.653 19.314,43.317 20,17.347 30.734,22.674 30.734,22.674 0,0 17.07,-16.533 24.418,-38.337 6.433,-23.091 5.598,-26.574 5.598,-26.574 0,0 4.72,26.781 1.382,38.591 -3.826,13.537 -7.109,24.822 -19.886,34.043 -2.27,1.638 -7.778,5.04 -10.987,5.197 -3.599,0.177 -8.755,-3.296 -11.437,-4.745 -7.203,-3.895 -13.666,-8.641 -19.467,-14.145 -7.801,-7.402 -15.449,-14.836 -18.014,-25.157 -3.412,-13.726 -1.684,-21.211 -1.655,-34.864 z" />
      <path
         id="path662"
         style="fill:#00addd;fill-opacity:1;fill-rule:nonzero;stroke:none;stroke-width:0.1"
         d="m 659.46361,483.66293 c 3.197,4.957 7.807,7.765 13.096,9.006 -3.496,-1.559 -6.535,-4.014 -8.84,-7.586 -25.373,-39.332 14.609,-87.497 9.971,-128.932 -3.348,-29.901 -19.551,-75.755 30.146,-75.755 3.668,-0.112 6.861,0.199 9.654,0.865 -3.664,-1.619 -8.222,-2.459 -13.912,-2.285 -49.697,0 -33.494,45.854 -30.146,75.756 4.639,41.435 -35.344,89.6 -9.969,128.931" />
      <path
         id="path664"
         style="fill:#00addd;fill-opacity:1;fill-rule:nonzero;stroke:none;stroke-width:0.1"
         d="m 744.59261,397.58093 c 0,0 2.238,-20.485 -8.982,-39.477 0,0 -3.254,-7.038 -8.438,-4.423 -5.142,2.591 -1.029,9.7 -0.041,11.886 0.981,2.173 7.902,12.132 9.295,14.178 2.139,3.142 4.949,12.97 5.443,16.1 0.493,3.104 0.342,8.108 -1.076,12.228 0,0 3.225,-6.43 3.799,-10.492" />
      <path
         id="path666"
         style="fill:none;stroke:#0088a8;stroke-width:1;stroke-linecap:butt;stroke-linejoin:miter;stroke-miterlimit:4;stroke-dasharray:none;stroke-opacity:1"
         d="m 744.59261,397.58093 c 0,0 2.238,-20.485 -8.982,-39.477 0,0 -3.254,-7.038 -8.438,-4.423 -5.142,2.591 -1.029,9.7 -0.041,11.886 0.981,2.173 7.902,12.132 9.295,14.178 2.139,3.142 4.949,12.97 5.443,16.1 0.493,3.104 0.342,8.108 -1.076,12.228 0,0 3.225,-6.43 3.799,-10.492 z" />
      <path
         id="path668"
         style="fill:#00addd;fill-opacity:1;fill-rule:nonzero;stroke:none;stroke-width:0.1"
         d="m 670.00261,416.70893 c 0,0 -1.527,-20.582 -0.826,-23.903 0.707,-3.351 5.949,-12.716 9.795,-16.024 3.887,-3.343 10.379,-13.128 10.982,-15.587 0.606,-2.475 3.477,-7.68 -1.226,-10.992 -4.733,-3.332 -8.492,0.845 -10.557,2.69 0,0 -4.912,5.32 -7.344,10.324 -2.398,4.935 -7.839,16.553 -6.191,30.714 1.59,13.658 5.367,22.778 5.367,22.778" />
      <path
         id="path670"
         style="fill:none;stroke:#0088a8;stroke-width:1;stroke-linecap:butt;stroke-linejoin:miter;stroke-miterlimit:4;stroke-dasharray:none;stroke-opacity:1"
         d="m 670.00261,416.70893 c 0,0 -1.527,-20.582 -0.826,-23.903 0.707,-3.351 5.949,-12.716 9.795,-16.024 3.887,-3.343 10.379,-13.128 10.982,-15.587 0.606,-2.475 3.477,-7.68 -1.226,-10.992 -4.733,-3.332 -8.492,0.845 -10.557,2.69 0,0 -4.912,5.32 -7.344,10.324 -2.398,4.935 -7.839,16.553 -6.191,30.714 1.59,13.658 5.367,22.778 5.367,22.778 z" />
      <path
         id="path672"
         style="fill:#bed63a;fill-opacity:1;fill-rule:nonzero;stroke:none;stroke-width:0.1"
         d="m 697.56761,464.11893 c 0,0 -5.616,3.065 -7.467,4.917 -1.852,1.852 -5.586,1.64 -5.586,-1.153 0,-2.793 3.889,-7.263 6.074,-8.478 l 6.979,4.714" />
      <path
         id="path674"
         style="fill:#bed63a;fill-opacity:1;fill-rule:nonzero;stroke:none;stroke-width:0.1"
         d="m 744.46561,386.49593 c 0,0 -3.557,29.699 -19.309,43.363 -20,17.347 -30.736,22.674 -30.736,22.674 0,0 -17.07,-16.533 -24.418,-38.337 -6.263,-23.091 -5.662,-26.574 -5.662,-26.574 0,0 -4.656,26.781 -1.318,38.591 3.826,13.537 7.111,24.822 19.888,34.043 2.27,1.638 7.778,5.04 10.987,5.197 3.597,0.177 8.754,-3.296 11.435,-4.745 7.205,-3.895 13.666,-8.641 19.467,-14.145 7.801,-7.402 15.449,-14.836 18.016,-25.157 3.412,-13.726 1.679,-21.258 1.65,-34.91" />
      <path
         id="path676"
         style="fill:none;stroke:#0088a8;stroke-width:1;stroke-linecap:butt;stroke-linejoin:miter;stroke-miterlimit:4;stroke-dasharray:none;stroke-opacity:1"
         d="m 744.46561,386.49593 c 0,0 -3.557,29.699 -19.309,43.363 -20,17.347 -30.736,22.674 -30.736,22.674 0,0 -17.07,-16.533 -24.418,-38.337 -6.263,-23.091 -5.662,-26.574 -5.662,-26.574 0,0 -4.656,26.781 -1.318,38.591 3.826,13.537 7.111,24.822 19.888,34.043 2.27,1.638 7.778,5.04 10.987,5.197 3.597,0.177 8.754,-3.296 11.435,-4.745 7.205,-3.895 13.666,-8.641 19.467,-14.145 7.801,-7.402 15.449,-14.836 18.016,-25.157 3.412,-13.726 1.679,-21.258 1.65,-34.91 z" />
    </g>
  </g>
</svg>
