<?xml version="1.0" encoding="UTF-8" standalone="no"?>
<svg
   xmlns:dc="http://purl.org/dc/elements/1.1/"
   xmlns:cc="http://creativecommons.org/ns#"
   xmlns:rdf="http://www.w3.org/1999/02/22-rdf-syntax-ns#"
   xmlns:svg="http://www.w3.org/2000/svg"
   xmlns="http://www.w3.org/2000/svg"
   id="svg1932"
   version="1.1"
   viewBox="0 0 71.75277 78.121185"
   height="78.121185mm"
   width="71.752769mm">
  <defs
     id="defs1926">
    <clipPath
       id="clipPath106"
       clipPathUnits="userSpaceOnUse">
      <path
         id="path104"
         d="m 2187.21,2830.68 c 320.61,0 283.24,300.44 295.35,528.35 14.69,276.15 41.46,549.01 61.18,824.35 17.43,243.58 11.99,464.8 -183,644.32 -126.26,116.23 -452.89,238.62 -574.68,49.85 -253.74,-393.32 146.08,-874.96 99.7,-1289.31 -33.48,-299.03 -195.51,-757.56 301.45,-757.56 z m -1138.52,0 c -320.6,0 -283.237,300.44 -295.346,528.35 -14.696,276.15 -41.453,549.01 -61.172,824.35 -17.442,243.58 -12,464.8 182.988,644.32 126.26,116.23 452.9,238.62 574.69,49.85 253.73,-393.32 -146.09,-874.96 -99.71,-1289.31 33.49,-299.03 195.51,-757.56 -301.45,-757.56 z" />
    </clipPath>
    <clipPath
       id="clipPath258"
       clipPathUnits="userSpaceOnUse">
      <path
         id="path256"
         d="m 4441.53,2795.99 c 320.6,0 283.24,300.43 295.35,528.34 14.69,276.15 41.45,549 61.17,824.35 17.42,243.58 11.99,464.8 -183.01,644.32 -126.25,116.23 -452.89,238.62 -574.68,49.84 -253.72,-393.32 146.09,-874.96 99.7,-1289.3 -33.47,-299.04 -195.5,-757.55 301.47,-757.55 z m -1138.53,0 c -320.6,0 -283.23,300.43 -295.34,528.34 -14.7,276.15 -41.47,549 -61.18,824.35 -17.44,243.58 -12,464.8 182.99,644.32 126.26,116.23 452.89,238.62 574.69,49.84 253.74,-393.32 -146.09,-874.96 -99.71,-1289.3 33.48,-299.04 195.53,-757.55 -301.45,-757.55 z" />
    </clipPath>
    <clipPath
       id="clipPath620"
       clipPathUnits="userSpaceOnUse">
      <path
         id="path618"
         d="m 6701.74,2810.93 c 320.61,0 283.25,300.44 295.35,528.36 14.69,276.14 41.45,549 61.18,824.34 17.42,243.59 11.99,464.81 -182.99,644.32 -126.27,116.23 -452.89,238.62 -574.69,49.85 -253.75,-393.32 146.08,-874.96 99.69,-1289.31 -33.48,-299.02 -195.49,-757.56 301.46,-757.56 z m -1138.53,0 c -320.59,0 -283.22,300.44 -295.33,528.36 -14.69,276.14 -41.47,549 -61.18,824.34 -17.44,243.59 -12.01,464.81 182.99,644.32 126.27,116.23 452.89,238.62 574.69,49.85 253.73,-393.32 -146.09,-874.96 -99.71,-1289.31 33.48,-299.02 195.51,-757.56 -301.46,-757.56 z" />
    </clipPath>
    <clipPath
       id="clipPath24"
       clipPathUnits="userSpaceOnUse">
      <path
         id="path22"
         d="m 2172,487.441 c -496.73,15.2 -334.93,458.52 -301.46,757.559 46.39,414.34 -353.44,895.98 -99.71,1289.3 121.8,188.78 448.43,66.38 574.69,-49.85 194.99,-179.51 200.43,-400.74 182.99,-644.31 -19.71,-275.35 -46.47,-548.21 -61.17,-824.36 C 2455.23,787.871 2492.45,477.641 2172,487.441 Z" />
    </clipPath>
    <clipPath
       id="clipPath48"
       clipPathUnits="userSpaceOnUse">
      <path
         id="path46"
         d="m 1033.47,487.441 c 496.74,15.2 334.94,458.52 301.47,757.559 -46.39,414.34 353.43,895.98 99.7,1289.3 -121.79,188.78 -448.433,66.38 -574.683,-49.85 -195,-179.51 -200.43,-400.74 -183,-644.31 19.719,-275.35 46.477,-548.21 61.172,-824.36 12.109,-227.909 -25.098,-538.139 295.341,-528.339 z" />
    </clipPath>
    <clipPath
       id="clipPath200"
       clipPathUnits="userSpaceOnUse">
      <path
         id="path198"
         d="m 4444.78,487.582 c 320.61,0 283.24,300.43 295.35,528.338 14.69,276.15 41.45,549 61.17,824.35 17.43,243.58 12,464.81 -183,644.32 -126.25,116.23 -452.89,238.61 -574.69,49.84 -253.72,-393.32 146.09,-874.96 99.71,-1289.29 -33.48,-299.05 -195.51,-757.558 301.46,-757.558 z m -1138.53,0 c -320.59,0 -283.23,300.43 -295.34,528.338 -14.69,276.15 -41.46,549 -61.17,824.35 -17.44,243.58 -12,464.81 182.99,644.32 126.26,116.23 452.9,238.61 574.69,49.84 253.73,-393.32 -146.09,-874.96 -99.71,-1289.29 33.48,-299.05 195.52,-757.558 -301.46,-757.558 z" />
    </clipPath>
    <clipPath
       id="clipPath330"
       clipPathUnits="userSpaceOnUse">
      <path
         id="path328"
         d="m 6658.36,492.27 c 320.6,0 283.25,300.441 295.36,528.35 14.68,276.16 41.44,549.01 61.17,824.35 17.42,243.58 11.99,464.81 -183,644.33 -126.26,116.23 -452.89,238.61 -574.69,49.84 -253.73,-393.32 146.09,-874.96 99.7,-1289.32 -33.48,-299.019 -195.5,-757.55 301.46,-757.55 z m -1138.52,0 c -320.6,0 -283.24,300.441 -295.35,528.35 -14.69,276.16 -41.45,549.01 -61.17,824.35 -17.43,243.58 -12,464.81 183,644.33 126.25,116.23 452.89,238.61 574.69,49.84 253.72,-393.32 -146.09,-874.96 -99.71,-1289.32 33.48,-299.019 195.51,-757.55 -301.46,-757.55 z" />
    </clipPath>
  </defs>
  <metadata
     id="metadata1929">
    <rdf:RDF>
      <cc:Work
         rdf:about="">
        <dc:format>image/svg+xml</dc:format>
        <dc:type
           rdf:resource="http://purl.org/dc/dcmitype/StillImage" />
        <dc:title></dc:title>
      </cc:Work>
    </rdf:RDF>
  </metadata>
  <g
     transform="translate(50.478294,-54.29627)"
     id="layer1">
    <g
       id="g3491"
       transform="matrix(0.35277777,0,0,-0.35277777,-241.16792,148.02891)">
      <path
         id="path316"
         style="fill:#00addd;fill-opacity:1;fill-rule:nonzero;stroke:none;stroke-width:0.1"
         d="m 629.34161,251.79793 c -3.197,4.955 -7.809,7.764 -13.098,9.005 3.498,-1.559 6.536,-4.015 8.84,-7.587 25.372,-39.331 -14.609,-87.496 -9.97,-128.931 3.347,-29.900795 19.55,-75.755095 -30.147,-75.755095 -3.668,-0.1129 -6.861,0.1992 -9.654,0.866 3.664,-1.6199 8.22,-2.459 13.912,-2.2859 49.697,0 33.494,45.8539 30.146,75.755995 -4.638,41.436 35.343,89.6 9.971,128.932" />
      <path
         id="path318"
         style="fill:#ff8f33;fill-opacity:1;fill-rule:nonzero;stroke:none;stroke-width:0.1"
         d="m 585.30661,48.393935 c 49.674,1.5199 33.493,45.8531 30.145,75.754995 -4.638,41.436 35.344,89.6 9.971,128.932 -12.18,18.877 -44.844,6.639 -57.469,-4.984 -19.499,-17.952 -20.043,-40.075 -18.299,-64.433 1.971,-27.534 4.648,-54.819 6.117,-82.435 1.211,-22.790895 -2.51,-53.815895 29.535,-52.834995" />
      <path
         id="path320"
         style="fill:#00addd;fill-opacity:1;fill-rule:nonzero;stroke:none;stroke-width:0.1"
         d="m 655.12461,251.79793 c 3.198,4.955 7.808,7.764 13.097,9.005 -3.496,-1.559 -6.535,-4.015 -8.84,-7.587 -25.372,-39.331 14.609,-87.496 9.971,-128.931 -3.348,-29.900795 -19.551,-75.755095 30.145,-75.755095 3.668,-0.1129 6.863,0.1992 9.655,0.866 -3.663,-1.6199 -8.222,-2.459 -13.912,-2.2859 -49.697,0 -33.494,45.8539 -30.146,75.755995 4.639,41.436 -35.343,89.6 -9.97,128.932" />
      <path
         id="path322"
         style="fill:#ff8f33;fill-opacity:1;fill-rule:nonzero;stroke:none;stroke-width:0.1"
         d="m 699.15861,48.393935 c -49.672,1.5199 -33.494,45.8531 -30.146,75.754995 4.639,41.436 -35.343,89.6 -9.97,128.932 12.18,18.877 44.843,6.639 57.469,-4.984 19.499,-17.952 20.042,-40.075 18.3,-64.433 -1.973,-27.534 -4.649,-54.819 -6.117,-82.435 -1.211,-22.790895 2.509,-53.815895 -29.536,-52.834995" />
      <g
         id="g324"
         transform="matrix(0.1,0,0,0.1,33.322608,-0.83306519)">
        <g
           clip-path="url(#clipPath330)"
           id="g326">
          <path
             id="path332"
             style="fill:#f68b1f;fill-opacity:1;fill-rule:nonzero;stroke:none"
             d="m 5454.9,1995.88 c 0,-143.59 -116.41,-260 -260,-260 -143.6,0 -260,116.41 -260,260 0,143.59 116.4,260 260,260 143.59,0 260,-116.41 260,-260" />
          <path
             id="path334"
             style="fill:#fca95e;fill-opacity:1;fill-rule:nonzero;stroke:none"
             d="m 4953.55,1977.25 c 0,143.59 116.41,260 260,260 67.05,0 128.16,-25.39 174.28,-67.07 -47.58,52.63 -116.39,85.7 -192.93,85.7 -143.6,0 -260,-116.41 -260,-260 0,-76.54 33.08,-145.35 85.72,-192.93 -41.68,46.11 -67.07,107.25 -67.07,174.3" />
          <path
             id="path336"
             style="fill:#ba6519;fill-opacity:1;fill-rule:nonzero;stroke:none"
             d="m 5369.19,2188.81 c 41.68,-46.11 67.07,-107.23 67.07,-174.3 0,-143.59 -116.4,-260 -260,-260 -67.05,0 -128.18,25.39 -174.29,67.09 47.6,-52.64 116.4,-85.72 192.93,-85.72 143.59,0 260,116.41 260,260 0,76.54 -33.07,145.35 -85.71,192.93" />
          <path
             id="path338"
             style="fill:#00addd;fill-opacity:1;fill-rule:nonzero;stroke:none"
             d="m 5345.5,1918.98 c -3.1,9.54 -7.44,15.98 -9.67,14.38 -2.05,-1.47 -1.6,-9.22 0.94,-17.89 -18.4,-16.56 -71.19,-66.19 -141.42,-64.92 -71.16,-1.29 -124.42,49.63 -142.13,65.54 2.36,8.4 2.75,15.84 0.76,17.27 -2.23,1.6 -6.56,-4.84 -9.69,-14.38 -3.12,-9.53 -3.85,-18.55 -1.62,-20.13 2.05,-1.47 5.92,3.94 8.97,12.32 15.89,-22.89 69.19,-79.41 143.71,-78.51 73.61,-0.88 126.54,54.31 143.12,77.69 2.99,-7.91 6.68,-12.93 8.67,-11.5 2.23,1.58 1.49,10.6 -1.64,20.13" />
          <path
             id="path340"
             style="fill:#fca95e;fill-opacity:1;fill-rule:nonzero;stroke:none"
             d="m 5108.24,2111.68 c -0.71,0 -1.41,-0.08 -2.09,-0.18 16.38,-2.4 29.35,-32.69 29.35,-69.72 0,-37.03 -12.97,-67.33 -29.35,-69.73 0.68,-0.1 1.38,-0.16 2.09,-0.16 17.36,0 31.44,31.29 31.44,69.89 0,38.59 -14.08,69.9 -31.44,69.9 z m 181.72,0 c -0.71,0 -1.41,-0.08 -2.09,-0.18 16.38,-2.4 29.35,-32.69 29.35,-69.72 0,-37.03 -12.97,-67.33 -29.35,-69.73 0.68,-0.1 1.38,-0.16 2.09,-0.16 17.36,0 31.44,31.29 31.44,69.89 0,38.59 -14.08,69.9 -31.44,69.9" />
          <path
             id="path342"
             style="fill:none;stroke:#fca95e;stroke-width:2.09677005;stroke-linecap:butt;stroke-linejoin:miter;stroke-miterlimit:4;stroke-dasharray:none;stroke-opacity:1"
             d="m 5108.24,2111.68 c -0.71,0 -1.41,-0.08 -2.09,-0.18 16.38,-2.4 29.35,-32.69 29.35,-69.72 0,-37.03 -12.97,-67.33 -29.35,-69.73 0.68,-0.1 1.38,-0.16 2.09,-0.16 17.36,0 31.44,31.29 31.44,69.89 0,38.59 -14.08,69.9 -31.44,69.9 z m 181.72,0 c -0.71,0 -1.41,-0.08 -2.09,-0.18 16.38,-2.4 29.35,-32.69 29.35,-69.72 0,-37.03 -12.97,-67.33 -29.35,-69.73 0.68,-0.1 1.38,-0.16 2.09,-0.16 17.36,0 31.44,31.29 31.44,69.89 0,38.59 -14.08,69.9 -31.44,69.9 z" />
          <path
             id="path344"
             style="fill:#00addd;fill-opacity:1;fill-rule:nonzero;stroke:none"
             d="m 5317.22,2041.78 c 0,-38.6 -14.08,-69.89 -31.46,-69.89 -17.37,0 -31.45,31.29 -31.45,69.89 0,38.59 14.08,69.9 31.45,69.9 17.38,0 31.46,-31.31 31.46,-69.9" />
          <path
             id="path346"
             style="fill:#f68b1f;fill-opacity:1;fill-rule:nonzero;stroke:none"
             d="m 6094.53,2259.65 c -90.26,-111.68 -253.97,-129.04 -365.65,-38.79 -111.68,90.25 -129.04,253.96 -38.79,365.64 90.26,111.68 253.97,129.05 365.65,38.79 111.68,-90.25 129.04,-253.96 38.79,-365.64" />
          <path
             id="path348"
             style="fill:#fca95e;fill-opacity:1;fill-rule:nonzero;stroke:none"
             d="m 5692.87,2560.29 c 90.27,111.68 253.96,129.05 365.64,38.79 52.15,-42.15 83.73,-100.31 93.4,-161.72 -3.91,70.84 -36.64,139.81 -96.17,187.93 -111.68,90.26 -275.39,72.89 -365.65,-38.79 -48.1,-59.53 -65.64,-133.82 -54.61,-203.92 -3.41,62.07 15.26,125.56 57.39,177.71" />
          <path
             id="path350"
             style="fill:#ba6519;fill-opacity:1;fill-rule:nonzero;stroke:none"
             d="m 6149.14,2463.57 c 3.41,-62.07 -15.24,-125.54 -57.41,-177.71 -90.25,-111.68 -253.96,-129.04 -365.64,-38.79 -52.15,42.15 -83.73,100.31 -93.38,161.72 3.93,-70.84 36.64,-139.83 96.17,-187.93 111.68,-90.25 275.39,-72.89 365.65,38.79 48.1,59.53 65.62,133.83 54.61,203.92" />
          <path
             id="path352"
             style="fill:#00addd;fill-opacity:1;fill-rule:nonzero;stroke:none"
             d="m 5961.11,2268.59 c 3.57,9.38 4.24,17.11 1.5,17.27 -2.52,0.16 -7.03,-6.17 -10.51,-14.49 -24.72,-1.33 -96.97,-6.74 -150.8,38.4 -56.15,43.73 -65.56,116.79 -69.35,140.31 7.13,5.04 12.11,10.58 11.44,12.95 -0.72,2.63 -8.14,0.35 -16.56,-5.1 -8.42,-5.45 -14.65,-11.99 -13.92,-14.63 0.68,-2.44 7.09,-0.66 14.72,3.95 -2.01,-27.8 3.91,-105.26 62.42,-151.41 56.7,-46.95 132.58,-37.29 160.16,-29.53 -2.66,-8.03 -2.93,-14.26 -0.49,-14.4 2.74,-0.15 7.83,7.31 11.39,16.68" />
          <path
             id="path354"
             style="fill:#fca95e;fill-opacity:1;fill-rule:nonzero;stroke:none"
             d="m 5897.69,2567.62 c -0.55,0.43 -1.13,0.82 -1.74,1.17 11.23,-12.17 2.29,-43.89 -20.99,-72.68 -23.29,-28.81 -52.41,-44.22 -66.66,-35.78 0.46,-0.51 0.97,-0.99 1.52,-1.44 13.51,-10.92 44.14,4.57 68.4,34.59 24.26,30.02 32.99,63.22 19.47,74.14 z m 141.33,-114.24 c -0.55,0.45 -1.13,0.82 -1.74,1.19 11.23,-12.17 2.29,-43.89 -21,-72.68 -23.28,-28.8 -52.4,-44.21 -66.66,-35.78 0.49,-0.5 0.98,-0.99 1.55,-1.44 13.49,-10.92 44.12,4.57 68.38,34.59 24.25,30.02 32.98,63.22 19.47,74.12" />
          <path
             id="path356"
             style="fill:none;stroke:#fca95e;stroke-width:2.09677005;stroke-linecap:butt;stroke-linejoin:miter;stroke-miterlimit:4;stroke-dasharray:none;stroke-opacity:1"
             d="m 5897.69,2567.62 c -0.55,0.43 -1.13,0.82 -1.74,1.17 11.23,-12.17 2.29,-43.89 -20.99,-72.68 -23.29,-28.81 -52.41,-44.22 -66.66,-35.78 0.46,-0.51 0.97,-0.99 1.52,-1.44 13.51,-10.92 44.14,4.57 68.4,34.59 24.26,30.02 32.99,63.22 19.47,74.14 z m 141.33,-114.24 c -0.55,0.45 -1.13,0.82 -1.74,1.19 11.23,-12.17 2.29,-43.89 -21,-72.68 -23.28,-28.8 -52.4,-44.21 -66.66,-35.78 0.49,-0.5 0.98,-0.99 1.55,-1.44 13.49,-10.92 44.12,4.57 68.38,34.59 24.25,30.02 32.98,63.22 19.47,74.12 z" />
          <path
             id="path358"
             style="fill:#00addd;fill-opacity:1;fill-rule:nonzero;stroke:none"
             d="m 5874.96,2496.11 c -24.26,-30.02 -54.89,-45.5 -68.4,-34.59 -13.52,10.92 -4.79,44.12 19.47,74.12 24.26,30.04 54.88,45.53 68.4,34.61 13.51,-10.91 4.78,-44.12 -19.47,-74.14" />
          <path
             id="path360"
             style="fill:#00addd;fill-opacity:1;fill-rule:nonzero;stroke:none"
             d="m 6016.28,2381.89 c -24.25,-30.02 -54.88,-45.5 -68.39,-34.59 -13.5,10.92 -4.79,44.11 19.47,74.13 24.28,30.02 54.9,45.5 68.4,34.59 13.51,-10.92 4.78,-44.11 -19.48,-74.13" />
          <path
             id="path362"
             style="fill:#f68b1f;fill-opacity:1;fill-rule:nonzero;stroke:none"
             d="m 5447.97,699.512 c -90.25,-111.68 -253.96,-129.043 -365.64,-38.793 -111.68,90.261 -129.04,253.972 -38.79,365.651 90.26,111.68 253.96,129.04 365.64,38.79 111.68,-90.262 129.05,-253.969 38.79,-365.648" />
          <path
             id="path364"
             style="fill:#fca95e;fill-opacity:1;fill-rule:nonzero;stroke:none"
             d="m 5046.32,1000.16 c 90.27,111.68 253.97,129.04 365.65,38.79 52.15,-42.149 83.73,-100.321 93.4,-161.72 -3.92,70.84 -36.65,139.8 -96.19,187.93 -111.68,90.25 -275.38,72.89 -365.64,-38.79 -48.11,-59.53 -65.63,-133.831 -54.6,-203.929 -3.43,62.071 15.24,125.571 57.38,177.719" />
          <path
             id="path366"
             style="fill:#ba6519;fill-opacity:1;fill-rule:nonzero;stroke:none"
             d="m 5502.58,903.441 c 3.43,-62.07 -15.23,-125.55 -57.39,-177.722 -90.25,-111.68 -253.96,-129.039 -365.64,-38.789 -52.15,42.152 -83.73,100.32 -93.39,161.718 3.92,-70.839 36.65,-139.816 96.17,-187.929 111.68,-90.25 275.39,-72.887 365.64,38.793 48.12,59.527 65.64,133.828 54.61,203.929" />
          <path
             id="path368"
             style="fill:#00addd;fill-opacity:1;fill-rule:nonzero;stroke:none"
             d="m 5314.56,708.461 c 3.57,9.371 4.24,17.109 1.51,17.258 -2.52,0.16 -7.03,-6.168 -10.52,-14.489 -24.72,-1.332 -96.97,-6.738 -150.8,38.399 -56.14,43.73 -65.56,116.801 -69.34,140.312 7.12,5.039 12.1,10.59 11.44,12.95 -0.72,2.64 -8.14,0.351 -16.56,-5.102 -8.42,-5.449 -14.66,-11.988 -13.93,-14.629 0.69,-2.441 7.09,-0.66 14.73,3.949 -2.01,-27.789 3.91,-105.25 62.41,-151.41 56.71,-46.949 132.58,-37.277 160.17,-29.527 -2.66,-8.031 -2.94,-14.262 -0.5,-14.391 2.73,-0.16 7.83,7.301 11.39,16.68" />
          <path
             id="path370"
             style="fill:#fca95e;fill-opacity:1;fill-rule:nonzero;stroke:none"
             d="m 5251.14,1007.48 c -0.55,0.43 -1.14,0.82 -1.74,1.17 11.24,-12.17 2.28,-43.88 -21,-72.67 -23.27,-28.808 -52.4,-44.218 -66.65,-35.781 0.47,-0.508 0.98,-1 1.53,-1.449 13.5,-10.918 44.13,4.57 68.39,34.59 24.26,30.019 32.98,63.219 19.47,74.14 z m 141.34,-114.238 c -0.56,0.449 -1.15,0.817 -1.74,1.188 11.23,-12.16 2.27,-43.879 -21,-72.668 -23.28,-28.813 -52.4,-44.223 -66.66,-35.782 0.48,-0.511 0.98,-1 1.53,-1.449 13.51,-10.922 44.13,4.571 68.38,34.59 24.27,30.02 32.99,63.219 19.49,74.121" />
          <path
             id="path372"
             style="fill:none;stroke:#fca95e;stroke-width:2.09677005;stroke-linecap:butt;stroke-linejoin:miter;stroke-miterlimit:4;stroke-dasharray:none;stroke-opacity:1"
             d="m 5251.14,1007.48 c -0.55,0.43 -1.14,0.82 -1.74,1.17 11.24,-12.17 2.28,-43.88 -21,-72.67 -23.27,-28.808 -52.4,-44.218 -66.65,-35.781 0.47,-0.508 0.98,-1 1.53,-1.449 13.5,-10.918 44.13,4.57 68.39,34.59 24.26,30.019 32.98,63.219 19.47,74.14 z m 141.34,-114.238 c -0.56,0.449 -1.15,0.817 -1.74,1.188 11.23,-12.16 2.27,-43.879 -21,-72.668 -23.28,-28.813 -52.4,-44.223 -66.66,-35.782 0.48,-0.511 0.98,-1 1.53,-1.449 13.51,-10.922 44.13,4.571 68.38,34.59 24.27,30.02 32.99,63.219 19.49,74.121 z" />
          <path
             id="path374"
             style="fill:#00addd;fill-opacity:1;fill-rule:nonzero;stroke:none"
             d="m 5228.4,935.98 c -24.25,-30.019 -54.87,-45.511 -68.39,-34.589 -13.51,10.91 -4.79,44.121 19.47,74.121 24.27,30.038 54.89,45.528 68.4,34.608 13.51,-10.921 4.79,-44.12 -19.48,-74.14" />
          <path
             id="path376"
             style="fill:#00addd;fill-opacity:1;fill-rule:nonzero;stroke:none"
             d="m 5369.74,821.762 c -24.26,-30.02 -54.88,-45.512 -68.4,-34.59 -13.49,10.918 -4.78,44.098 19.48,74.117 24.26,30.02 54.89,45.512 68.39,34.59 13.51,-10.918 4.79,-44.098 -19.47,-74.117" />
          <path
             id="path378"
             style="fill:#f68b1f;fill-opacity:1;fill-rule:nonzero;stroke:none"
             d="m 5437.69,1492.78 c 25.02,-141.39 -69.33,-276.31 -210.71,-301.33 -141.4,-25.02 -276.31,69.32 -301.34,210.72 -25.02,141.39 69.33,276.3 210.71,301.33 141.4,25.02 276.31,-69.33 301.34,-210.72" />
          <path
             id="path380"
             style="fill:#fca95e;fill-opacity:1;fill-rule:nonzero;stroke:none"
             d="m 4947.24,1387.06 c -25.01,141.4 69.32,276.31 210.71,301.33 66.04,11.69 130.65,-2.66 183.32,-35.67 -56.02,43.55 -129.54,64.11 -204.92,50.78 -141.38,-25.03 -235.73,-159.94 -210.71,-301.33 13.34,-75.36 57.9,-137.36 118.03,-175.04 -49.09,38.15 -84.74,93.91 -96.43,159.93" />
          <path
             id="path382"
             style="fill:#ba6519;fill-opacity:1;fill-rule:nonzero;stroke:none"
             d="m 5319.67,1667.82 c 49.08,-38.14 84.72,-93.89 96.41,-159.93 25.02,-141.4 -69.32,-276.31 -210.71,-301.33 -66.03,-11.69 -130.65,2.66 -183.31,35.68 56.03,-43.54 129.56,-64.12 204.92,-50.79 141.38,25.02 235.73,159.94 210.71,301.33 -13.34,75.37 -57.9,137.36 -118.02,175.04" />
          <path
             id="path384"
             style="fill:#00addd;fill-opacity:1;fill-rule:nonzero;stroke:none"
             d="m 5343.36,1398 c -4.72,8.85 -10.11,14.43 -12.03,12.47 -1.76,-1.81 0.04,-9.36 4.05,-17.45 -15.23,-19.52 -58.57,-77.59 -127.95,-88.58 -69.85,-13.66 -131.16,27.2 -151.39,39.78 0.88,8.68 -0.03,16.07 -2.26,17.13 -2.46,1.19 -5.6,-5.91 -7.02,-15.84 -1.41,-9.92 -0.56,-18.94 1.91,-20.11 2.28,-1.08 5.14,4.91 6.69,13.69 19.64,-19.75 81.97,-66.13 155.18,-52.27 72.65,11.97 115.16,75.55 127.41,101.45 4.31,-7.26 8.82,-11.56 10.53,-9.82 1.92,1.96 -0.37,10.71 -5.12,19.55" />
          <path
             id="path386"
             style="fill:#fca95e;fill-opacity:1;fill-rule:nonzero;stroke:none"
             d="m 5076.14,1546.4 c -0.69,-0.13 -1.36,-0.32 -2.03,-0.54 16.56,0.5 34.62,-27.08 41.06,-63.55 6.46,-36.45 -1.03,-68.55 -16.76,-73.76 0.71,0.01 1.4,0.08 2.09,0.2 17.1,3.03 25.52,36.3 18.8,74.3 -6.73,38.01 -26.05,66.37 -43.16,63.35 z m 178.95,31.67 c -0.71,-0.13 -1.37,-0.33 -2.04,-0.54 16.55,0.49 34.6,-27.08 41.06,-63.55 6.45,-36.46 -1.04,-68.54 -16.76,-73.77 0.7,0.02 1.4,0.08 2.1,0.21 17.1,3.03 25.52,36.29 18.79,74.29 -6.73,38.01 -26.06,66.38 -43.15,63.36" />
          <path
             id="path388"
             style="fill:none;stroke:#fca95e;stroke-width:2.09677005;stroke-linecap:butt;stroke-linejoin:miter;stroke-miterlimit:4;stroke-dasharray:none;stroke-opacity:1"
             d="m 5076.14,1546.4 c -0.69,-0.13 -1.36,-0.32 -2.03,-0.54 16.56,0.5 34.62,-27.08 41.06,-63.55 6.46,-36.45 -1.03,-68.55 -16.76,-73.76 0.71,0.01 1.4,0.08 2.09,0.2 17.1,3.03 25.52,36.3 18.8,74.3 -6.73,38.01 -26.05,66.37 -43.16,63.35 z m 178.95,31.67 c -0.71,-0.13 -1.37,-0.33 -2.04,-0.54 16.55,0.49 34.6,-27.08 41.06,-63.55 6.45,-36.46 -1.04,-68.54 -16.76,-73.77 0.7,0.02 1.4,0.08 2.1,0.21 17.1,3.03 25.52,36.29 18.79,74.29 -6.73,38.01 -26.06,66.38 -43.15,63.36 z" />
          <path
             id="path390"
             style="fill:#00addd;fill-opacity:1;fill-rule:nonzero;stroke:none"
             d="m 5294.11,1513.98 c 6.72,-37.99 -1.68,-71.27 -18.8,-74.29 -17.09,-3.03 -36.42,25.33 -43.14,63.33 -6.73,38.02 1.68,71.29 18.79,74.31 17.1,3.03 36.42,-25.34 43.15,-63.35" />
          <path
             id="path392"
             style="fill:#f68b1f;fill-opacity:1;fill-rule:nonzero;stroke:none"
             d="m 5893.8,1106.89 c -53.46,-133.261 -204.84,-197.96 -338.11,-144.531 -133.26,53.481 -197.97,204.851 -144.51,338.131 53.45,133.26 204.83,197.97 338.1,144.51 133.27,-53.46 197.97,-204.84 144.52,-338.11" />
          <path
             id="path394"
             style="fill:#fca95e;fill-opacity:1;fill-rule:nonzero;stroke:none"
             d="m 5421.54,1276.25 c 53.46,133.26 204.83,197.97 338.09,144.51 62.25,-24.96 109.53,-71.27 136.81,-127.13 -24.56,66.57 -76.11,122.87 -147.16,151.37 -133.27,53.46 -284.65,-11.25 -338.1,-144.51 -28.49,-71.04 -23.41,-147.21 7.73,-210.98 -21.52,58.34 -22.33,124.51 2.63,186.74" />
          <path
             id="path396"
             style="fill:#ba6519;fill-opacity:1;fill-rule:nonzero;stroke:none"
             d="m 5886.08,1317.85 c 21.51,-58.3 22.31,-124.47 -2.65,-186.72 -53.45,-133.259 -204.83,-197.97 -338.1,-144.509 -62.23,24.959 -109.51,71.289 -136.79,127.149 24.57,-66.58 76.12,-122.891 147.15,-151.411 133.27,-53.429 284.65,11.27 338.11,144.531 28.5,71.04 23.41,147.21 -7.72,210.96" />
          <path
             id="path398"
             style="fill:#00addd;fill-opacity:1;fill-rule:nonzero;stroke:none"
             d="m 5763.64,1076.25 c 0.66,10.02 -0.97,17.6 -3.63,16.95 -2.46,-0.6 -4.91,-7.97 -5.79,-16.95 -23.24,-8.54 -90.71,-34.94 -155.43,-7.62 -66.52,25.32 -96.98,92.39 -107.52,113.77 5.34,6.9 8.47,13.65 7.14,15.72 -1.46,2.33 -7.88,-2.05 -14.33,-9.72 -6.45,-7.68 -10.48,-15.78 -9.01,-18.09 1.37,-2.13 6.97,1.45 12.91,8.09 6.25,-27.15 34.66,-99.45 104.14,-126.37 68.01,-28.22 137.7,3.3 161.78,18.83 -0.17,-8.46 1.38,-14.49 3.75,-13.91 2.67,0.65 5.34,9.3 5.99,19.3" />
          <path
             id="path400"
             style="fill:#fca95e;fill-opacity:1;fill-rule:nonzero;stroke:none"
             d="m 5615.15,1343.44 c -0.64,0.25 -1.32,0.45 -2,0.6 14.33,-8.32 15.08,-41.27 1.29,-75.64 -13.78,-34.36 -37.1,-57.66 -53.19,-53.77 0.59,-0.37 1.22,-0.67 1.87,-0.94 16.11,-6.46 40.84,17.35 55.21,53.15 14.38,35.84 12.95,70.13 -3.18,76.6 z m 168.67,-67.66 c -0.67,0.26 -1.33,0.45 -2.01,0.61 14.31,-8.32 15.07,-41.27 1.28,-75.63 -13.78,-34.37 -37.09,-57.65 -53.2,-53.79 0.61,-0.35 1.23,-0.66 1.89,-0.93 16.12,-6.47 40.84,17.32 55.21,53.14 14.36,35.84 12.95,70.14 -3.17,76.6" />
          <path
             id="path402"
             style="fill:none;stroke:#fca95e;stroke-width:2.09677005;stroke-linecap:butt;stroke-linejoin:miter;stroke-miterlimit:4;stroke-dasharray:none;stroke-opacity:1"
             d="m 5615.15,1343.44 c -0.64,0.25 -1.32,0.45 -2,0.6 14.33,-8.32 15.08,-41.27 1.29,-75.64 -13.78,-34.36 -37.1,-57.66 -53.19,-53.77 0.59,-0.37 1.22,-0.67 1.87,-0.94 16.11,-6.46 40.84,17.35 55.21,53.15 14.38,35.84 12.95,70.13 -3.18,76.6 z m 168.67,-67.66 c -0.67,0.26 -1.33,0.45 -2.01,0.61 14.31,-8.32 15.07,-41.27 1.28,-75.63 -13.78,-34.37 -37.09,-57.65 -53.2,-53.79 0.61,-0.35 1.23,-0.66 1.89,-0.93 16.12,-6.47 40.84,17.32 55.21,53.14 14.36,35.84 12.95,70.14 -3.17,76.6 z" />
          <path
             id="path404"
             style="fill:#00addd;fill-opacity:1;fill-rule:nonzero;stroke:none"
             d="m 5614.44,1268.4 c -14.37,-35.82 -39.08,-59.61 -55.22,-53.15 -16.12,6.47 -17.54,40.77 -3.16,76.57 14.37,35.84 39.09,59.64 55.2,53.16 16.13,-6.44 17.55,-40.76 3.18,-76.58" />
          <path
             id="path406"
             style="fill:#00addd;fill-opacity:1;fill-rule:nonzero;stroke:none"
             d="m 5783.09,1200.76 c -14.35,-35.82 -39.07,-59.63 -55.21,-53.16 -16.11,6.46 -17.53,40.76 -3.17,76.56 14.38,35.84 39.09,59.65 55.23,53.18 16.11,-6.46 17.53,-40.76 3.15,-76.58" />
          <path
             id="path408"
             style="fill:#f68b1f;fill-opacity:1;fill-rule:nonzero;stroke:none"
             d="M 5828.28,884.898 C 5966.56,846.25 6047.36,702.789 6008.71,564.512 5970.05,426.23 5826.62,345.441 5688.32,384.07 c -138.31,38.66 -219.07,182.102 -180.43,320.379 38.65,138.301 182.09,219.09 320.39,180.449" />
          <path
             id="path410"
             style="fill:#fca95e;fill-opacity:1;fill-rule:nonzero;stroke:none"
             d="m 5711.28,397.02 c -138.3,38.66 -219.08,182.082 -180.43,320.359 18.05,64.59 58.95,116.621 111.51,149.832 -63.5,-31.66 -113.87,-89.031 -134.47,-162.762 -38.64,-138.277 42.12,-281.719 180.43,-320.379 73.71,-20.578 148.88,-7.238 208.88,30.66 -55.64,-27.769 -121.35,-35.761 -185.92,-17.71" />
          <path
             id="path412"
             style="fill:#ba6519;fill-opacity:1;fill-rule:nonzero;stroke:none"
             d="m 5619.41,854.281 c 55.62,27.731 121.31,35.719 185.9,17.668 138.28,-38.648 219.08,-182.09 180.41,-320.367 -18.05,-64.57 -58.95,-116.621 -111.51,-149.812 63.52,31.671 113.89,89.031 134.5,162.742 38.65,138.277 -42.15,281.738 -180.43,320.386 -73.73,20.614 -148.89,7.25 -208.87,-30.617" />
          <path
             id="path414"
             style="fill:#00addd;fill-opacity:1;fill-rule:nonzero;stroke:none"
             d="m 5872.89,758.832 c -10.02,-0.434 -17.39,-2.871 -16.45,-5.434 0.86,-2.378 8.46,-4.027 17.48,-3.929 11.02,-22.168 44.59,-86.36 24.47,-153.668 -17.93,-68.871 -81.29,-106.442 -101.4,-119.242 -7.44,4.531 -14.49,6.921 -16.41,5.371 -2.15,-1.7 2.91,-7.59 11.23,-13.18 8.34,-5.57 16.84,-8.711 18.97,-6.988 1.97,1.597 -2.21,6.777 -9.46,11.949 26.31,9.18 95.1,45.269 114.3,117.269 20.64,70.661 -18.26,136.52 -36.31,158.77 8.42,0.742 14.26,2.949 13.42,5.23 -0.94,2.579 -9.82,4.301 -19.84,3.852" />
          <path
             id="path416"
             style="fill:#fca95e;fill-opacity:1;fill-rule:nonzero;stroke:none"
             d="m 5623.43,582.172 c -0.17,-0.672 -0.29,-1.352 -0.39,-2.051 6.72,15.129 39.4,19.469 75.06,9.508 35.66,-9.957 61.35,-30.609 59.24,-47.027 0.31,0.64 0.53,1.289 0.72,1.968 4.69,16.719 -21.66,38.711 -58.83,49.102 -37.18,10.387 -71.11,5.238 -75.8,-11.5 z m 48.93,175.039 c -0.2,-0.711 -0.31,-1.391 -0.39,-2.07 6.72,15.109 39.37,19.468 75.04,9.488 35.66,-9.957 61.34,-30.59 59.24,-47.027 0.29,0.64 0.54,1.289 0.74,1.968 4.67,16.739 -21.68,38.731 -58.85,49.102 -37.17,10.387 -71.11,5.258 -75.78,-11.461" />
          <path
             id="path418"
             style="fill:none;stroke:#fca95e;stroke-width:2.09677005;stroke-linecap:butt;stroke-linejoin:miter;stroke-miterlimit:4;stroke-dasharray:none;stroke-opacity:1"
             d="m 5623.43,582.172 c -0.17,-0.672 -0.29,-1.352 -0.39,-2.051 6.72,15.129 39.4,19.469 75.06,9.508 35.66,-9.957 61.35,-30.609 59.24,-47.027 0.31,0.64 0.53,1.289 0.72,1.968 4.69,16.719 -21.66,38.711 -58.83,49.102 -37.18,10.387 -71.11,5.238 -75.8,-11.5 z m 48.93,175.039 c -0.2,-0.711 -0.31,-1.391 -0.39,-2.07 6.72,15.109 39.37,19.468 75.04,9.488 35.66,-9.957 61.34,-30.59 59.24,-47.027 0.29,0.64 0.54,1.289 0.74,1.968 4.67,16.739 -21.68,38.731 -58.85,49.102 -37.17,10.387 -71.11,5.258 -75.78,-11.461 z" />
          <path
             id="path420"
             style="fill:#00addd;fill-opacity:1;fill-rule:nonzero;stroke:none"
             d="m 5698.1,589.629 c 37.19,-10.387 63.52,-32.359 58.85,-49.098 -4.69,-16.742 -38.62,-21.883 -75.78,-11.472 -37.19,10.39 -63.54,32.371 -58.85,49.082 4.67,16.718 38.61,21.879 75.78,11.488" />
          <path
             id="path422"
             style="fill:#00addd;fill-opacity:1;fill-rule:nonzero;stroke:none"
             d="m 5747.01,764.629 c 37.16,-10.367 63.51,-32.34 58.84,-49.098 -4.68,-16.722 -38.61,-21.859 -75.76,-11.472 -37.18,10.39 -63.53,32.371 -58.86,49.101 4.66,16.719 38.61,21.86 75.78,11.469" />
          <path
             id="path424"
             style="fill:#f68b1f;fill-opacity:1;fill-rule:nonzero;stroke:none"
             d="m 5433.76,2808.52 c 138.29,-38.66 219.07,-182.1 180.43,-320.4 -38.65,-138.29 -182.11,-219.07 -320.41,-180.42 -138.28,38.65 -219.06,182.09 -180.43,320.38 38.68,138.3 182.11,219.07 320.41,180.44" />
          <path
             id="path426"
             style="fill:#fca95e;fill-opacity:1;fill-rule:nonzero;stroke:none"
             d="m 5316.77,2320.63 c -138.3,38.66 -219.08,182.09 -180.45,320.38 18.07,64.59 58.95,116.62 111.53,149.82 -63.52,-31.66 -113.87,-89.02 -134.5,-162.75 -38.63,-138.29 42.15,-281.73 180.43,-320.38 73.72,-20.6 148.89,-7.26 208.89,30.63 -55.64,-27.74 -121.35,-35.74 -185.9,-17.7" />
          <path
             id="path428"
             style="fill:#ba6519;fill-opacity:1;fill-rule:nonzero;stroke:none"
             d="m 5224.88,2777.89 c 55.62,27.73 121.31,35.72 185.9,17.68 138.3,-38.65 219.08,-182.09 180.43,-320.38 -18.05,-64.57 -58.95,-116.62 -111.51,-149.81 63.5,31.67 113.87,89.03 134.49,162.74 38.64,138.3 -42.14,281.74 -180.43,320.4 -73.73,20.6 -148.9,7.25 -208.88,-30.63" />
          <path
             id="path430"
             style="fill:#00addd;fill-opacity:1;fill-rule:nonzero;stroke:none"
             d="m 5478.37,2682.45 c -10.04,-0.43 -17.4,-2.87 -16.46,-5.44 0.88,-2.38 8.46,-4.02 17.48,-3.91 11.02,-22.18 44.59,-86.38 24.47,-153.69 -17.91,-68.87 -81.29,-106.45 -101.38,-119.24 -7.45,4.54 -14.52,6.92 -16.43,5.38 -2.13,-1.71 2.91,-7.61 11.25,-13.2 8.32,-5.56 16.82,-8.7 18.95,-6.98 1.97,1.59 -2.19,6.77 -9.46,11.95 26.33,9.17 95.12,45.28 114.32,117.27 20.64,70.67 -18.28,136.52 -36.31,158.77 8.42,0.74 14.24,2.95 13.42,5.24 -0.96,2.58 -9.83,4.3 -19.85,3.85" />
          <path
             id="path432"
             style="fill:#fca95e;fill-opacity:1;fill-rule:nonzero;stroke:none"
             d="m 5228.92,2505.79 c -0.17,-0.66 -0.31,-1.36 -0.39,-2.06 6.72,15.15 39.39,19.48 75.06,9.51 35.64,-9.96 61.35,-30.6 59.24,-47.03 0.29,0.64 0.52,1.29 0.72,1.96 4.67,16.73 -21.68,38.72 -58.85,49.12 -37.17,10.39 -71.11,5.24 -75.78,-11.5 z m 48.91,175.03 c -0.18,-0.7 -0.3,-1.38 -0.39,-2.07 6.72,15.13 39.39,19.47 75.06,9.5 35.66,-9.96 61.34,-30.59 59.23,-47.04 0.3,0.66 0.53,1.3 0.73,1.98 4.66,16.73 -21.66,38.72 -58.83,49.1 -37.19,10.39 -71.12,5.25 -75.8,-11.47" />
          <path
             id="path434"
             style="fill:none;stroke:#fca95e;stroke-width:2.09677005;stroke-linecap:butt;stroke-linejoin:miter;stroke-miterlimit:4;stroke-dasharray:none;stroke-opacity:1"
             d="m 5228.92,2505.79 c -0.17,-0.66 -0.31,-1.36 -0.39,-2.06 6.72,15.15 39.39,19.48 75.06,9.51 35.64,-9.96 61.35,-30.6 59.24,-47.03 0.29,0.64 0.52,1.29 0.72,1.96 4.67,16.73 -21.68,38.72 -58.85,49.12 -37.17,10.39 -71.11,5.24 -75.78,-11.5 z m 48.91,175.03 c -0.18,-0.7 -0.3,-1.38 -0.39,-2.07 6.72,15.13 39.39,19.47 75.06,9.5 35.66,-9.96 61.34,-30.59 59.23,-47.04 0.3,0.66 0.53,1.3 0.73,1.98 4.66,16.73 -21.66,38.72 -58.83,49.1 -37.19,10.39 -71.12,5.25 -75.8,-11.47 z" />
          <path
             id="path436"
             style="fill:#00addd;fill-opacity:1;fill-rule:nonzero;stroke:none"
             d="m 5303.59,2513.24 c 37.17,-10.38 63.49,-32.36 58.83,-49.11 -4.67,-16.73 -38.62,-21.86 -75.76,-11.46 -37.19,10.39 -63.54,32.37 -58.85,49.09 4.65,16.73 38.59,21.87 75.78,11.48" />
          <path
             id="path438"
             style="fill:#00addd;fill-opacity:1;fill-rule:nonzero;stroke:none"
             d="m 5352.5,2688.25 c 37.16,-10.37 63.51,-32.35 58.82,-49.11 -4.66,-16.71 -38.59,-21.85 -75.76,-11.46 -37.17,10.39 -63.53,32.37 -58.87,49.11 4.69,16.72 38.62,21.85 75.81,11.46" />
          <path
             id="path440"
             style="fill:#f68b1f;fill-opacity:1;fill-rule:nonzero;stroke:none"
             d="m 5722.37,2079.59 c 142.57,-17.14 244.25,-146.6 227.12,-289.17 -17.14,-142.57 -146.6,-244.25 -289.17,-227.12 -142.57,17.14 -244.25,146.6 -227.12,289.17 17.14,142.57 146.6,244.25 289.17,227.12" />
          <path
             id="path442"
             style="fill:#fca95e;fill-opacity:1;fill-rule:nonzero;stroke:none"
             d="m 5681.04,1579.59 c -142.57,17.13 -244.25,146.6 -227.12,289.17 8.01,66.57 40.51,124.23 87.39,165.04 -57.94,-40.96 -98.97,-105.33 -108.11,-181.33 -17.13,-142.57 84.55,-272.03 227.12,-289.17 75.98,-9.13 148.25,15.5 201.76,62.08 -50.75,-35.88 -114.47,-53.79 -181.04,-45.79" />
          <path
             id="path444"
             style="fill:#ba6519;fill-opacity:1;fill-rule:nonzero;stroke:none"
             d="m 5520.59,2017.51 c 50.75,35.88 114.46,53.8 181.05,45.79 142.56,-17.13 244.24,-146.6 227.11,-289.16 -8,-66.57 -40.5,-124.23 -87.4,-165.04 57.94,40.97 99.01,105.33 108.14,181.32 17.13,142.57 -84.55,272.03 -227.12,289.17 -76,9.13 -148.26,-15.5 -201.78,-62.08" />
          <path
             id="path446"
             style="fill:#00addd;fill-opacity:1;fill-rule:nonzero;stroke:none"
             d="m 5785.66,1961.8 c -9.83,-1.96 -16.75,-5.49 -15.43,-7.89 1.21,-2.21 8.96,-2.69 17.88,-1.2 14.25,-20.24 57.22,-78.59 47.58,-148.17 -7.22,-70.8 -64.13,-117.6 -82.04,-133.29 -8.07,3.36 -15.39,4.63 -17.05,2.81 -1.86,-2.02 4.03,-7.08 13.12,-11.32 9.08,-4.24 17.95,-6.04 19.8,-4.02 1.7,1.87 -3.22,6.36 -11.17,10.38 24.61,13.06 87.09,59.23 95.1,133.3 9.66,73 -38.84,132.13 -60.06,151.39 8.21,2.02 13.64,5.08 12.45,7.23 -1.3,2.4 -10.35,2.74 -20.18,0.78" />
          <path
             id="path448"
             style="fill:#fca95e;fill-opacity:1;fill-rule:nonzero;stroke:none"
             d="m 5566.03,1749.21 c -0.09,-0.69 -0.09,-1.4 -0.08,-2.09 4.35,15.98 35.97,25.24 72.74,20.82 36.76,-4.41 65.29,-20.91 65.71,-37.46 0.18,0.67 0.33,1.36 0.41,2.05 2.08,17.26 -27.31,34.97 -65.63,39.57 -38.33,4.61 -71.08,-5.64 -73.15,-22.89 z m 21.68,180.43 c -0.08,-0.7 -0.09,-1.4 -0.08,-2.1 4.35,15.98 35.97,25.24 72.74,20.82 36.76,-4.41 65.29,-20.91 65.71,-37.46 0.19,0.67 0.33,1.36 0.42,2.06 2.07,17.25 -27.32,34.96 -65.64,39.56 -38.32,4.61 -71.08,-5.64 -73.15,-22.88" />
          <path
             id="path450"
             style="fill:none;stroke:#fca95e;stroke-width:2.09677005;stroke-linecap:butt;stroke-linejoin:miter;stroke-miterlimit:4;stroke-dasharray:none;stroke-opacity:1"
             d="m 5566.03,1749.21 c -0.09,-0.69 -0.09,-1.4 -0.08,-2.09 4.35,15.98 35.97,25.24 72.74,20.82 36.76,-4.41 65.29,-20.91 65.71,-37.46 0.18,0.67 0.33,1.36 0.41,2.05 2.08,17.26 -27.31,34.97 -65.63,39.57 -38.33,4.61 -71.08,-5.64 -73.15,-22.89 z m 21.68,180.43 c -0.08,-0.7 -0.09,-1.4 -0.08,-2.1 4.35,15.98 35.97,25.24 72.74,20.82 36.76,-4.41 65.29,-20.91 65.71,-37.46 0.19,0.67 0.33,1.36 0.42,2.06 2.07,17.25 -27.32,34.96 -65.64,39.56 -38.32,4.61 -71.08,-5.64 -73.15,-22.88 z" />
          <path
             id="path452"
             style="fill:#00addd;fill-opacity:1;fill-rule:nonzero;stroke:none"
             d="m 5638.69,1767.94 c 38.32,-4.6 67.7,-22.32 65.62,-39.57 -2.07,-17.25 -34.81,-27.49 -73.13,-22.89 -38.33,4.61 -67.73,22.32 -65.65,39.57 2.07,17.25 34.83,27.5 73.16,22.89" />
          <path
             id="path454"
             style="fill:#00addd;fill-opacity:1;fill-rule:nonzero;stroke:none"
             d="m 5660.37,1948.36 c 38.32,-4.6 67.7,-22.32 65.63,-39.57 -2.08,-17.24 -34.82,-27.48 -73.13,-22.88 -38.33,4.61 -67.73,22.32 -65.66,39.56 2.07,17.25 34.83,27.5 73.16,22.89" />
          <path
             id="path456"
             style="fill:#f68b1f;fill-opacity:1;fill-rule:nonzero;stroke:none"
             d="m 6708.81,1907.8 c 0,-143.59 -116.4,-260 -260,-260 -143.59,0 -260,116.41 -260,260 0,143.6 116.41,260 260,260 143.6,0 260,-116.4 260,-260" />
          <path
             id="path458"
             style="fill:#fca95e;fill-opacity:1;fill-rule:nonzero;stroke:none"
             d="m 6207.46,1889.17 c 0,143.59 116.4,260 260,260 67.05,0 128.17,-25.39 174.28,-67.07 -47.57,52.64 -116.38,85.7 -192.93,85.7 -143.59,0 -260,-116.4 -260,-260 0,-76.53 33.08,-145.34 85.72,-192.92 -41.68,46.12 -67.07,107.24 -67.07,174.29" />
          <path
             id="path460"
             style="fill:#ba6519;fill-opacity:1;fill-rule:nonzero;stroke:none"
             d="m 6623.1,2100.73 c 41.68,-46.11 67.07,-107.22 67.07,-174.28 0,-143.6 -116.41,-260 -260,-260 -67.05,0 -128.17,25.39 -174.29,67.08 47.59,-52.64 116.4,-85.73 192.93,-85.73 143.6,0 260,116.41 260,260 0,76.55 -33.07,145.35 -85.71,192.93" />
          <path
             id="path462"
             style="fill:#00addd;fill-opacity:1;fill-rule:nonzero;stroke:none"
             d="m 6599.42,1830.91 c -3.12,9.53 -7.45,15.97 -9.68,14.37 -2.05,-1.46 -1.59,-9.22 0.94,-17.89 -18.39,-16.56 -71.19,-66.19 -141.43,-64.92 -71.15,-1.28 -124.4,49.64 -142.13,65.55 2.38,8.41 2.77,15.84 0.77,17.26 -2.23,1.6 -6.56,-4.84 -9.68,-14.37 -3.13,-9.53 -3.86,-18.55 -1.63,-20.14 2.06,-1.46 5.92,3.95 8.97,12.33 15.9,-22.89 69.2,-79.41 143.7,-78.52 73.63,-0.88 126.56,54.33 143.14,77.7 2.99,-7.91 6.67,-12.93 8.66,-11.51 2.23,1.59 1.49,10.61 -1.63,20.14" />
          <path
             id="path464"
             style="fill:#fca95e;fill-opacity:1;fill-rule:nonzero;stroke:none"
             d="m 6362.14,2023.6 c -0.7,0 -1.39,-0.07 -2.09,-0.17 16.39,-2.4 29.36,-32.7 29.36,-69.73 0,-37.03 -12.97,-67.32 -29.36,-69.72 0.7,-0.1 1.39,-0.16 2.09,-0.16 17.38,0 31.46,31.29 31.46,69.88 0,38.6 -14.08,69.9 -31.46,69.9 z m 181.73,0 c -0.71,0 -1.4,-0.07 -2.1,-0.17 16.39,-2.4 29.36,-32.7 29.36,-69.73 0,-37.03 -12.97,-67.32 -29.36,-69.72 0.7,-0.1 1.39,-0.16 2.1,-0.16 17.37,0 31.45,31.29 31.45,69.88 0,38.6 -14.08,69.9 -31.45,69.9" />
          <path
             id="path466"
             style="fill:none;stroke:#fca95e;stroke-width:2.09677005;stroke-linecap:butt;stroke-linejoin:miter;stroke-miterlimit:4;stroke-dasharray:none;stroke-opacity:1"
             d="m 6362.14,2023.6 c -0.7,0 -1.39,-0.07 -2.09,-0.17 16.39,-2.4 29.36,-32.7 29.36,-69.73 0,-37.03 -12.97,-67.32 -29.36,-69.72 0.7,-0.1 1.39,-0.16 2.09,-0.16 17.38,0 31.46,31.29 31.46,69.88 0,38.6 -14.08,69.9 -31.46,69.9 z m 181.73,0 c -0.71,0 -1.4,-0.07 -2.1,-0.17 16.39,-2.4 29.36,-32.7 29.36,-69.73 0,-37.03 -12.97,-67.32 -29.36,-69.72 0.7,-0.1 1.39,-0.16 2.1,-0.16 17.37,0 31.45,31.29 31.45,69.88 0,38.6 -14.08,69.9 -31.45,69.9 z" />
          <path
             id="path468"
             style="fill:#00addd;fill-opacity:1;fill-rule:nonzero;stroke:none"
             d="m 6389.41,1953.7 c 0,-38.59 -14.08,-69.88 -31.46,-69.88 -17.37,0 -31.45,31.29 -31.45,69.88 0,38.6 14.08,69.9 31.45,69.9 17.38,0 31.46,-31.3 31.46,-69.9" />
          <path
             id="path470"
             style="fill:#00addd;fill-opacity:1;fill-rule:nonzero;stroke:none"
             d="m 6571.13,1953.7 c 0,-38.59 -14.08,-69.88 -31.46,-69.88 -17.36,0 -31.44,31.29 -31.44,69.88 0,38.6 14.08,69.9 31.44,69.9 17.38,0 31.46,-31.3 31.46,-69.9" />
          <path
             id="path472"
             style="fill:#f68b1f;fill-opacity:1;fill-rule:nonzero;stroke:none"
             d="m 7140.9,2017.32 c -90.25,-111.68 -253.96,-129.04 -365.64,-38.78 -111.68,90.25 -129.04,253.96 -38.79,365.64 90.26,111.68 253.96,129.04 365.64,38.79 111.68,-90.26 129.05,-253.97 38.79,-365.65" />
          <path
             id="path474"
             style="fill:#fca95e;fill-opacity:1;fill-rule:nonzero;stroke:none"
             d="m 6739.25,2317.97 c 90.27,111.68 253.97,129.06 365.65,38.79 52.15,-42.15 83.73,-100.31 93.4,-161.72 -3.92,70.86 -36.65,139.82 -96.19,187.93 -111.68,90.25 -275.38,72.89 -365.64,-38.79 -48.11,-59.51 -65.64,-133.83 -54.6,-203.93 -3.43,62.07 15.24,125.57 57.38,177.72" />
          <path
             id="path476"
             style="fill:#ba6519;fill-opacity:1;fill-rule:nonzero;stroke:none"
             d="m 7195.51,2221.25 c 3.43,-62.05 -15.23,-125.55 -57.39,-177.7 -90.25,-111.68 -253.96,-129.06 -365.64,-38.78 -52.15,42.12 -83.73,100.31 -93.39,161.71 3.92,-70.86 36.65,-139.84 96.17,-187.94 111.68,-90.26 275.39,-72.9 365.64,38.78 48.12,59.54 65.64,133.85 54.61,203.93" />
          <path
             id="path478"
             style="fill:#00addd;fill-opacity:1;fill-rule:nonzero;stroke:none"
             d="m 7007.49,2026.29 c 3.57,9.37 4.24,17.11 1.51,17.26 -2.52,0.14 -7.03,-6.17 -10.52,-14.51 -24.72,-1.33 -96.97,-6.74 -150.8,38.4 -56.14,43.73 -65.56,116.82 -69.35,140.33 7.13,5.04 12.11,10.57 11.45,12.95 -0.72,2.64 -8.14,0.35 -16.56,-5.1 -8.42,-5.44 -14.66,-12.01 -13.93,-14.64 0.69,-2.43 7.09,-0.65 14.73,3.94 -2.01,-27.79 3.9,-105.25 62.41,-151.38 56.71,-46.96 132.58,-37.31 160.17,-29.56 -2.66,-8.02 -2.94,-14.23 -0.5,-14.39 2.73,-0.16 7.83,7.32 11.39,16.7" />
          <path
             id="path480"
             style="fill:#fca95e;fill-opacity:1;fill-rule:nonzero;stroke:none"
             d="m 6944.07,2325.29 c -0.55,0.45 -1.14,0.82 -1.74,1.19 11.24,-12.16 2.28,-43.88 -21,-72.69 -23.27,-28.79 -52.4,-44.2 -66.65,-35.76 0.47,-0.53 0.98,-1 1.53,-1.45 13.5,-10.92 44.13,4.57 68.38,34.57 24.27,30.04 32.99,63.22 19.48,74.14 z m 141.34,-114.22 c -0.56,0.45 -1.15,0.82 -1.74,1.18 11.23,-12.17 2.27,-43.87 -21,-72.68 -23.28,-28.81 -52.4,-44.2 -66.66,-35.76 0.48,-0.53 0.98,-1.02 1.53,-1.47 13.51,-10.89 44.13,4.57 68.38,34.59 24.27,30.02 32.99,63.23 19.49,74.14" />
          <path
             id="path482"
             style="fill:none;stroke:#fca95e;stroke-width:2.09677005;stroke-linecap:butt;stroke-linejoin:miter;stroke-miterlimit:4;stroke-dasharray:none;stroke-opacity:1"
             d="m 6944.07,2325.29 c -0.55,0.45 -1.14,0.82 -1.74,1.19 11.24,-12.16 2.28,-43.88 -21,-72.69 -23.27,-28.79 -52.4,-44.2 -66.65,-35.76 0.47,-0.53 0.98,-1 1.53,-1.45 13.5,-10.92 44.13,4.57 68.38,34.57 24.27,30.04 32.99,63.22 19.48,74.14 z m 141.34,-114.22 c -0.56,0.45 -1.15,0.82 -1.74,1.18 11.23,-12.17 2.27,-43.87 -21,-72.68 -23.28,-28.81 -52.4,-44.2 -66.66,-35.76 0.48,-0.53 0.98,-1.02 1.53,-1.47 13.51,-10.89 44.13,4.57 68.38,34.59 24.27,30.02 32.99,63.23 19.49,74.14 z" />
          <path
             id="path484"
             style="fill:#00addd;fill-opacity:1;fill-rule:nonzero;stroke:none"
             d="m 6921.33,2253.79 c -24.25,-30.02 -54.87,-45.49 -68.39,-34.57 -13.51,10.92 -4.79,44.1 19.47,74.12 24.26,30.02 54.89,45.51 68.4,34.59 13.51,-10.92 4.79,-44.12 -19.48,-74.14" />
          <path
             id="path486"
             style="fill:#00addd;fill-opacity:1;fill-rule:nonzero;stroke:none"
             d="m 7062.67,2139.57 c -24.26,-30.02 -54.88,-45.51 -68.4,-34.57 -13.49,10.9 -4.78,44.1 19.48,74.1 24.26,30.04 54.89,45.53 68.39,34.61 13.51,-10.92 4.79,-44.12 -19.47,-74.14" />
          <path
             id="path488"
             style="fill:#f68b1f;fill-opacity:1;fill-rule:nonzero;stroke:none"
             d="M 6645.1,608.191 C 6554.85,496.52 6391.14,479.16 6279.46,569.41 c -111.68,90.25 -129.04,253.961 -38.79,365.641 90.26,111.679 253.96,129.039 365.64,38.789 111.68,-90.258 129.05,-253.969 38.79,-365.649" />
          <path
             id="path490"
             style="fill:#fca95e;fill-opacity:1;fill-rule:nonzero;stroke:none"
             d="m 6243.45,908.84 c 90.27,111.68 253.97,129.05 365.65,38.789 52.15,-42.149 83.73,-100.32 93.4,-161.719 -3.92,70.852 -36.66,139.809 -96.19,187.93 -111.68,90.25 -275.38,72.89 -365.64,-38.789 -48.11,-59.52 -65.64,-133.832 -54.6,-203.93 -3.43,62.07 15.24,125.57 57.38,177.719" />
          <path
             id="path492"
             style="fill:#ba6519;fill-opacity:1;fill-rule:nonzero;stroke:none"
             d="m 6699.71,812.121 c 3.43,-62.062 -15.23,-125.551 -57.39,-177.711 -90.25,-111.68 -253.97,-129.039 -365.65,-38.789 -52.14,42.141 -83.73,100.32 -93.38,161.719 3.92,-70.852 36.65,-139.828 96.17,-187.93 111.68,-90.25 275.39,-72.89 365.64,38.781 48.12,59.528 65.64,133.84 54.61,203.93" />
          <path
             id="path494"
             style="fill:#00addd;fill-opacity:1;fill-rule:nonzero;stroke:none"
             d="m 6511.68,617.148 c 3.58,9.372 4.25,17.114 1.52,17.262 -2.52,0.149 -7.03,-6.168 -10.52,-14.5 -24.72,-1.328 -96.97,-6.738 -150.8,38.399 -56.14,43.73 -65.56,116.812 -69.35,140.32 7.13,5.043 12.11,10.582 11.45,12.953 -0.72,2.637 -8.15,0.348 -16.56,-5.102 -8.42,-5.441 -14.66,-12 -13.93,-14.628 0.68,-2.442 7.09,-0.661 14.73,3.937 -2.01,-27.789 3.9,-105.25 62.41,-151.398 56.71,-46.95 132.58,-37.289 160.17,-29.539 -2.66,-8.02 -2.94,-14.243 -0.5,-14.391 2.73,-0.16 7.83,7.309 11.38,16.687" />
          <path
             id="path496"
             style="fill:#fca95e;fill-opacity:1;fill-rule:nonzero;stroke:none"
             d="m 6448.27,916.16 c -0.55,0.442 -1.14,0.82 -1.74,1.18 11.24,-12.16 2.28,-43.879 -21,-72.68 -23.27,-28.801 -52.4,-44.211 -66.65,-35.769 0.47,-0.52 0.98,-1 1.53,-1.45 13.5,-10.921 44.13,4.571 68.38,34.579 24.27,30.031 32.99,63.218 19.48,74.14 z M 6589.6,801.93 c -0.55,0.449 -1.14,0.82 -1.73,1.191 11.23,-12.172 2.27,-43.879 -21,-72.68 -23.28,-28.812 -52.4,-44.211 -66.66,-35.769 0.48,-0.524 0.98,-1.012 1.53,-1.461 13.51,-10.91 44.12,4.57 68.38,34.59 24.27,30.019 32.99,63.23 19.48,74.129" />
          <path
             id="path498"
             style="fill:none;stroke:#fca95e;stroke-width:2.09677005;stroke-linecap:butt;stroke-linejoin:miter;stroke-miterlimit:4;stroke-dasharray:none;stroke-opacity:1"
             d="m 6448.27,916.16 c -0.55,0.442 -1.14,0.82 -1.74,1.18 11.24,-12.16 2.28,-43.879 -21,-72.68 -23.27,-28.801 -52.4,-44.211 -66.65,-35.769 0.47,-0.52 0.98,-1 1.53,-1.45 13.5,-10.921 44.13,4.571 68.38,34.579 24.27,30.031 32.99,63.218 19.48,74.14 z M 6589.6,801.93 c -0.55,0.449 -1.14,0.82 -1.73,1.191 11.23,-12.172 2.27,-43.879 -21,-72.68 -23.28,-28.812 -52.4,-44.211 -66.66,-35.769 0.48,-0.524 0.98,-1.012 1.53,-1.461 13.51,-10.91 44.12,4.57 68.38,34.59 24.27,30.019 32.99,63.23 19.48,74.129 z" />
          <path
             id="path500"
             style="fill:#00addd;fill-opacity:1;fill-rule:nonzero;stroke:none"
             d="m 6425.53,844.66 c -24.26,-30.019 -54.87,-45.5 -68.39,-34.578 -13.51,10.918 -4.79,44.109 19.47,74.117 24.26,30.031 54.89,45.52 68.39,34.602 13.52,-10.922 4.8,-44.121 -19.47,-74.141" />
          <path
             id="path502"
             style="fill:#00addd;fill-opacity:1;fill-rule:nonzero;stroke:none"
             d="m 6566.87,730.441 c -24.26,-30.019 -54.88,-45.511 -68.4,-34.582 -13.49,10.911 -4.78,44.102 19.47,74.11 24.27,30.031 54.9,45.523 68.4,34.601 13.51,-10.922 4.79,-44.109 -19.47,-74.129" />
          <path
             id="path504"
             style="fill:#f68b1f;fill-opacity:1;fill-rule:nonzero;stroke:none"
             d="m 6774.46,1366.41 c 25.02,-141.4 -69.33,-276.31 -210.71,-301.34 -141.4,-25.02 -276.31,69.32 -301.34,210.72 -25.02,141.4 69.32,276.3 210.71,301.33 141.4,25.02 276.31,-69.33 301.34,-210.71" />
          <path
             id="path506"
             style="fill:#fca95e;fill-opacity:1;fill-rule:nonzero;stroke:none"
             d="m 6284.01,1260.68 c -25.01,141.4 69.32,276.31 210.71,301.33 66.04,11.69 130.65,-2.65 183.32,-35.66 -56.02,43.54 -129.54,64.1 -204.92,50.77 -141.39,-25.03 -235.73,-159.93 -210.71,-301.33 13.34,-75.36 57.9,-137.35 118.02,-175.04 -49.08,38.16 -84.73,93.92 -96.42,159.93" />
          <path
             id="path508"
             style="fill:#ba6519;fill-opacity:1;fill-rule:nonzero;stroke:none"
             d="m 6656.44,1541.45 c 49.07,-38.15 84.72,-93.9 96.41,-159.94 25.02,-141.39 -69.32,-276.3 -210.72,-301.32 -66.02,-11.69 -130.64,2.65 -183.31,35.67 56.04,-43.54 129.56,-64.12 204.93,-50.79 141.38,25.03 235.73,159.94 210.71,301.34 -13.34,75.37 -57.9,137.35 -118.02,175.04" />
          <path
             id="path510"
             style="fill:#00addd;fill-opacity:1;fill-rule:nonzero;stroke:none"
             d="m 6680.13,1271.62 c -4.72,8.85 -10.12,14.43 -12.03,12.47 -1.77,-1.8 0.04,-9.35 4.04,-17.45 -15.22,-19.52 -58.56,-77.59 -127.95,-88.57 -69.84,-13.67 -131.15,27.19 -151.38,39.77 0.88,8.68 -0.03,16.08 -2.26,17.13 -2.46,1.19 -5.6,-5.91 -7.02,-15.84 -1.42,-9.92 -0.57,-18.93 1.9,-20.11 2.29,-1.08 5.15,4.92 6.69,13.69 19.65,-19.75 81.98,-66.13 155.19,-52.27 72.65,11.97 115.16,75.56 127.41,101.45 4.31,-7.26 8.82,-11.56 10.53,-9.82 1.91,1.96 -0.37,10.71 -5.12,19.55" />
          <path
             id="path512"
             style="fill:#fca95e;fill-opacity:1;fill-rule:nonzero;stroke:none"
             d="m 6412.91,1420.02 c -0.69,-0.13 -1.36,-0.31 -2.04,-0.54 16.57,0.5 34.62,-27.08 41.07,-63.54 6.45,-36.46 -1.04,-68.56 -16.76,-73.76 0.7,0.01 1.4,0.08 2.09,0.19 17.1,3.03 25.52,36.3 18.8,74.3 -6.73,38.02 -26.06,66.38 -43.16,63.35 z m 178.95,31.67 c -0.71,-0.13 -1.38,-0.32 -2.04,-0.54 16.55,0.49 34.6,-27.08 41.05,-63.54 6.46,-36.47 -1.03,-68.55 -16.75,-73.77 0.7,0.02 1.39,0.08 2.1,0.2 17.1,3.03 25.51,36.29 18.78,74.29 -6.72,38.02 -26.05,66.39 -43.14,63.36" />
          <path
             id="path514"
             style="fill:none;stroke:#fca95e;stroke-width:2.09677005;stroke-linecap:butt;stroke-linejoin:miter;stroke-miterlimit:4;stroke-dasharray:none;stroke-opacity:1"
             d="m 6412.91,1420.02 c -0.69,-0.13 -1.36,-0.31 -2.04,-0.54 16.57,0.5 34.62,-27.08 41.07,-63.54 6.45,-36.46 -1.04,-68.56 -16.76,-73.76 0.7,0.01 1.4,0.08 2.09,0.19 17.1,3.03 25.52,36.3 18.8,74.3 -6.73,38.02 -26.06,66.38 -43.16,63.35 z m 178.95,31.67 c -0.71,-0.13 -1.38,-0.32 -2.04,-0.54 16.55,0.49 34.6,-27.08 41.05,-63.54 6.46,-36.47 -1.03,-68.55 -16.75,-73.77 0.7,0.02 1.39,0.08 2.1,0.2 17.1,3.03 25.51,36.29 18.78,74.29 -6.72,38.02 -26.05,66.39 -43.14,63.36 z" />
          <path
             id="path516"
             style="fill:#00addd;fill-opacity:1;fill-rule:nonzero;stroke:none"
             d="m 6451.94,1355.94 c 6.73,-38.01 -1.69,-71.26 -18.8,-74.3 -17.11,-3.03 -36.43,25.34 -43.14,63.34 -6.73,38.02 1.67,71.29 18.78,74.31 17.1,3.03 36.44,-25.34 43.16,-63.35" />
          <path
             id="path518"
             style="fill:#00addd;fill-opacity:1;fill-rule:nonzero;stroke:none"
             d="m 6630.87,1387.61 c 6.73,-38 -1.68,-71.27 -18.79,-74.3 -17.09,-3.03 -36.42,25.33 -43.14,63.33 -6.73,38.02 1.68,71.29 18.79,74.32 17.1,3.02 36.42,-25.34 43.14,-63.35" />
          <path
             id="path520"
             style="fill:#f68b1f;fill-opacity:1;fill-rule:nonzero;stroke:none"
             d="m 7305.08,1010.36 c -53.46,-133.258 -204.84,-197.969 -338.11,-144.52 -133.26,53.469 -197.97,204.84 -144.51,338.12 53.45,133.27 204.83,197.96 338.1,144.52 133.27,-53.47 197.97,-204.85 144.52,-338.12" />
          <path
             id="path522"
             style="fill:#fca95e;fill-opacity:1;fill-rule:nonzero;stroke:none"
             d="m 6832.82,1179.72 c 53.46,133.27 204.83,197.98 338.09,144.52 62.25,-24.97 109.52,-71.28 136.81,-127.14 -24.56,66.57 -76.11,122.87 -147.16,151.38 -133.27,53.44 -284.65,-11.25 -338.1,-144.52 -28.49,-71.03 -23.41,-147.21 7.73,-210.968 -21.52,58.328 -22.33,124.508 2.63,186.728" />
          <path
             id="path524"
             style="fill:#ba6519;fill-opacity:1;fill-rule:nonzero;stroke:none"
             d="m 7297.36,1221.33 c 21.51,-58.31 22.31,-124.47 -2.65,-186.72 -53.46,-133.27 -204.83,-197.981 -338.1,-144.508 -62.23,24.957 -109.52,71.277 -136.79,127.138 24.57,-66.58 76.12,-122.888 147.15,-151.4 133.27,-53.449 284.65,11.262 338.11,144.52 28.5,71.05 23.41,147.22 -7.72,210.97" />
          <path
             id="path526"
             style="fill:#00addd;fill-opacity:1;fill-rule:nonzero;stroke:none"
             d="m 7174.92,979.73 c 0.66,10.012 -0.97,17.59 -3.63,16.942 -2.46,-0.613 -4.91,-7.973 -5.79,-16.953 -23.24,-8.539 -90.71,-34.93 -155.43,-7.61 -66.52,25.301 -96.98,92.381 -107.52,113.761 5.34,6.9 8.47,13.66 7.14,15.73 -1.46,2.32 -7.88,-2.06 -14.33,-9.73 -6.45,-7.68 -10.48,-15.79 -9.01,-18.09 1.37,-2.13 6.97,1.45 12.91,8.09 6.25,-27.15 34.66,-99.46 104.14,-126.37 68.01,-28.211 137.7,3.309 161.78,18.832 -0.18,-8.453 1.38,-14.492 3.75,-13.91 2.67,0.648 5.34,9.297 5.99,19.308" />
          <path
             id="path528"
             style="fill:#fca95e;fill-opacity:1;fill-rule:nonzero;stroke:none"
             d="m 7026.43,1246.9 c -0.64,0.26 -1.32,0.45 -2,0.62 14.32,-8.33 15.08,-41.28 1.29,-75.65 -13.78,-34.36 -37.1,-57.65 -53.2,-53.76 0.6,-0.38 1.23,-0.68 1.88,-0.94 16.11,-6.47 40.84,17.33 55.21,53.14 14.38,35.83 12.95,70.13 -3.18,76.59 z m 168.67,-67.65 c -0.67,0.26 -1.34,0.45 -2.01,0.61 14.31,-8.33 15.07,-41.27 1.28,-75.63 -13.78,-34.38 -37.09,-57.66 -53.2,-53.78 0.61,-0.36 1.23,-0.67 1.89,-0.94 16.11,-6.46 40.84,17.33 55.21,53.15 14.36,35.83 12.95,70.12 -3.17,76.59" />
          <path
             id="path530"
             style="fill:none;stroke:#fca95e;stroke-width:2.09677005;stroke-linecap:butt;stroke-linejoin:miter;stroke-miterlimit:4;stroke-dasharray:none;stroke-opacity:1"
             d="m 7026.43,1246.9 c -0.64,0.26 -1.32,0.45 -2,0.62 14.32,-8.33 15.08,-41.28 1.29,-75.65 -13.78,-34.36 -37.1,-57.65 -53.2,-53.76 0.6,-0.38 1.23,-0.68 1.88,-0.94 16.11,-6.47 40.84,17.33 55.21,53.14 14.38,35.83 12.95,70.13 -3.18,76.59 z m 168.67,-67.65 c -0.67,0.26 -1.34,0.45 -2.01,0.61 14.31,-8.33 15.07,-41.27 1.28,-75.63 -13.78,-34.38 -37.09,-57.66 -53.2,-53.78 0.61,-0.36 1.23,-0.67 1.89,-0.94 16.11,-6.46 40.84,17.33 55.21,53.15 14.36,35.83 12.95,70.12 -3.17,76.59 z" />
          <path
             id="path532"
             style="fill:#00addd;fill-opacity:1;fill-rule:nonzero;stroke:none"
             d="m 7025.72,1171.87 c -14.37,-35.83 -39.08,-59.6 -55.22,-53.15 -16.12,6.48 -17.54,40.76 -3.16,76.57 14.37,35.84 39.09,59.64 55.2,53.17 16.13,-6.46 17.55,-40.76 3.18,-76.59" />
          <path
             id="path534"
             style="fill:#f68b1f;fill-opacity:1;fill-rule:nonzero;stroke:none"
             d="M 7057,827.141 C 7195.28,788.492 7276.07,645.039 7237.43,506.742 7198.77,368.469 7055.33,287.691 6917.03,326.32 6778.74,364.969 6697.96,508.398 6736.6,646.699 6775.26,785 6918.7,865.77 7057,827.141" />
          <path
             id="path536"
             style="fill:#fca95e;fill-opacity:1;fill-rule:nonzero;stroke:none"
             d="m 6940,339.27 c -138.3,38.652 -219.08,182.082 -180.43,320.359 18.05,64.59 58.94,116.621 111.51,149.82 -63.51,-31.66 -113.87,-89.019 -134.48,-162.75 -38.64,-138.301 42.14,-281.73 180.43,-320.379 73.71,-20.59 148.88,-7.25 208.88,30.641 -55.64,-27.75 -121.34,-35.742 -185.91,-17.691" />
          <path
             id="path538"
             style="fill:#ba6519;fill-opacity:1;fill-rule:nonzero;stroke:none"
             d="m 6848.12,796.512 c 55.63,27.738 121.31,35.73 185.9,17.679 138.29,-38.64 219.08,-182.089 180.42,-320.382 -18.05,-64.567 -58.95,-116.61 -111.51,-149.797 63.51,31.66 113.88,89.019 134.5,162.73 38.64,138.297 -42.15,281.75 -180.43,320.399 -73.73,20.597 -148.9,7.25 -208.88,-30.629" />
          <path
             id="path540"
             style="fill:#00addd;fill-opacity:1;fill-rule:nonzero;stroke:none"
             d="m 7101.61,701.07 c -10.03,-0.429 -17.4,-2.871 -16.46,-5.441 0.87,-2.379 8.46,-4.02 17.48,-3.91 11.02,-22.18 44.59,-86.379 24.47,-153.688 -17.92,-68.871 -81.28,-106.449 -101.39,-119.242 -7.44,4.531 -14.5,6.91 -16.42,5.371 -2.14,-1.699 2.91,-7.601 11.24,-13.18 8.33,-5.558 16.83,-8.699 18.96,-6.992 1.97,1.614 -2.2,6.774 -9.46,11.953 26.32,9.18 95.11,45.27 114.31,117.258 20.65,70.692 -18.27,136.543 -36.31,158.781 8.42,0.739 14.25,2.95 13.42,5.25 -0.95,2.571 -9.82,4.29 -19.84,3.84" />
          <path
             id="path542"
             style="fill:#fca95e;fill-opacity:1;fill-rule:nonzero;stroke:none"
             d="m 6852.15,524.41 c -0.17,-0.66 -0.3,-1.359 -0.39,-2.07 6.72,15.16 39.4,19.5 75.06,9.519 35.66,-9.968 61.35,-30.609 59.24,-47.039 0.3,0.649 0.53,1.289 0.72,1.981 4.68,16.719 -21.67,38.711 -58.84,49.097 -37.17,10.391 -71.11,5.25 -75.79,-11.488 z m 48.92,175.031 c -0.19,-0.703 -0.3,-1.371 -0.39,-2.07 6.72,15.129 39.38,19.481 75.05,9.5 35.66,-9.961 61.35,-30.59 59.24,-47.039 0.29,0.66 0.53,1.297 0.73,1.988 4.67,16.719 -21.67,38.719 -58.84,49.102 -37.18,10.379 -71.11,5.238 -75.79,-11.481" />
          <path
             id="path544"
             style="fill:none;stroke:#fca95e;stroke-width:2.09677005;stroke-linecap:butt;stroke-linejoin:miter;stroke-miterlimit:4;stroke-dasharray:none;stroke-opacity:1"
             d="m 6852.15,524.41 c -0.17,-0.66 -0.3,-1.359 -0.39,-2.07 6.72,15.16 39.4,19.5 75.06,9.519 35.66,-9.968 61.35,-30.609 59.24,-47.039 0.3,0.649 0.53,1.289 0.72,1.981 4.68,16.719 -21.67,38.711 -58.84,49.097 -37.17,10.391 -71.11,5.25 -75.79,-11.488 z m 48.92,175.031 c -0.19,-0.703 -0.3,-1.371 -0.39,-2.07 6.72,15.129 39.38,19.481 75.05,9.5 35.66,-9.961 61.35,-30.59 59.24,-47.039 0.29,0.66 0.53,1.297 0.73,1.988 4.67,16.719 -21.67,38.719 -58.84,49.102 -37.18,10.379 -71.11,5.238 -75.79,-11.481 z" />
          <path
             id="path546"
             style="fill:#00addd;fill-opacity:1;fill-rule:nonzero;stroke:none"
             d="m 6926.82,531.859 c 37.18,-10.379 63.51,-32.367 58.84,-49.109 -4.68,-16.73 -38.61,-21.871 -75.77,-11.461 -37.19,10.391 -63.54,32.359 -58.85,49.082 4.66,16.738 38.6,21.879 75.78,11.488" />
          <path
             id="path548"
             style="fill:#00addd;fill-opacity:1;fill-rule:nonzero;stroke:none"
             d="m 6975.73,706.871 c 37.17,-10.371 63.51,-32.351 58.84,-49.109 -4.68,-16.711 -38.61,-21.852 -75.77,-11.461 -37.17,10.39 -63.53,32.371 -58.86,49.109 4.67,16.719 38.61,21.86 75.79,11.461" />
          <path
             id="path550"
             style="fill:#f68b1f;fill-opacity:1;fill-rule:nonzero;stroke:none"
             d="m 6521.06,2727.5 c 138.28,-38.65 219.07,-182.11 180.43,-320.39 -38.65,-138.3 -182.1,-219.08 -320.4,-180.43 -138.29,38.65 -219.06,182.09 -180.43,320.37 38.66,138.3 182.1,219.08 320.4,180.45" />
          <path
             id="path552"
             style="fill:#fca95e;fill-opacity:1;fill-rule:nonzero;stroke:none"
             d="m 6404.07,2239.61 c -138.3,38.65 -219.08,182.09 -180.44,320.37 18.05,64.59 58.94,116.62 111.51,149.82 -63.5,-31.66 -113.87,-89.02 -134.48,-162.75 -38.63,-138.28 42.14,-281.72 180.43,-320.37 73.71,-20.61 148.89,-7.27 208.89,30.62 -55.65,-27.73 -121.35,-35.74 -185.91,-17.69" />
          <path
             id="path554"
             style="fill:#ba6519;fill-opacity:1;fill-rule:nonzero;stroke:none"
             d="m 6312.18,2696.87 c 55.63,27.74 121.31,35.73 185.9,17.68 138.29,-38.65 219.08,-182.09 180.42,-320.39 -18.05,-64.57 -58.94,-116.6 -111.5,-149.8 63.5,31.68 113.87,89.04 134.49,162.75 38.64,138.28 -42.15,281.74 -180.43,320.39 -73.73,20.6 -148.9,7.25 -208.88,-30.63" />
          <path
             id="path556"
             style="fill:#00addd;fill-opacity:1;fill-rule:nonzero;stroke:none"
             d="m 6565.67,2601.43 c -10.03,-0.43 -17.39,-2.88 -16.46,-5.43 0.87,-2.39 8.46,-4.03 17.48,-3.93 11.02,-22.17 44.59,-86.37 24.48,-153.67 -17.92,-68.89 -81.29,-106.47 -101.4,-119.26 -7.44,4.55 -14.5,6.93 -16.42,5.39 -2.13,-1.72 2.91,-7.62 11.24,-13.2 8.33,-5.57 16.83,-8.69 18.96,-6.97 1.97,1.58 -2.2,6.75 -9.45,11.95 26.32,9.16 95.1,45.27 114.3,117.26 20.65,70.67 -18.27,136.53 -36.31,158.77 8.42,0.75 14.25,2.95 13.42,5.24 -0.94,2.58 -9.82,4.29 -19.84,3.85" />
          <path
             id="path558"
             style="fill:#fca95e;fill-opacity:1;fill-rule:nonzero;stroke:none"
             d="m 6316.22,2424.77 c -0.18,-0.67 -0.31,-1.35 -0.39,-2.06 6.71,15.14 39.39,19.48 75.05,9.52 35.66,-9.96 61.35,-30.61 59.24,-47.03 0.3,0.62 0.53,1.28 0.72,1.95 4.68,16.74 -21.67,38.73 -58.83,49.12 -37.18,10.39 -71.12,5.23 -75.79,-11.5 z m 48.91,175.03 c -0.18,-0.7 -0.3,-1.38 -0.39,-2.07 6.72,15.12 39.39,19.48 75.05,9.5 35.66,-9.96 61.35,-30.59 59.24,-47.03 0.29,0.64 0.54,1.28 0.73,1.97 4.67,16.74 -21.67,38.73 -58.84,49.1 -37.17,10.39 -71.11,5.25 -75.79,-11.47" />
          <path
             id="path560"
             style="fill:none;stroke:#fca95e;stroke-width:2.09677005;stroke-linecap:butt;stroke-linejoin:miter;stroke-miterlimit:4;stroke-dasharray:none;stroke-opacity:1"
             d="m 6316.22,2424.77 c -0.18,-0.67 -0.31,-1.35 -0.39,-2.06 6.71,15.14 39.39,19.48 75.05,9.52 35.66,-9.96 61.35,-30.61 59.24,-47.03 0.3,0.62 0.53,1.28 0.72,1.95 4.68,16.74 -21.67,38.73 -58.83,49.12 -37.18,10.39 -71.12,5.23 -75.79,-11.5 z m 48.91,175.03 c -0.18,-0.7 -0.3,-1.38 -0.39,-2.07 6.72,15.12 39.39,19.48 75.05,9.5 35.66,-9.96 61.35,-30.59 59.24,-47.03 0.29,0.64 0.54,1.28 0.73,1.97 4.67,16.74 -21.67,38.73 -58.84,49.1 -37.17,10.39 -71.11,5.25 -75.79,-11.47 z" />
          <path
             id="path562"
             style="fill:#00addd;fill-opacity:1;fill-rule:nonzero;stroke:none"
             d="m 6390.88,2432.23 c 37.18,-10.39 63.51,-32.37 58.84,-49.12 -4.68,-16.72 -38.61,-21.86 -75.77,-11.47 -37.19,10.39 -63.53,32.38 -58.85,49.1 4.66,16.72 38.61,21.88 75.78,11.49" />
          <path
             id="path564"
             style="fill:#00addd;fill-opacity:1;fill-rule:nonzero;stroke:none"
             d="m 6439.79,2607.23 c 37.17,-10.37 63.52,-32.35 58.84,-49.11 -4.68,-16.71 -38.61,-21.85 -75.76,-11.46 -37.18,10.39 -63.54,32.36 -58.87,49.1 4.68,16.72 38.61,21.86 75.79,11.47" />
          <path
             id="path566"
             style="fill:#f68b1f;fill-opacity:1;fill-rule:nonzero;stroke:none"
             d="m 6972.53,1924.86 c 142.57,-17.13 244.25,-146.6 227.12,-289.16 -17.14,-142.58 -146.6,-244.25 -289.17,-227.13 -142.56,17.15 -244.24,146.61 -227.12,289.18 17.14,142.56 146.61,244.24 289.17,227.11" />
          <path
             id="path568"
             style="fill:#fca95e;fill-opacity:1;fill-rule:nonzero;stroke:none"
             d="m 6931.21,1424.86 c -142.57,17.13 -244.25,146.6 -227.12,289.18 8,66.57 40.5,124.22 87.39,165.04 -57.94,-40.96 -98.98,-105.33 -108.12,-181.33 -17.12,-142.57 84.56,-272.03 227.12,-289.18 75.99,-9.12 148.26,15.51 201.77,62.09 -50.75,-35.87 -114.47,-53.79 -181.04,-45.8" />
          <path
             id="path570"
             style="fill:#ba6519;fill-opacity:1;fill-rule:nonzero;stroke:none"
             d="m 6770.76,1862.79 c 50.75,35.88 114.46,53.79 181.04,45.78 142.57,-17.12 244.25,-146.6 227.12,-289.16 -8.01,-66.56 -40.51,-124.21 -87.4,-165.04 57.94,40.98 99,105.34 108.13,181.33 17.13,142.56 -84.55,272.03 -227.12,289.16 -75.99,9.14 -148.26,-15.49 -201.77,-62.07" />
          <path
             id="path572"
             style="fill:#00addd;fill-opacity:1;fill-rule:nonzero;stroke:none"
             d="m 7035.83,1807.07 c -9.84,-1.95 -16.75,-5.49 -15.43,-7.89 1.21,-2.21 8.96,-2.68 17.88,-1.19 14.24,-20.24 57.21,-78.6 47.57,-148.17 -7.21,-70.8 -64.13,-117.59 -82.04,-133.3 -8.06,3.36 -15.39,4.63 -17.05,2.82 -1.85,-2.02 4.04,-7.07 13.13,-11.31 9.08,-4.26 17.95,-6.06 19.79,-4.03 1.7,1.86 -3.21,6.35 -11.16,10.37 24.61,13.07 87.09,59.24 95.1,133.31 9.66,73 -38.84,132.12 -60.06,151.38 8.2,2.03 13.63,5.08 12.45,7.23 -1.31,2.4 -10.35,2.75 -20.18,0.78" />
          <path
             id="path574"
             style="fill:#fca95e;fill-opacity:1;fill-rule:nonzero;stroke:none"
             d="m 6816.2,1594.49 c -0.09,-0.7 -0.09,-1.4 -0.08,-2.09 4.34,15.98 35.96,25.24 72.73,20.82 36.77,-4.41 65.3,-20.92 65.72,-37.46 0.18,0.67 0.33,1.35 0.41,2.05 2.08,17.25 -27.31,34.96 -65.63,39.57 -38.33,4.61 -71.08,-5.64 -73.15,-22.89 z m 21.68,180.43 c -0.08,-0.7 -0.09,-1.4 -0.08,-2.11 4.34,15.98 35.96,25.26 72.73,20.82 36.77,-4.41 65.3,-20.9 65.72,-37.46 0.19,0.69 0.33,1.37 0.42,2.07 2.07,17.25 -27.32,34.96 -65.64,39.55 -38.32,4.61 -71.08,-5.62 -73.15,-22.87" />
          <path
             id="path576"
             style="fill:none;stroke:#fca95e;stroke-width:2.09677005;stroke-linecap:butt;stroke-linejoin:miter;stroke-miterlimit:4;stroke-dasharray:none;stroke-opacity:1"
             d="m 6816.2,1594.49 c -0.09,-0.7 -0.09,-1.4 -0.08,-2.09 4.34,15.98 35.96,25.24 72.73,20.82 36.77,-4.41 65.3,-20.92 65.72,-37.46 0.18,0.67 0.33,1.35 0.41,2.05 2.08,17.25 -27.31,34.96 -65.63,39.57 -38.33,4.61 -71.08,-5.64 -73.15,-22.89 z m 21.68,180.43 c -0.08,-0.7 -0.09,-1.4 -0.08,-2.11 4.34,15.98 35.96,25.26 72.73,20.82 36.77,-4.41 65.3,-20.9 65.72,-37.46 0.19,0.69 0.33,1.37 0.42,2.07 2.07,17.25 -27.32,34.96 -65.64,39.55 -38.32,4.61 -71.08,-5.62 -73.15,-22.87 z" />
          <path
             id="path578"
             style="fill:#00addd;fill-opacity:1;fill-rule:nonzero;stroke:none"
             d="m 6888.85,1613.22 c 38.32,-4.61 67.71,-22.32 65.63,-39.57 -2.07,-17.24 -34.82,-27.5 -73.14,-22.89 -38.33,4.61 -67.72,22.33 -65.64,39.57 2.07,17.25 34.82,27.5 73.15,22.89" />
          <path
             id="path580"
             style="fill:#00addd;fill-opacity:1;fill-rule:nonzero;stroke:none"
             d="m 6910.53,1793.63 c 38.32,-4.59 67.71,-22.3 65.64,-39.57 -2.08,-17.22 -34.83,-27.48 -73.14,-22.87 -38.33,4.61 -67.72,22.33 -65.65,39.55 2.07,17.27 34.82,27.5 73.15,22.89" />
        </g>
      </g>
      <path
         id="path582"
         style="fill:#008399;fill-opacity:1;fill-rule:nonzero;stroke:none;stroke-width:0.1"
         d="m 544.21061,165.71493 c 0,0 -2.238,-20.486 8.983,-39.478 0,0 3.254,-7.037 8.437,-4.422 5.143,2.591 1.029,9.7 0.041,11.885 -0.98,2.174 -7.902,12.133 -9.295,14.178 -2.138,3.143 -4.949,12.971 -5.443,16.101 -0.492,3.104 -0.34,8.108 1.076,12.227 0,0 -3.225,-6.43 -3.799,-10.491" />
      <path
         id="path584"
         style="fill:none;stroke:#0088a8;stroke-width:1;stroke-linecap:butt;stroke-linejoin:miter;stroke-miterlimit:4;stroke-dasharray:none;stroke-opacity:1"
         d="m 544.21061,165.71493 c 0,0 -2.238,-20.486 8.983,-39.478 0,0 3.254,-7.037 8.437,-4.422 5.143,2.591 1.029,9.7 0.041,11.885 -0.98,2.174 -7.902,12.133 -9.295,14.178 -2.138,3.143 -4.949,12.971 -5.443,16.101 -0.492,3.104 -0.34,8.108 1.076,12.227 0,0 -3.225,-6.43 -3.799,-10.491 z" />
      <path
         id="path586"
         style="fill:#008399;fill-opacity:1;fill-rule:nonzero;stroke:none;stroke-width:0.1"
         d="m 618.80061,184.84293 c 0,0 1.527,-20.582 0.826,-23.904 -0.707,-3.35 -5.949,-12.715 -9.795,-16.023 -3.886,-3.343 -10.379,-13.128 -10.98,-15.587 -0.608,-2.475 -3.479,-7.68 1.224,-10.992 4.733,-3.332 8.493,0.846 10.559,2.689 0,0 4.912,5.321 7.344,10.325 2.398,4.935 7.84,16.552 6.189,30.713 -1.588,13.66 -5.367,22.779 -5.367,22.779" />
      <path
         id="path588"
         style="fill:none;stroke:#0088a8;stroke-width:1;stroke-linecap:butt;stroke-linejoin:miter;stroke-miterlimit:4;stroke-dasharray:none;stroke-opacity:1"
         d="m 618.80061,184.84293 c 0,0 1.527,-20.582 0.826,-23.904 -0.707,-3.35 -5.949,-12.715 -9.795,-16.023 -3.886,-3.343 -10.379,-13.128 -10.98,-15.587 -0.608,-2.475 -3.479,-7.68 1.224,-10.992 4.733,-3.332 8.493,0.846 10.559,2.689 0,0 4.912,5.321 7.344,10.325 2.398,4.935 7.84,16.552 6.189,30.713 -1.588,13.66 -5.367,22.779 -5.367,22.779 z" />
      <path
         id="path590"
         style="fill:#00addd;fill-opacity:1;fill-rule:nonzero;stroke:none;stroke-width:0.1"
         d="m 591.23661,232.25293 c 0,0 5.615,3.064 7.466,4.917 1.852,1.852 5.586,1.64 5.586,-1.153 0,-2.793 -3.888,-7.264 -6.074,-8.478 l -6.978,4.714" />
      <path
         id="path592"
         style="fill:#00addd;fill-opacity:1;fill-rule:nonzero;stroke:none;stroke-width:0.1"
         d="m 544.33761,154.62993 c 0,0 3.557,29.699 19.309,43.363 20,17.347 30.736,22.674 30.736,22.674 0,0 17.068,-16.533 24.418,-38.337 5.904,-23.158 5.663,-26.574 5.663,-26.574 0,0 4.655,26.78 1.317,38.591 -3.826,13.537 -7.111,24.822 -19.888,34.043 -2.27,1.638 -7.778,5.039 -10.987,5.197 -3.597,0.178 -8.753,-3.297 -11.435,-4.745 -7.205,-3.896 -13.666,-8.642 -19.467,-14.146 -7.801,-7.402 -15.449,-14.836 -18.015,-25.156 -3.413,-13.727 -1.68,-21.258 -1.651,-34.91" />
      <path
         id="path594"
         style="fill:none;stroke:#0088a8;stroke-width:1;stroke-linecap:butt;stroke-linejoin:miter;stroke-miterlimit:4;stroke-dasharray:none;stroke-opacity:1"
         d="m 544.33761,154.62993 c 0,0 3.557,29.699 19.309,43.363 20,17.347 30.736,22.674 30.736,22.674 0,0 17.068,-16.533 24.418,-38.337 5.904,-23.158 5.663,-26.574 5.663,-26.574 0,0 4.655,26.78 1.317,38.591 -3.826,13.537 -7.111,24.822 -19.888,34.043 -2.27,1.638 -7.778,5.039 -10.987,5.197 -3.597,0.178 -8.753,-3.297 -11.435,-4.745 -7.205,-3.896 -13.666,-8.642 -19.467,-14.146 -7.801,-7.402 -15.449,-14.836 -18.015,-25.156 -3.413,-13.727 -1.68,-21.258 -1.651,-34.91 z" />
      <path
         id="path596"
         style="fill:#008399;fill-opacity:1;fill-rule:nonzero;stroke:none;stroke-width:0.1"
         d="m 740.25361,165.71493 c 0,0 2.239,-20.486 -8.981,-39.478 0,0 -3.254,-7.037 -8.438,-4.422 -5.142,2.591 -1.029,9.7 -0.042,11.885 0.982,2.174 7.904,12.133 9.296,14.178 2.138,3.143 4.948,12.971 5.443,16.101 0.493,3.104 0.341,8.108 -1.076,12.227 0,0 3.225,-6.43 3.798,-10.491" />
      <path
         id="path598"
         style="fill:none;stroke:#0088a8;stroke-width:1;stroke-linecap:butt;stroke-linejoin:miter;stroke-miterlimit:4;stroke-dasharray:none;stroke-opacity:1"
         d="m 740.25361,165.71493 c 0,0 2.239,-20.486 -8.981,-39.478 0,0 -3.254,-7.037 -8.438,-4.422 -5.142,2.591 -1.029,9.7 -0.042,11.885 0.982,2.174 7.904,12.133 9.296,14.178 2.138,3.143 4.948,12.971 5.443,16.101 0.493,3.104 0.341,8.108 -1.076,12.227 0,0 3.225,-6.43 3.798,-10.491 z" />
      <path
         id="path600"
         style="fill:#008399;fill-opacity:1;fill-rule:nonzero;stroke:none;stroke-width:0.1"
         d="m 665.66461,184.84293 c 0,0 -1.527,-20.582 -0.826,-23.904 0.707,-3.35 5.948,-12.715 9.795,-16.023 3.887,-3.343 10.379,-13.128 10.981,-15.587 0.607,-2.475 3.478,-7.68 -1.225,-10.992 -4.734,-3.332 -8.492,0.846 -10.558,2.689 0,0 -4.912,5.321 -7.343,10.325 -2.398,4.935 -7.839,16.552 -6.191,30.713 1.589,13.66 5.367,22.779 5.367,22.779" />
      <path
         id="path602"
         style="fill:none;stroke:#0088a8;stroke-width:1;stroke-linecap:butt;stroke-linejoin:miter;stroke-miterlimit:4;stroke-dasharray:none;stroke-opacity:1"
         d="m 665.66461,184.84293 c 0,0 -1.527,-20.582 -0.826,-23.904 0.707,-3.35 5.948,-12.715 9.795,-16.023 3.887,-3.343 10.379,-13.128 10.981,-15.587 0.607,-2.475 3.478,-7.68 -1.225,-10.992 -4.734,-3.332 -8.492,0.846 -10.558,2.689 0,0 -4.912,5.321 -7.343,10.325 -2.398,4.935 -7.839,16.552 -6.191,30.713 1.589,13.66 5.367,22.779 5.367,22.779 z" />
      <path
         id="path604"
         style="fill:#00addd;fill-opacity:1;fill-rule:nonzero;stroke:none;stroke-width:0.1"
         d="m 693.22961,232.25293 c 0,0 -5.615,3.064 -7.467,4.917 -1.852,1.852 -5.586,1.64 -5.586,-1.153 0,-2.793 3.889,-7.264 6.074,-8.478 l 6.979,4.714" />
      <path
         id="path606"
         style="fill:#00addd;fill-opacity:1;fill-rule:nonzero;stroke:none;stroke-width:0.1"
         d="m 740.13461,154.71693 c 0,0 -3.563,29.612 -19.316,43.276 -20,17.347 -30.736,22.674 -30.736,22.674 0,0 -17.07,-16.533 -24.418,-38.337 -6.12,-23.091 -5.662,-26.574 -5.662,-26.574 0,0 -4.656,26.78 -1.318,38.591 3.826,13.537 7.11,24.822 19.887,34.043 2.271,1.638 7.778,5.039 10.988,5.197 3.597,0.178 8.754,-3.297 11.435,-4.745 7.203,-3.896 13.666,-8.642 19.467,-14.146 7.801,-7.402 15.449,-14.836 18.016,-25.156 3.412,-13.727 1.686,-21.171 1.657,-34.823" />
      <path
         id="path608"
         style="fill:none;stroke:#0088a8;stroke-width:1;stroke-linecap:butt;stroke-linejoin:miter;stroke-miterlimit:4;stroke-dasharray:none;stroke-opacity:1"
         d="m 740.13461,154.71693 c 0,0 -3.563,29.612 -19.316,43.276 -20,17.347 -30.736,22.674 -30.736,22.674 0,0 -17.07,-16.533 -24.418,-38.337 -6.12,-23.091 -5.662,-26.574 -5.662,-26.574 0,0 -4.656,26.78 -1.318,38.591 3.826,13.537 7.11,24.822 19.887,34.043 2.271,1.638 7.778,5.039 10.988,5.197 3.597,0.178 8.754,-3.297 11.435,-4.745 7.203,-3.896 13.666,-8.642 19.467,-14.146 7.801,-7.402 15.449,-14.836 18.016,-25.156 3.412,-13.727 1.686,-21.171 1.657,-34.823 z" />
    </g>
  </g>
</svg>
