<?xml version="1.0" encoding="UTF-8" standalone="no"?>
<svg
   xmlns:dc="http://purl.org/dc/elements/1.1/"
   xmlns:cc="http://creativecommons.org/ns#"
   xmlns:rdf="http://www.w3.org/1999/02/22-rdf-syntax-ns#"
   xmlns:svg="http://www.w3.org/2000/svg"
   xmlns="http://www.w3.org/2000/svg"
   id="svg1932"
   version="1.1"
   viewBox="0 0 71.749352 78.12088"
   height="78.12088mm"
   width="71.749352mm">
  <defs
     id="defs1926">
    <clipPath
       id="clipPath106"
       clipPathUnits="userSpaceOnUse">
      <path
         id="path104"
         d="m 2187.21,2830.68 c 320.61,0 283.24,300.44 295.35,528.35 14.69,276.15 41.46,549.01 61.18,824.35 17.43,243.58 11.99,464.8 -183,644.32 -126.26,116.23 -452.89,238.62 -574.68,49.85 -253.74,-393.32 146.08,-874.96 99.7,-1289.31 -33.48,-299.03 -195.51,-757.56 301.45,-757.56 z m -1138.52,0 c -320.6,0 -283.237,300.44 -295.346,528.35 -14.696,276.15 -41.453,549.01 -61.172,824.35 -17.442,243.58 -12,464.8 182.988,644.32 126.26,116.23 452.9,238.62 574.69,49.85 253.73,-393.32 -146.09,-874.96 -99.71,-1289.31 33.49,-299.03 195.51,-757.56 -301.45,-757.56 z" />
    </clipPath>
  </defs>
  <metadata
     id="metadata1929">
    <rdf:RDF>
      <cc:Work
         rdf:about="">
        <dc:format>image/svg+xml</dc:format>
        <dc:type
           rdf:resource="http://purl.org/dc/dcmitype/StillImage" />
        <dc:title></dc:title>
      </cc:Work>
    </rdf:RDF>
  </metadata>
  <g
     transform="translate(-42.74437,-67.439565)"
     id="layer1">
    <g
       id="g1869"
       transform="matrix(0.35277777,0,0,-0.35277777,9.7766045,243.666)">
      <path
         id="path98"
         style="fill:#bed63a;fill-opacity:1;fill-rule:nonzero;stroke:none;stroke-width:0.1"
         d="m 252.04361,282.23493 c 32.061,0 28.324,30.044 29.535,52.835 1.469,27.615 4.146,54.901 6.118,82.435 1.743,24.358 1.199,46.48 -18.3,64.432 -12.626,11.623 -45.289,23.862 -57.468,4.985 -25.374,-39.332 14.608,-87.496 9.97,-128.931 -3.348,-29.903 -19.551,-75.756 30.145,-75.756 z m -113.852,0 c -32.06,0 -28.3237,30.044 -29.5346,52.835 -1.4696,27.615 -4.1453,54.901 -6.1172,82.435 -1.7442,24.358 -1.2,46.48 18.2988,64.432 12.626,11.623 45.29,23.862 57.469,4.985 25.373,-39.332 -14.609,-87.496 -9.971,-128.931 3.349,-29.903 19.551,-75.756 -30.145,-75.756" />
      <g
         id="g100"
         transform="matrix(0.1,0,0,0.1,33.322608,-0.83306519)">
        <g
           clip-path="url(#clipPath106)"
           id="g102">
          <path
             id="path108"
             style="fill:#d6ea42;fill-opacity:1;fill-rule:nonzero;stroke:none"
             d="m 985.934,3304.2 62.126,116.22 -27.1,-128.97 122.31,49.09 -103.67,-81.37 125.24,-41.02 -131.71,4.3 69.58,-111.92 -98.14,87.96 -18.636,-130.46 -18.645,130.46 -98.144,-87.96 69.582,111.92 -131.711,-4.3 125.234,41.02 -103.66,81.37 122.305,-49.09 -27.102,128.97 62.141,-116.22" />
          <path
             id="path110"
             style="fill:#d6ea42;fill-opacity:1;fill-rule:nonzero;stroke:none"
             d="m 1145.93,3864.2 62.13,116.22 -27.1,-128.97 122.31,49.09 -103.67,-81.37 125.24,-41.02 -131.71,4.3 69.58,-111.92 -98.14,87.96 -18.64,-130.46 -18.64,130.46 -98.14,-87.96 69.58,111.92 -131.714,-4.3 125.234,41.02 -103.66,81.37 122.3,-49.09 -27.1,128.97 62.14,-116.22" />
          <path
             id="path112"
             style="fill:#d6ea42;fill-opacity:1;fill-rule:nonzero;stroke:none"
             d="m 1379.65,4042.62 62.14,116.21 -27.11,-128.97 122.31,49.1 -103.66,-81.38 125.24,-41.01 -131.72,4.29 69.58,-111.92 -98.13,87.96 -18.65,-130.46 -18.64,130.46 -98.13,-87.96 69.58,111.92 -131.72,-4.29 125.24,41.01 -103.66,81.38 122.3,-49.1 -27.11,128.97 62.14,-116.21" />
          <path
             id="path114"
             style="fill:#d6ea42;fill-opacity:1;fill-rule:nonzero;stroke:none"
             d="m 838.578,4084.68 62.129,116.21 -27.098,-128.97 122.305,49.1 -103.664,-81.38 125.24,-41.01 -131.713,4.29 69.578,-111.92 -98.144,87.96 -18.633,-130.46 -18.64,130.46 -98.145,-87.96 69.578,111.92 -131.707,-4.29 125.234,41.01 -103.664,81.38 122.305,-49.1 -27.098,128.97 62.137,-116.21" />
          <path
             id="path116"
             style="fill:#d6ea42;fill-opacity:1;fill-rule:nonzero;stroke:none"
             d="m 1070.54,4359.54 62.13,116.21 -27.1,-128.97 122.31,49.09 -103.67,-81.37 125.24,-41.01 -131.71,4.29 69.58,-111.92 -98.15,87.96 -18.63,-130.46 -18.64,130.46 -98.146,-87.96 69.576,111.92 -131.705,-4.29 125.235,41.01 -103.661,81.37 122.301,-49.09 -27.1,128.97 62.14,-116.21" />
          <path
             id="path118"
             style="fill:#d6ea42;fill-opacity:1;fill-rule:nonzero;stroke:none"
             d="m 1429.6,4729.16 62.13,116.22 -27.1,-128.97 122.31,49.09 -103.66,-81.37 125.23,-41.01 -131.71,4.29 69.58,-111.92 -98.14,87.96 -18.64,-130.46 -18.64,130.46 -98.14,-87.96 69.58,111.92 -131.71,-4.29 125.23,41.01 -103.66,81.37 122.31,-49.09 -27.1,128.97 62.13,-116.22" />
          <path
             id="path120"
             style="fill:#d6ea42;fill-opacity:1;fill-rule:nonzero;stroke:none"
             d="m 1104.63,4871.92 62.14,116.22 -27.11,-128.98 122.31,49.1 -103.66,-81.38 125.24,-41.01 -131.72,4.3 69.58,-111.93 -98.13,87.96 -18.65,-130.46 -18.64,130.46 -98.135,-87.96 69.585,111.93 -131.721,-4.3 125.241,41.01 -103.659,81.38 122.299,-49.1 -27.1,128.98 62.13,-116.22" />
          <path
             id="path122"
             style="fill:#d6ea42;fill-opacity:1;fill-rule:nonzero;stroke:none"
             d="m 761.098,4619.31 62.14,116.21 -27.109,-128.97 122.305,49.09 -103.664,-81.37 125.246,-41.01 -131.719,4.29 69.578,-111.92 -98.133,87.96 -18.644,-130.46 -18.641,130.46 -98.137,-87.96 69.582,111.92 -131.718,-4.29 125.242,41.01 -103.66,81.37 122.304,-49.09 -27.109,128.97 62.137,-116.21" />
          <path
             id="path124"
             style="fill:#d6ea42;fill-opacity:1;fill-rule:nonzero;stroke:none"
             d="m 846.969,3577.64 62.136,116.22 -27.109,-128.97 122.304,49.09 -103.659,-81.38 125.239,-41.01 -131.716,4.3 69.582,-111.93 -98.137,87.96 -18.64,-130.46 -18.645,130.46 -98.133,-87.96 69.579,111.93 -131.719,-4.3 125.246,41.01 -103.664,81.38 122.305,-49.09 -27.11,128.97 62.141,-116.22" />
          <path
             id="path126"
             style="fill:#d6ea42;fill-opacity:1;fill-rule:nonzero;stroke:none"
             d="m 1349.6,3399.17 62.13,116.21 -27.1,-128.97 122.31,49.09 -103.66,-81.37 125.23,-41.01 -131.71,4.29 69.58,-111.92 -98.14,87.96 -18.64,-130.46 -18.64,130.46 -98.14,-87.96 69.58,111.92 -131.71,-4.29 125.23,41.01 -103.66,81.37 122.31,-49.09 -27.1,128.97 62.13,-116.21" />
          <path
             id="path128"
             style="fill:#d6ea42;fill-opacity:1;fill-rule:nonzero;stroke:none"
             d="m 1179.6,2989.17 62.13,116.21 -27.1,-128.97 122.31,49.09 -103.66,-81.37 125.23,-41.02 -131.71,4.3 69.58,-111.92 -98.14,87.95 -18.64,-130.45 -18.64,130.45 -98.14,-87.95 69.58,111.92 -131.71,-4.3 125.23,41.02 -103.66,81.37 122.31,-49.09 -27.1,128.97 62.13,-116.21" />
          <path
             id="path130"
             style="fill:#d6ea42;fill-opacity:1;fill-rule:nonzero;stroke:none"
             d="m 839.605,2976.41 62.129,116.22 -27.101,-128.97 122.305,49.09 -103.661,-81.38 125.233,-41.01 -131.709,4.29 69.582,-111.91 -98.145,87.95 -18.633,-130.46 -18.644,130.46 -98.145,-87.95 69.582,111.91 -131.71,-4.29 125.234,41.01 -103.66,81.38 122.304,-49.09 -27.101,128.97 62.14,-116.22" />
          <path
             id="path132"
             style="fill:#d6ea42;fill-opacity:1;fill-rule:nonzero;stroke:none"
             d="m 2049.6,3025.5 62.13,116.22 -27.1,-128.97 122.31,49.09 -103.66,-81.38 125.23,-41.01 -131.71,4.3 69.58,-111.93 -98.14,87.97 -18.64,-130.47 -18.64,130.47 -98.14,-87.97 69.58,111.93 -131.71,-4.3 125.23,41.01 -103.66,81.38 122.31,-49.09 -27.1,128.97 62.13,-116.22" />
          <path
             id="path134"
             style="fill:#d6ea42;fill-opacity:1;fill-rule:nonzero;stroke:none"
             d="m 2352.08,2888.31 62.13,116.21 -27.11,-128.97 122.31,49.09 -103.66,-81.37 125.24,-41.02 -131.72,4.3 69.58,-111.92 -98.13,87.95 -18.64,-130.45 -18.65,130.45 -98.13,-87.95 69.58,111.92 -131.72,-4.3 125.24,41.02 -103.66,81.37 122.31,-49.09 -27.11,128.97 62.14,-116.21" />
          <path
             id="path136"
             style="fill:#d6ea42;fill-opacity:1;fill-rule:nonzero;stroke:none"
             d="m 1964.63,3411.92 62.14,116.21 -27.11,-128.96 122.31,49.09 -103.66,-81.38 125.24,-41.01 -131.72,4.3 69.58,-111.93 -98.13,87.96 -18.65,-130.46 -18.64,130.46 -98.13,-87.96 69.58,111.93 -131.72,-4.3 125.24,41.01 -103.66,81.38 122.3,-49.09 -27.1,128.96 62.13,-116.21" />
          <path
             id="path138"
             style="fill:#d6ea42;fill-opacity:1;fill-rule:nonzero;stroke:none"
             d="m 2276.27,3580.28 62.14,116.21 -27.11,-128.97 122.31,49.1 -103.66,-81.38 125.24,-41.01 -131.72,4.3 69.58,-111.93 -98.13,87.96 -18.65,-130.46 -18.64,130.46 -98.13,-87.96 69.58,111.93 -131.72,-4.3 125.24,41.01 -103.66,81.38 122.31,-49.1 -27.11,128.97 62.13,-116.21" />
          <path
             id="path140"
             style="fill:#d6ea42;fill-opacity:1;fill-rule:nonzero;stroke:none"
             d="m 2396.8,3220.92 62.14,116.21 -27.11,-128.97 122.31,49.1 -103.67,-81.38 125.25,-41.01 -131.72,4.3 69.58,-111.93 -98.14,87.96 -18.64,-130.46 -18.64,130.46 -98.14,-87.96 69.58,111.93 -131.71,-4.3 125.24,41.01 -103.66,81.38 122.3,-49.1 -27.11,128.97 62.14,-116.21" />
          <path
             id="path142"
             style="fill:#d6ea42;fill-opacity:1;fill-rule:nonzero;stroke:none"
             d="m 2377.15,4050.92 62.13,116.21 -27.1,-128.97 122.31,49.1 -103.66,-81.38 125.23,-41.01 -131.71,4.3 69.58,-111.93 -98.14,87.96 -18.64,-130.46 -18.64,130.46 -98.14,-87.96 69.58,111.93 -131.71,-4.3 125.23,41.01 -103.66,81.38 122.3,-49.1 -27.1,128.97 62.14,-116.21" />
          <path
             id="path144"
             style="fill:#d6ea42;fill-opacity:1;fill-rule:nonzero;stroke:none"
             d="m 2056.8,3910.92 62.14,116.21 -27.11,-128.97 122.31,49.1 -103.67,-81.38 125.25,-41.01 -131.72,4.3 69.58,-111.93 -98.14,87.96 -18.64,-130.46 -18.64,130.46 -98.14,-87.96 69.58,111.93 -131.71,-4.3 125.24,41.01 -103.66,81.38 122.3,-49.1 -27.11,128.97 62.14,-116.21" />
          <path
             id="path146"
             style="fill:#d6ea42;fill-opacity:1;fill-rule:nonzero;stroke:none"
             d="m 2056.8,4301.92 62.14,116.21 -27.11,-128.96 122.31,49.09 -103.67,-81.38 125.25,-41.01 -131.72,4.3 69.58,-111.93 -98.14,87.96 -18.64,-130.46 -18.64,130.46 -98.14,-87.96 69.58,111.93 -131.71,-4.3 125.24,41.01 -103.66,81.38 122.3,-49.09 -27.11,128.96 62.14,-116.21" />
          <path
             id="path148"
             style="fill:#d6ea42;fill-opacity:1;fill-rule:nonzero;stroke:none"
             d="m 2457.49,4371.7 62.12,116.22 -27.1,-128.97 122.31,49.09 -103.66,-81.37 125.23,-41.02 -131.71,4.3 69.58,-111.92 -98.14,87.96 -18.63,-130.46 -18.65,130.46 -98.14,-87.96 69.58,111.92 -131.71,-4.3 125.23,41.02 -103.66,81.37 122.31,-49.09 -27.1,128.97 62.14,-116.22" />
          <path
             id="path150"
             style="fill:#d6ea42;fill-opacity:1;fill-rule:nonzero;stroke:none"
             d="m 2285.19,4542.25 62.13,116.21 -27.1,-128.97 122.3,49.1 -103.66,-81.38 125.24,-41.01 -131.71,4.29 69.58,-111.92 -98.15,87.96 -18.63,-130.46 -18.64,130.46 -98.15,-87.96 69.58,111.92 -131.71,-4.29 125.24,41.01 -103.66,81.38 122.3,-49.1 -27.1,128.97 62.14,-116.21" />
          <path
             id="path152"
             style="fill:#d6ea42;fill-opacity:1;fill-rule:nonzero;stroke:none"
             d="m 2024.63,4911.92 62.14,116.22 -27.11,-128.98 122.31,49.1 -103.66,-81.38 125.24,-41.01 -131.72,4.3 69.58,-111.93 -98.13,87.96 -18.65,-130.46 -18.64,130.46 -98.13,-87.96 69.58,111.93 -131.72,-4.3 125.24,41.01 -103.66,81.38 122.3,-49.1 -27.1,128.98 62.13,-116.22" />
          <path
             id="path154"
             style="fill:#d6ea42;fill-opacity:1;fill-rule:nonzero;stroke:none"
             d="m 1853.28,4574.2 62.14,116.22 -27.11,-128.97 122.3,49.09 -103.66,-81.38 125.24,-41.01 -131.72,4.3 69.58,-111.92 -98.13,87.96 -18.64,-130.46 -18.65,130.46 -98.13,-87.96 69.58,111.92 -131.72,-4.3 125.24,41.01 -103.66,81.38 122.31,-49.09 -27.11,128.97 62.14,-116.22" />
          <path
             id="path156"
             style="fill:#d6ea42;fill-opacity:1;fill-rule:nonzero;stroke:none"
             d="m 2434.58,4841.92 62.12,116.22 -27.1,-128.98 122.31,49.1 -103.66,-81.38 125.23,-41.01 -131.71,4.3 69.58,-111.93 -98.14,87.96 -18.63,-130.46 -18.65,130.46 -98.14,-87.96 69.58,111.93 -131.71,-4.3 125.23,41.01 -103.66,81.38 122.31,-49.1 -27.1,128.98 62.14,-116.22" />
        </g>
      </g>
      <path
         id="path158"
         style="fill:#00addd;fill-opacity:1;fill-rule:nonzero;stroke:none;stroke-width:0.1"
         d="m 182.22561,485.63793 c -3.197,4.956 -7.809,7.765 -13.097,9.006 3.496,-1.559 6.535,-4.015 8.839,-7.587 25.373,-39.331 -14.608,-87.496 -9.97,-128.931 3.348,-29.902 19.55,-75.755 -30.146,-75.755 -3.667,-0.113 -6.8626,0.198 -9.6536,0.864 3.6621,-1.618 8.2206,-2.458 13.9116,-2.283 49.696,0 33.493,45.853 30.145,75.755 -4.638,41.435 35.344,89.599 9.971,128.931" />
      <path
         id="path160"
         style="fill:#00addd;fill-opacity:1;fill-rule:nonzero;stroke:none;stroke-width:0.1"
         d="m 144.11961,466.09293 c 0,0 5.617,3.066 7.468,4.918 1.852,1.852 5.586,1.64 5.586,-1.154 0,-2.792 -3.889,-7.263 -6.075,-8.477 l -6.979,4.713" />
      <path
         id="path162"
         style="fill:#008399;fill-opacity:1;fill-rule:nonzero;stroke:none;stroke-width:0.1"
         d="m 97.096408,399.55593 c 0,0 -2.2402,-20.485 8.981702,-39.478 0,0 3.2527,-7.037 8.4383,-4.422 5.1406,2.591 1.0285,9.7 0.041,11.886 -0.9813,2.172 -7.9043,12.132 -9.2969,14.177 -2.1375,3.142 -4.9481,12.971 -5.442202,16.101 -0.4922,3.104 -0.341,8.108 1.075002,12.227 0,0 -3.223402,-6.429 -3.796902,-10.491" />
      <path
         id="path164"
         style="fill:none;stroke:#0088a8;stroke-width:1;stroke-linecap:butt;stroke-linejoin:miter;stroke-miterlimit:4;stroke-dasharray:none;stroke-opacity:1"
         d="m 97.096408,399.55593 c 0,0 -2.2402,-20.485 8.981702,-39.478 0,0 3.2527,-7.037 8.4383,-4.422 5.1406,2.591 1.0285,9.7 0.041,11.886 -0.9813,2.172 -7.9043,12.132 -9.2969,14.177 -2.1375,3.142 -4.9481,12.971 -5.442202,16.101 -0.4922,3.104 -0.341,8.108 1.075002,12.227 0,0 -3.223402,-6.429 -3.796902,-10.491 z" />
      <path
         id="path166"
         style="fill:#008399;fill-opacity:1;fill-rule:nonzero;stroke:none;stroke-width:0.1"
         d="m 171.68561,418.68393 c 0,0 1.527,-20.582 0.825,-23.904 -0.706,-3.35 -5.948,-12.715 -9.794,-16.023 -3.887,-3.343 -10.379,-13.128 -10.981,-15.588 -0.607,-2.474 -3.479,-7.679 1.225,-10.991 4.733,-3.333 8.492,0.845 10.558,2.689 0,0 4.912,5.321 7.344,10.324 2.397,4.936 7.838,16.553 6.19,30.714 -1.59,13.659 -5.367,22.779 -5.367,22.779" />
      <path
         id="path168"
         style="fill:none;stroke:#0088a8;stroke-width:1;stroke-linecap:butt;stroke-linejoin:miter;stroke-miterlimit:4;stroke-dasharray:none;stroke-opacity:1"
         d="m 171.68561,418.68393 c 0,0 1.527,-20.582 0.825,-23.904 -0.706,-3.35 -5.948,-12.715 -9.794,-16.023 -3.887,-3.343 -10.379,-13.128 -10.981,-15.588 -0.607,-2.474 -3.479,-7.679 1.225,-10.991 4.733,-3.333 8.492,0.845 10.558,2.689 0,0 4.912,5.321 7.344,10.324 2.397,4.936 7.838,16.553 6.19,30.714 -1.59,13.659 -5.367,22.779 -5.367,22.779 z" />
      <path
         id="path170"
         style="fill:#00addd;fill-opacity:1;fill-rule:nonzero;stroke:none;stroke-width:0.1"
         d="m 97.283908,388.62593 c 0,0 3.494202,29.543 19.247302,43.208 20.0004,17.347 30.7354,22.674 30.7354,22.674 0,0 17.07,-16.534 24.418,-38.337 6.132,-23.091 5.663,-26.574 5.663,-26.574 0,0 4.656,26.78 1.317,38.591 -3.826,13.536 -7.11,24.821 -19.886,34.043 -2.27,1.638 -7.779,5.039 -10.988,5.196 -3.597,0.178 -8.755,-3.296 -11.435,-4.744 -7.2045,-3.895 -13.6662,-8.642 -19.4682,-14.146 -7.8007,-7.402 -15.4492,-14.835 -18.014402,-25.157 -3.4121,-13.725 -1.6191,-21.102 -1.5891,-34.754" />
      <path
         id="path172"
         style="fill:none;stroke:#0088a8;stroke-width:1;stroke-linecap:butt;stroke-linejoin:miter;stroke-miterlimit:4;stroke-dasharray:none;stroke-opacity:1"
         d="m 97.283908,388.62593 c 0,0 3.494202,29.543 19.247302,43.208 20.0004,17.347 30.7354,22.674 30.7354,22.674 0,0 17.07,-16.534 24.418,-38.337 6.132,-23.091 5.663,-26.574 5.663,-26.574 0,0 4.656,26.78 1.317,38.591 -3.826,13.536 -7.11,24.821 -19.886,34.043 -2.27,1.638 -7.779,5.039 -10.988,5.196 -3.597,0.178 -8.755,-3.296 -11.435,-4.744 -7.2045,-3.895 -13.6662,-8.642 -19.4682,-14.146 -7.8007,-7.402 -15.4492,-14.835 -18.014402,-25.157 -3.4121,-13.725 -1.6191,-21.102 -1.5891,-34.754 z" />
      <path
         id="path174"
         style="fill:#00addd;fill-opacity:1;fill-rule:nonzero;stroke:none;stroke-width:0.1"
         d="m 208.00961,485.63793 c 3.197,4.956 7.808,7.765 13.097,9.006 -3.497,-1.559 -6.535,-4.015 -8.84,-7.587 -25.373,-39.331 14.609,-87.496 9.971,-128.931 -3.348,-29.902 -19.551,-75.755 30.145,-75.755 3.668,-0.113 6.862,0.198 9.654,0.864 -3.663,-1.618 -8.22,-2.458 -13.912,-2.283 -49.696,0 -33.493,45.853 -30.145,75.755 4.638,41.435 -35.344,89.599 -9.97,128.931" />
      <path
         id="path176"
         style="fill:#00addd;fill-opacity:1;fill-rule:nonzero;stroke:none;stroke-width:0.1"
         d="m 246.11461,466.09293 c 0,0 -5.616,3.066 -7.467,4.918 -1.853,1.852 -5.586,1.64 -5.586,-1.154 0,-2.792 3.888,-7.263 6.075,-8.477 l 6.978,4.713" />
      <path
         id="path178"
         style="fill:#008399;fill-opacity:1;fill-rule:nonzero;stroke:none;stroke-width:0.1"
         d="m 293.13861,399.55593 c 0,0 2.24,-20.485 -8.982,-39.478 0,0 -3.252,-7.037 -8.438,-4.422 -5.142,2.591 -1.028,9.7 -0.041,11.886 0.981,2.172 7.903,12.132 9.296,14.177 2.138,3.142 4.948,12.971 5.443,16.101 0.491,3.104 0.341,8.108 -1.075,12.227 0,0 3.223,-6.429 3.797,-10.491" />
      <path
         id="path180"
         style="fill:none;stroke:#0088a8;stroke-width:1;stroke-linecap:butt;stroke-linejoin:miter;stroke-miterlimit:4;stroke-dasharray:none;stroke-opacity:1"
         d="m 293.13861,399.55593 c 0,0 2.24,-20.485 -8.982,-39.478 0,0 -3.252,-7.037 -8.438,-4.422 -5.142,2.591 -1.028,9.7 -0.041,11.886 0.981,2.172 7.903,12.132 9.296,14.177 2.138,3.142 4.948,12.971 5.443,16.101 0.491,3.104 0.341,8.108 -1.075,12.227 0,0 3.223,-6.429 3.797,-10.491 z" />
      <path
         id="path182"
         style="fill:#008399;fill-opacity:1;fill-rule:nonzero;stroke:none;stroke-width:0.1"
         d="m 218.54961,418.68393 c 0,0 -1.527,-20.582 -0.826,-23.904 0.707,-3.35 5.948,-12.715 9.795,-16.023 3.887,-3.343 10.378,-13.128 10.981,-15.588 0.607,-2.474 3.478,-7.679 -1.225,-10.991 -4.734,-3.333 -8.494,0.845 -10.558,2.689 0,0 -4.912,5.321 -7.344,10.324 -2.398,4.936 -7.839,16.553 -6.191,30.714 1.59,13.659 5.368,22.779 5.368,22.779" />
      <path
         id="path184"
         style="fill:none;stroke:#0088a8;stroke-width:1;stroke-linecap:butt;stroke-linejoin:miter;stroke-miterlimit:4;stroke-dasharray:none;stroke-opacity:1"
         d="m 218.54961,418.68393 c 0,0 -1.527,-20.582 -0.826,-23.904 0.707,-3.35 5.948,-12.715 9.795,-16.023 3.887,-3.343 10.378,-13.128 10.981,-15.588 0.607,-2.474 3.478,-7.679 -1.225,-10.991 -4.734,-3.333 -8.494,0.845 -10.558,2.689 0,0 -4.912,5.321 -7.344,10.324 -2.398,4.936 -7.839,16.553 -6.191,30.714 1.59,13.659 5.368,22.779 5.368,22.779 z" />
      <path
         id="path186"
         style="fill:#00addd;fill-opacity:1;fill-rule:nonzero;stroke:none;stroke-width:0.1"
         d="m 293.05961,388.51693 c 0,0 -3.604,29.652 -19.357,43.317 -20,17.347 -30.735,22.674 -30.735,22.674 0,0 -17.069,-16.534 -24.418,-38.337 -7.78,-23.091 -5.326,-26.574 -5.326,-26.574 0,0 -4.992,26.78 -1.654,38.591 3.827,13.536 7.11,24.821 19.887,34.043 2.27,1.638 7.778,5.039 10.988,5.196 3.597,0.178 8.753,-3.296 11.435,-4.744 7.204,-3.895 13.666,-8.642 19.467,-14.146 7.801,-7.402 15.449,-14.835 18.015,-25.157 3.413,-13.725 1.727,-21.211 1.698,-34.863" />
      <path
         id="path188"
         style="fill:none;stroke:#0088a8;stroke-width:1;stroke-linecap:butt;stroke-linejoin:miter;stroke-miterlimit:4;stroke-dasharray:none;stroke-opacity:1"
         d="m 293.05961,388.51693 c 0,0 -3.604,29.652 -19.357,43.317 -20,17.347 -30.735,22.674 -30.735,22.674 0,0 -17.069,-16.534 -24.418,-38.337 -7.78,-23.091 -5.326,-26.574 -5.326,-26.574 0,0 -4.992,26.78 -1.654,38.591 3.827,13.536 7.11,24.821 19.887,34.043 2.27,1.638 7.778,5.039 10.988,5.196 3.597,0.178 8.753,-3.296 11.435,-4.744 7.204,-3.895 13.666,-8.642 19.467,-14.146 7.801,-7.402 15.449,-14.835 18.015,-25.157 3.413,-13.725 1.727,-21.211 1.698,-34.863 z" />
    </g>
  </g>
</svg>
