<?xml version="1.0" encoding="UTF-8" standalone="no"?>
<svg
   xmlns:dc="http://purl.org/dc/elements/1.1/"
   xmlns:cc="http://creativecommons.org/ns#"
   xmlns:rdf="http://www.w3.org/1999/02/22-rdf-syntax-ns#"
   xmlns:svg="http://www.w3.org/2000/svg"
   xmlns="http://www.w3.org/2000/svg"
   id="svg1932"
   version="1.1"
   viewBox="0 0 71.581254 78.296997"
   height="78.296997mm"
   width="71.581253mm">
  <defs
     id="defs1926">
    <clipPath
       id="clipPath106"
       clipPathUnits="userSpaceOnUse">
      <path
         id="path104"
         d="m 2187.21,2830.68 c 320.61,0 283.24,300.44 295.35,528.35 14.69,276.15 41.46,549.01 61.18,824.35 17.43,243.58 11.99,464.8 -183,644.32 -126.26,116.23 -452.89,238.62 -574.68,49.85 -253.74,-393.32 146.08,-874.96 99.7,-1289.31 -33.48,-299.03 -195.51,-757.56 301.45,-757.56 z m -1138.52,0 c -320.6,0 -283.237,300.44 -295.346,528.35 -14.696,276.15 -41.453,549.01 -61.172,824.35 -17.442,243.58 -12,464.8 182.988,644.32 126.26,116.23 452.9,238.62 574.69,49.85 253.73,-393.32 -146.09,-874.96 -99.71,-1289.31 33.49,-299.03 195.51,-757.56 -301.45,-757.56 z" />
    </clipPath>
    <clipPath
       id="clipPath258"
       clipPathUnits="userSpaceOnUse">
      <path
         id="path256"
         d="m 4441.53,2795.99 c 320.6,0 283.24,300.43 295.35,528.34 14.69,276.15 41.45,549 61.17,824.35 17.42,243.58 11.99,464.8 -183.01,644.32 -126.25,116.23 -452.89,238.62 -574.68,49.84 -253.72,-393.32 146.09,-874.96 99.7,-1289.3 -33.47,-299.04 -195.5,-757.55 301.47,-757.55 z m -1138.53,0 c -320.6,0 -283.23,300.43 -295.34,528.34 -14.7,276.15 -41.47,549 -61.18,824.35 -17.44,243.58 -12,464.8 182.99,644.32 126.26,116.23 452.89,238.62 574.69,49.84 253.74,-393.32 -146.09,-874.96 -99.71,-1289.3 33.48,-299.04 195.53,-757.55 -301.45,-757.55 z" />
    </clipPath>
    <clipPath
       id="clipPath620"
       clipPathUnits="userSpaceOnUse">
      <path
         id="path618"
         d="m 6701.74,2810.93 c 320.61,0 283.25,300.44 295.35,528.36 14.69,276.14 41.45,549 61.18,824.34 17.42,243.59 11.99,464.81 -182.99,644.32 -126.27,116.23 -452.89,238.62 -574.69,49.85 -253.75,-393.32 146.08,-874.96 99.69,-1289.31 -33.48,-299.02 -195.49,-757.56 301.46,-757.56 z m -1138.53,0 c -320.59,0 -283.22,300.44 -295.33,528.36 -14.69,276.14 -41.47,549 -61.18,824.34 -17.44,243.59 -12.01,464.81 182.99,644.32 126.27,116.23 452.89,238.62 574.69,49.85 253.73,-393.32 -146.09,-874.96 -99.71,-1289.31 33.48,-299.02 195.51,-757.56 -301.46,-757.56 z" />
    </clipPath>
    <clipPath
       id="clipPath24"
       clipPathUnits="userSpaceOnUse">
      <path
         id="path22"
         d="m 2172,487.441 c -496.73,15.2 -334.93,458.52 -301.46,757.559 46.39,414.34 -353.44,895.98 -99.71,1289.3 121.8,188.78 448.43,66.38 574.69,-49.85 194.99,-179.51 200.43,-400.74 182.99,-644.31 -19.71,-275.35 -46.47,-548.21 -61.17,-824.36 C 2455.23,787.871 2492.45,477.641 2172,487.441 Z" />
    </clipPath>
    <clipPath
       id="clipPath48"
       clipPathUnits="userSpaceOnUse">
      <path
         id="path46"
         d="m 1033.47,487.441 c 496.74,15.2 334.94,458.52 301.47,757.559 -46.39,414.34 353.43,895.98 99.7,1289.3 -121.79,188.78 -448.433,66.38 -574.683,-49.85 -195,-179.51 -200.43,-400.74 -183,-644.31 19.719,-275.35 46.477,-548.21 61.172,-824.36 12.109,-227.909 -25.098,-538.139 295.341,-528.339 z" />
    </clipPath>
    <clipPath
       id="clipPath200"
       clipPathUnits="userSpaceOnUse">
      <path
         id="path198"
         d="m 4444.78,487.582 c 320.61,0 283.24,300.43 295.35,528.338 14.69,276.15 41.45,549 61.17,824.35 17.43,243.58 12,464.81 -183,644.32 -126.25,116.23 -452.89,238.61 -574.69,49.84 -253.72,-393.32 146.09,-874.96 99.71,-1289.29 -33.48,-299.05 -195.51,-757.558 301.46,-757.558 z m -1138.53,0 c -320.59,0 -283.23,300.43 -295.34,528.338 -14.69,276.15 -41.46,549 -61.17,824.35 -17.44,243.58 -12,464.81 182.99,644.32 126.26,116.23 452.9,238.61 574.69,49.84 253.73,-393.32 -146.09,-874.96 -99.71,-1289.29 33.48,-299.05 195.52,-757.558 -301.46,-757.558 z" />
    </clipPath>
  </defs>
  <metadata
     id="metadata1929">
    <rdf:RDF>
      <cc:Work
         rdf:about="">
        <dc:format>image/svg+xml</dc:format>
        <dc:type
           rdf:resource="http://purl.org/dc/dcmitype/StillImage" />
        <dc:title></dc:title>
      </cc:Work>
    </rdf:RDF>
  </metadata>
  <g
     transform="translate(24.69785,-48.82905)"
     id="layer1">
    <g
       id="g3220"
       transform="matrix(0.35277777,0,0,-0.35277777,-137.38217,142.57218)">
      <path
         id="path190"
         style="fill:#ff99c0;fill-opacity:1;fill-rule:nonzero;stroke:none;stroke-width:0.1"
         d="m 477.80061,47.925135 c 32.061,0 28.324,30.043 29.535,52.833795 1.469,27.615 4.145,54.9 6.117,82.435 1.743,24.358 1.2,46.481 -18.3,64.432 -12.625,11.623 -45.289,23.861 -57.469,4.984 -25.372,-39.332 14.609,-87.496 9.971,-128.929 -3.348,-29.904995 -19.551,-75.755795 30.146,-75.755795 z m -113.853,0 c -32.059,0 -28.323,30.043 -29.534,52.833795 -1.469,27.615 -4.146,54.9 -6.117,82.435 -1.744,24.358 -1.2,46.481 18.299,64.432 12.626,11.623 45.29,23.861 57.469,4.984 25.373,-39.332 -14.609,-87.496 -9.971,-128.929 3.348,-29.904995 19.552,-75.755795 -30.146,-75.755795" />
      <path
         id="path192"
         style="fill:none;stroke:#ff99c0;stroke-width:1;stroke-linecap:butt;stroke-linejoin:miter;stroke-miterlimit:4;stroke-dasharray:none;stroke-opacity:1"
         d="m 477.80061,47.925135 c 32.061,0 28.324,30.043 29.535,52.833795 1.469,27.615 4.145,54.9 6.117,82.435 1.743,24.358 1.2,46.481 -18.3,64.432 -12.625,11.623 -45.289,23.861 -57.469,4.984 -25.372,-39.332 14.609,-87.496 9.971,-128.929 -3.348,-29.904995 -19.551,-75.755795 30.146,-75.755795 z m -113.853,0 c -32.059,0 -28.323,30.043 -29.534,52.833795 -1.469,27.615 -4.146,54.9 -6.117,82.435 -1.744,24.358 -1.2,46.481 18.299,64.432 12.626,11.623 45.29,23.861 57.469,4.984 25.373,-39.332 -14.609,-87.496 -9.971,-128.929 3.348,-29.904995 19.552,-75.755795 -30.146,-75.755795 z" />
      <g
         id="g194"
         transform="matrix(0.1,0,0,0.1,33.322608,-0.83306519)">
        <g
           clip-path="url(#clipPath200)"
           id="g196">
          <path
             id="path202"
             style="fill:#ffb8d5;fill-opacity:1;fill-rule:nonzero;stroke:none"
             d="m 3289.58,2385.23 c -3.46,0 -6.88,-0.13 -10.3,-0.33 -27.07,58.17 -86.01,98.5 -154.39,98.5 -18.98,0 -37.2,-3.15 -54.25,-8.89 -30.98,32.21 -74.47,52.29 -122.69,52.29 -94.02,0 -170.25,-76.23 -170.25,-170.26 0,-14.61 1.85,-28.79 5.3,-42.3 -18.1,-27.05 -28.67,-59.57 -28.67,-94.57 0,-94.03 76.23,-170.26 170.25,-170.26 51.22,0 97.12,22.64 128.33,58.42 30.08,-26.78 69.71,-43.08 113.16,-43.08 12.5,0 24.67,1.38 36.41,3.94 25.48,-15.21 55.27,-23.96 87.1,-23.96 94.04,0 170.26,76.23 170.26,170.25 0,94.02 -76.22,170.25 -170.26,170.25" />
          <path
             id="path204"
             style="fill:#ffb8d5;fill-opacity:1;fill-rule:nonzero;stroke:none"
             d="m 3376.38,1894.49 c -3.46,0 -6.89,-0.13 -10.3,-0.33 -27.08,58.16 -86.01,98.5 -154.4,98.5 -18.97,0 -37.2,-3.15 -54.24,-8.87 -30.98,32.19 -74.48,52.26 -122.69,52.26 -94.03,0 -170.25,-76.23 -170.25,-170.25 0,-14.61 1.84,-28.79 5.3,-42.3 -18.1,-27.05 -28.67,-59.57 -28.67,-94.57 0,-94.03 76.22,-170.26 170.25,-170.26 51.22,0 97.12,22.66 128.33,58.44 30.08,-26.8 69.7,-43.09 113.16,-43.09 12.5,0 24.67,1.39 36.4,3.95 25.49,-15.22 55.28,-23.99 87.11,-23.99 94.04,0 170.26,76.23 170.26,170.26 0,94.04 -76.22,170.25 -170.26,170.25" />
          <path
             id="path206"
             style="fill:#ffb8d5;fill-opacity:1;fill-rule:nonzero;stroke:none"
             d="m 3289.58,1393.75 c -3.46,0 -6.88,-0.14 -10.3,-0.35 -27.07,58.16 -86.01,98.51 -154.39,98.51 -18.98,0 -37.2,-3.16 -54.25,-8.88 -30.98,32.2 -74.47,52.28 -122.69,52.28 -94.02,0 -170.25,-76.23 -170.25,-170.25 0,-14.61 1.85,-28.79 5.3,-42.33 -18.1,-27.05 -28.67,-59.57 -28.67,-94.55 0,-94.04 76.23,-170.25 170.25,-170.25 51.22,0 97.12,22.64 128.33,58.42 30.08,-26.78 69.71,-43.09 113.16,-43.09 12.5,0 24.67,1.39 36.41,3.95 25.48,-15.22 55.27,-23.97 87.1,-23.97 94.04,0 170.26,76.21 170.26,170.26 0,94.02 -76.22,170.25 -170.26,170.25" />
          <path
             id="path208"
             style="fill:#ffb8d5;fill-opacity:1;fill-rule:nonzero;stroke:none"
             d="m 3376.38,903.012 c -3.46,0 -6.89,-0.141 -10.3,-0.332 -27.08,58.16 -86.01,98.49 -154.4,98.49 -18.97,0 -37.2,-3.139 -54.24,-8.869 -30.98,32.189 -74.48,52.269 -122.69,52.269 -94.03,0 -170.25,-76.23 -170.25,-170.25 0,-14.609 1.84,-28.789 5.3,-42.308 -18.1,-27.051 -28.67,-59.571 -28.67,-94.571 0,-94.019 76.22,-170.25 170.25,-170.25 51.22,0 97.12,22.629 128.33,58.43 30.08,-26.789 69.7,-43.082 113.16,-43.082 12.5,0 24.67,1.371 36.4,3.941 25.49,-15.21 55.28,-23.98 87.11,-23.98 94.04,0 170.26,76.23 170.26,170.25 0,94.031 -76.22,170.262 -170.26,170.262" />
          <path
             id="path210"
             style="fill:#ffb8d5;fill-opacity:1;fill-rule:nonzero;stroke:none"
             d="m 3990.64,2518.77 c -3.46,0 -6.89,-0.14 -10.3,-0.33 -27.08,58.14 -86.02,98.49 -154.4,98.49 -18.98,0 -37.2,-3.16 -54.25,-8.88 -30.97,32.2 -74.47,52.28 -122.69,52.28 -94.02,0 -170.25,-76.23 -170.25,-170.25 0,-14.61 1.85,-28.79 5.3,-42.33 -18.1,-27.05 -28.67,-59.55 -28.67,-94.55 0,-94.02 76.23,-170.25 170.26,-170.25 51.21,0 97.11,22.64 128.32,58.42 30.08,-26.78 69.71,-43.09 113.15,-43.09 12.51,0 24.68,1.39 36.42,3.95 25.49,-15.22 55.27,-23.97 87.11,-23.97 94.02,0 170.25,76.23 170.25,170.26 0,94.02 -76.23,170.25 -170.25,170.25" />
          <path
             id="path212"
             style="fill:#ffb8d5;fill-opacity:1;fill-rule:nonzero;stroke:none"
             d="m 4077.44,2034.71 c -3.46,0 -6.9,-0.14 -10.31,-0.34 -27.08,58.17 -86.01,98.5 -154.39,98.5 -18.99,0 -37.21,-3.14 -54.26,-8.89 -30.97,32.21 -74.47,52.29 -122.68,52.29 -94.03,0 -170.25,-76.23 -170.25,-170.25 0,-14.61 1.84,-28.79 5.3,-42.31 -18.1,-27.05 -28.67,-59.57 -28.67,-94.57 0,-94.02 76.22,-170.25 170.26,-170.25 51.21,0 97.11,22.63 128.32,58.43 30.08,-26.79 69.7,-43.1 113.16,-43.1 12.5,0 24.67,1.39 36.41,3.94 25.49,-15.21 55.27,-23.96 87.11,-23.96 94.02,0 170.25,76.23 170.25,170.25 0,94.03 -76.23,170.26 -170.25,170.26" />
          <path
             id="path214"
             style="fill:#ffb8d5;fill-opacity:1;fill-rule:nonzero;stroke:none"
             d="m 3990.64,1493.91 c -3.46,0 -6.89,-0.14 -10.3,-0.36 -27.08,58.17 -86.02,98.5 -154.4,98.5 -18.98,0 -37.2,-3.14 -54.25,-8.87 -30.97,32.21 -74.47,52.27 -122.69,52.27 -94.02,0 -170.25,-76.21 -170.25,-170.25 0,-14.61 1.85,-28.77 5.3,-42.31 -18.1,-27.05 -28.67,-59.57 -28.67,-94.57 0,-94.02 76.23,-170.25 170.26,-170.25 51.21,0 97.11,22.65 128.32,58.43 30.08,-26.79 69.71,-43.08 113.15,-43.08 12.51,0 24.68,1.38 36.42,3.94 25.49,-15.21 55.27,-23.98 87.11,-23.98 94.02,0 170.25,76.23 170.25,170.25 0,94.05 -76.23,170.28 -170.25,170.28" />
          <path
             id="path216"
             style="fill:#ffb8d5;fill-opacity:1;fill-rule:nonzero;stroke:none"
             d="m 4077.44,996.48 c -3.46,0 -6.9,-0.128 -10.31,-0.332 -27.08,58.172 -86.01,98.502 -154.39,98.502 -18.99,0 -37.21,-3.15 -54.26,-8.89 -30.97,32.21 -74.47,52.29 -122.68,52.29 -94.03,0 -170.25,-76.23 -170.25,-170.261 0,-14.609 1.84,-28.789 5.3,-42.297 -18.1,-27.07 -28.67,-59.57 -28.67,-94.57 0,-94.031 76.22,-170.262 170.26,-170.262 51.21,0 97.11,22.641 128.32,58.442 30.08,-26.801 69.7,-43.102 113.16,-43.102 12.5,0 24.67,1.379 36.41,3.941 25.49,-15.191 55.27,-23.961 87.11,-23.961 94.02,0 170.25,76.231 170.25,170.25 0,94.02 -76.23,170.25 -170.25,170.25" />
          <path
             id="path218"
             style="fill:#ffb8d5;fill-opacity:1;fill-rule:nonzero;stroke:none"
             d="m 4720.64,2338.77 c -3.46,0 -6.89,-0.14 -10.3,-0.33 -27.08,58.14 -86.02,98.49 -154.41,98.49 -18.96,0 -37.19,-3.16 -54.24,-8.88 -30.97,32.2 -74.47,52.28 -122.69,52.28 -94.02,0 -170.25,-76.23 -170.25,-170.25 0,-14.61 1.85,-28.79 5.31,-42.33 -18.11,-27.05 -28.67,-59.55 -28.67,-94.55 0,-94.02 76.22,-170.25 170.25,-170.25 51.21,0 97.11,22.64 128.32,58.42 30.08,-26.78 69.71,-43.09 113.16,-43.09 12.5,0 24.67,1.39 36.41,3.95 25.49,-15.22 55.27,-23.97 87.11,-23.97 94.02,0 170.25,76.23 170.25,170.26 0,94.02 -76.23,170.25 -170.25,170.25" />
          <path
             id="path220"
             style="fill:#ffb8d5;fill-opacity:1;fill-rule:nonzero;stroke:none"
             d="m 4807.44,1854.71 c -3.46,0 -6.9,-0.14 -10.31,-0.34 -27.08,58.17 -86.01,98.5 -154.4,98.5 -18.97,0 -37.2,-3.14 -54.24,-8.89 -30.98,32.21 -74.47,52.29 -122.69,52.29 -94.03,0 -170.26,-76.23 -170.26,-170.25 0,-14.61 1.86,-28.79 5.31,-42.31 -18.1,-27.05 -28.67,-59.57 -28.67,-94.57 0,-94.02 76.22,-170.25 170.26,-170.25 51.21,0 97.11,22.63 128.32,58.43 30.07,-26.79 69.7,-43.1 113.16,-43.1 12.5,0 24.67,1.39 36.41,3.94 25.49,-15.21 55.27,-23.96 87.11,-23.96 94.02,0 170.25,76.23 170.25,170.25 0,94.03 -76.23,170.26 -170.25,170.26" />
          <path
             id="path222"
             style="fill:#ffb8d5;fill-opacity:1;fill-rule:nonzero;stroke:none"
             d="m 4720.64,1313.91 c -3.46,0 -6.89,-0.14 -10.3,-0.36 -27.08,58.17 -86.02,98.5 -154.41,98.5 -18.96,0 -37.19,-3.14 -54.24,-8.87 -30.97,32.21 -74.47,52.27 -122.69,52.27 -94.02,0 -170.25,-76.21 -170.25,-170.25 0,-14.61 1.85,-28.77 5.31,-42.31 -18.11,-27.05 -28.67,-59.57 -28.67,-94.57 0,-94.02 76.22,-170.25 170.25,-170.25 51.21,0 97.11,22.65 128.32,58.43 30.08,-26.79 69.71,-43.078 113.16,-43.078 12.5,0 24.67,1.379 36.41,3.937 25.49,-15.211 55.27,-23.98 87.11,-23.98 94.02,0 170.25,76.231 170.25,170.251 0,94.05 -76.23,170.28 -170.25,170.28" />
          <path
             id="path224"
             style="fill:#ffb8d5;fill-opacity:1;fill-rule:nonzero;stroke:none"
             d="m 4807.44,816.48 c -3.46,0 -6.9,-0.128 -10.31,-0.332 -27.08,58.172 -86.01,98.5 -154.4,98.5 -18.97,0 -37.2,-3.148 -54.24,-8.886 -30.98,32.207 -74.47,52.289 -122.69,52.289 -94.03,0 -170.26,-76.231 -170.26,-170.262 0,-14.609 1.86,-28.789 5.31,-42.297 -18.1,-27.07 -28.67,-59.57 -28.67,-94.57 0,-94.031 76.22,-170.262 170.26,-170.262 51.21,0 97.11,22.641 128.32,58.442 30.07,-26.801 69.7,-43.102 113.16,-43.102 12.5,0 24.67,1.379 36.41,3.941 25.49,-15.191 55.27,-23.961 87.11,-23.961 94.02,0 170.25,76.231 170.25,170.25 0,94.02 -76.23,170.25 -170.25,170.25" />
        </g>
      </g>
      <path
         id="path226"
         style="fill:#9e1f63;fill-opacity:1;fill-rule:nonzero;stroke:none;stroke-width:0.1"
         d="m 407.98361,251.32693 c -3.199,4.957 -7.809,7.766 -13.098,9.006 3.497,-1.559 6.535,-4.016 8.839,-7.586 25.373,-39.332 -14.609,-87.496 -9.97,-128.932 3.348,-29.901895 19.551,-75.754995 -30.146,-75.754995 -3.667,-0.1121 -6.862,0.1992 -9.654,0.8652 3.663,-1.6191 8.221,-2.459 13.912,-2.2832 49.697,0 33.493,45.8512 30.145,75.753995 -4.638,41.435 35.344,89.599 9.972,128.931" />
      <path
         id="path228"
         style="fill:#9e1f63;fill-opacity:1;fill-rule:nonzero;stroke:none;stroke-width:0.1"
         d="m 369.87761,231.78193 c 0,0 5.615,3.067 7.467,4.918 1.852,1.852 5.586,1.639 5.586,-1.154 0,-2.793 -3.889,-7.264 -6.075,-8.477 l -6.978,4.713" />
      <path
         id="path230"
         style="fill:#9e1f63;fill-opacity:1;fill-rule:nonzero;stroke:none;stroke-width:0.1"
         d="m 322.85361,165.24493 c 0,0 -2.24,-20.484 8.981,-39.478 0,0 3.253,-7.038 8.438,-4.422 5.142,2.592 1.029,9.699 0.042,11.884 -0.982,2.174 -7.904,12.133 -9.297,14.18 -2.137,3.141 -4.948,12.969 -5.443,16.1 -0.491,3.103 -0.34,8.107 1.076,12.228 0,0 -3.224,-6.429 -3.797,-10.492" />
      <path
         id="path232"
         style="fill:#9e1f63;fill-opacity:1;fill-rule:nonzero;stroke:none;stroke-width:0.1"
         d="m 397.44261,184.37193 c 0,0 1.527,-20.582 0.825,-23.902 -0.706,-3.352 -5.948,-12.715 -9.794,-16.024 -3.887,-3.343 -10.379,-13.129 -10.982,-15.588 -0.606,-2.474 -3.478,-7.679 1.226,-10.992 4.733,-3.332 8.493,0.846 10.558,2.69 0,0 4.912,5.32 7.344,10.324 2.397,4.935 7.837,16.553 6.191,30.715 -1.591,13.658 -5.368,22.777 -5.368,22.777" />
      <path
         id="path234"
         style="fill:#d84475;fill-opacity:1;fill-rule:nonzero;stroke:none;stroke-width:0.1"
         d="m 323.52961,154.20593 c 0,0 3.006,29.652 18.759,43.316 20,17.348 30.735,22.674 30.735,22.674 0,0 17.07,-16.533 24.418,-38.336 5.525,-23.091 5.15,-26.574 5.15,-26.574 0,0 5.169,26.779 1.83,38.59 -3.826,13.537 -7.11,24.822 -19.887,34.043 -2.27,1.639 -7.777,5.039 -10.987,5.197 -3.598,0.178 -8.754,-3.295 -11.435,-4.744 -7.205,-3.894 -13.666,-8.643 -19.468,-14.146 -7.801,-7.403 -15.449,-14.834 -18.014,-25.157 -3.412,-13.724 -1.131,-21.211 -1.101,-34.863" />
      <path
         id="path236"
         style="fill:none;stroke:#9e1f63;stroke-width:1;stroke-linecap:butt;stroke-linejoin:miter;stroke-miterlimit:4;stroke-dasharray:none;stroke-opacity:1"
         d="m 323.52961,154.20593 c 0,0 3.006,29.652 18.759,43.316 20,17.348 30.735,22.674 30.735,22.674 0,0 17.07,-16.533 24.418,-38.336 5.525,-23.091 5.15,-26.574 5.15,-26.574 0,0 5.169,26.779 1.83,38.59 -3.826,13.537 -7.11,24.822 -19.887,34.043 -2.27,1.639 -7.777,5.039 -10.987,5.197 -3.598,0.178 -8.754,-3.295 -11.435,-4.744 -7.205,-3.894 -13.666,-8.643 -19.468,-14.146 -7.801,-7.403 -15.449,-14.834 -18.014,-25.157 -3.412,-13.724 -1.131,-21.211 -1.101,-34.863 z" />
      <path
         id="path238"
         style="fill:#9e1f63;fill-opacity:1;fill-rule:nonzero;stroke:none;stroke-width:0.1"
         d="m 433.76561,251.32693 c 3.199,4.957 7.808,7.766 13.098,9.006 -3.497,-1.559 -6.536,-4.016 -8.84,-7.586 -25.372,-39.332 14.609,-87.496 9.97,-128.932 -3.347,-29.901895 -19.55,-75.754995 30.147,-75.754995 3.666,-0.1121 6.861,0.1992 9.652,0.8652 -3.662,-1.6191 -8.22,-2.459 -13.91,-2.2832 -49.697,0 -33.494,45.8512 -30.146,75.753995 4.638,41.435 -35.343,89.599 -9.971,128.931" />
      <path
         id="path240"
         style="fill:#9e1f63;fill-opacity:1;fill-rule:nonzero;stroke:none;stroke-width:0.1"
         d="m 471.87061,231.78193 c 0,0 -5.615,3.067 -7.466,4.918 -1.852,1.852 -5.586,1.639 -5.586,-1.154 0,-2.793 3.888,-7.264 6.074,-8.477 l 6.978,4.713" />
      <path
         id="path242"
         style="fill:#9e1f63;fill-opacity:1;fill-rule:nonzero;stroke:none;stroke-width:0.1"
         d="m 518.89461,165.24493 c 0,0 2.24,-20.484 -8.981,-39.478 0,0 -3.254,-7.038 -8.437,-4.422 -5.143,2.592 -1.029,9.699 -0.043,11.884 0.982,2.174 7.904,12.133 9.297,14.18 2.138,3.141 4.949,12.969 5.443,16.1 0.492,3.103 0.34,8.107 -1.076,12.228 0,0 3.225,-6.429 3.797,-10.492" />
      <path
         id="path244"
         style="fill:#9e1f63;fill-opacity:1;fill-rule:nonzero;stroke:none;stroke-width:0.1"
         d="m 444.30661,184.37193 c 0,0 -1.527,-20.582 -0.826,-23.902 0.707,-3.352 5.949,-12.715 9.795,-16.024 3.886,-3.343 10.379,-13.129 10.98,-15.588 0.608,-2.474 3.479,-7.679 -1.225,-10.992 -4.732,-3.332 -8.492,0.846 -10.558,2.69 0,0 -4.912,5.32 -7.344,10.324 -2.396,4.935 -7.838,16.553 -6.189,30.715 1.59,13.658 5.367,22.777 5.367,22.777" />
      <path
         id="path246"
         style="fill:#d84475;fill-opacity:1;fill-rule:nonzero;stroke:none;stroke-width:0.1"
         d="m 518.21661,154.20593 c 0,0 -3.004,29.652 -18.756,43.316 -20.002,17.348 -30.736,22.674 -30.736,22.674 0,0 -17.07,-16.533 -24.418,-38.336 -6.09,-23.091 -5.185,-26.622 -5.185,-26.622 0,0 -5.133,26.827 -1.796,38.638 3.827,13.537 7.112,24.822 19.887,34.043 2.272,1.639 7.779,5.039 10.988,5.197 3.598,0.178 8.754,-3.295 11.436,-4.744 7.203,-3.894 13.666,-8.643 19.467,-14.146 7.801,-7.403 15.449,-14.834 18.015,-25.157 3.412,-13.724 1.127,-21.211 1.098,-34.863" />
      <path
         id="path248"
         style="fill:none;stroke:#9e1f63;stroke-width:1;stroke-linecap:butt;stroke-linejoin:miter;stroke-miterlimit:4;stroke-dasharray:none;stroke-opacity:1"
         d="m 518.21661,154.20593 c 0,0 -3.004,29.652 -18.756,43.316 -20.002,17.348 -30.736,22.674 -30.736,22.674 0,0 -17.07,-16.533 -24.418,-38.336 -6.09,-23.091 -5.185,-26.622 -5.185,-26.622 0,0 -5.133,26.827 -1.796,38.638 3.827,13.537 7.112,24.822 19.887,34.043 2.272,1.639 7.779,5.039 10.988,5.197 3.598,0.178 8.754,-3.295 11.436,-4.744 7.203,-3.894 13.666,-8.643 19.467,-14.146 7.801,-7.403 15.449,-14.834 18.015,-25.157 3.412,-13.724 1.127,-21.211 1.098,-34.863 z" />
    </g>
  </g>
</svg>
