<?xml version="1.0" ?><svg height="60px" version="1.1" viewBox="0 0 60 60" width="60px" xmlns="http://www.w3.org/2000/svg" xmlns:xlink="http://www.w3.org/1999/xlink"><title/><desc/><defs/><g fill="none" fill-rule="evenodd" id="Page-1" stroke="none" stroke-width="1"><g fill-rule="nonzero" id="009---Flip-Flops"><g id="Icons" transform="translate(1.000000, 1.000000)"><path d="M24.89,25.66 C24.88,25.79 24.88,25.92 24.88,26.04 C25.0241271,28.9962984 25.3178364,31.943404 25.76,34.87 C27.06,44.79 23.12,53 15.2,53 C8.16,53 5.52,44.88 5.52,34.87 L5.52,34.81 C5.53517145,31.8919712 4.94969592,29.0020368 3.8,26.32 C3.55728016,25.7660019 3.3469263,25.1983804 3.17,24.62 L2.12,19.68 C2.04,18.87 2,18.04 2,17.2 C2,7.7 6.4,0 15.2,0 C23.12,0 26.99,7.79 25.76,17.2 C25.68,17.83 25.57,18.62 25.46,19.48 L24.89,25.66 Z" fill="#F96A59" id="Shape"/><path d="M16.9,13.62 L24.32,25.09 C24.4651124,25.3201321 24.6598679,25.5148876 24.89,25.66 C25.6788422,26.187185 26.7295287,26.0875751 27.4052485,25.421543 C28.0809683,24.7555109 28.1957394,23.7063723 27.68,22.91 L25.46,19.48 L17,6.4 L13,6.29 L2.12,19.68 L0.45,21.74 C-0.173292225,22.5187807 -0.12745278,23.6377737 0.55744949,24.3629644 C1.24235176,25.088155 2.35690209,25.19781 3.17,24.62 C3.31310627,24.518638 3.44105617,24.3974223 3.55,24.26 L13,12.64 L16.9,13.62 Z" fill="#FFACAD" id="Shape"/><path d="M33.11,30.66 C33.12,30.79 33.12,30.92 33.12,31.04 C32.9758729,33.9962984 32.6821636,36.943404 32.24,39.87 C30.94,49.79 34.88,58 42.8,58 C49.84,58 52.48,49.88 52.48,39.87 L52.48,39.81 C52.4648286,36.8919712 53.0503041,34.0020368 54.2,31.32 C54.4427198,30.7660019 54.6530737,30.1983804 54.83,29.62 L55.88,24.68 C55.96,23.87 56,23.04 56,22.2 C56,12.7 51.6,5 42.8,5 C34.88,5 31.01,12.79 32.24,22.2 C32.32,22.83 32.43,23.62 32.54,24.48 L33.11,30.66 Z" fill="#F96A59" id="Shape"/><path d="M41.1,18.62 L33.68,30.09 C33.0780096,31.0178383 31.8378384,31.2819903 30.9100001,30.6799999 C29.9821617,30.0780096 29.7180097,28.8378384 30.32,27.91 L32.54,24.48 L41,11.4 L45,11.29 L55.88,24.68 L57.55,26.74 C58.180366,27.5995167 58.0258923,28.8023687 57.1988002,29.4747146 C56.3717081,30.1470604 55.1626606,30.0526192 54.45,29.26 L45,17.64 L41.1,18.62 Z" fill="#FFACAD" id="Shape"/><rect fill="#735EFF" height="11" id="Rectangle-path" rx="2" width="4" x="13" y="4"/><rect fill="#735EFF" height="11" id="Rectangle-path" rx="2" width="4" x="41" y="9"/></g><g fill="#000000" id="Layer_10"><path d="M1.423,25.937 C2.10941475,26.507395 3.05123065,26.6605358 3.883,26.337 C4.02,26.732 4.168,27.125 4.341,27.522 C5.47172135,30.158684 6.04342276,33.0011876 6.02,35.87 C6.02,47.884 9.635,54.5 16.2,54.5 C19.1329411,54.5498984 21.936996,53.2965709 23.856,51.078 C26.843,47.678 28.081,42.109 27.256,35.804 C26.986,33.786 26.445,29.716 26.391,27.404 C27.3868422,27.6669151 28.4416582,27.2882639 29.0429333,26.4520256 C29.6442083,25.6157874 29.6673045,24.4953053 29.101,23.635 L26.981,20.358 L27.257,18.258 C28.024,12.384 26.838,7.158 24.002,3.929 C22.0369253,1.68773292 19.179964,0.432090732 16.2,0.5 C7.878,0.5 2.5,7.448 2.5,18.2 C2.5,18.985 2.539,19.764 2.607,20.523 L1.062,22.423 C0.642691394,22.9361846 0.445061819,23.5952506 0.512805441,24.2544843 C0.580549063,24.9137179 0.908085744,25.5188172 1.423,25.936 L1.423,25.937 Z M23.105,50.419 C21.37339,52.418179 18.8444317,53.5465962 16.2,53.5 C8.212,53.5 7.02,42.454 7.02,35.81 C7.03793054,32.8228472 6.43804009,29.8642501 5.258,27.12 C5.058,26.663 4.893,26.214 4.744,25.758 C4.81219873,25.7008564 4.87697726,25.6397509 4.938,25.575 L13.659,14.851 C13.9592012,15.6970499 14.6935133,16.3145707 15.5785142,16.4652179 C16.4635152,16.6158652 17.3607831,16.2760765 17.924,15.577 L24.9,26.354 C25.0324697,26.5585685 25.1972815,26.7402668 25.388,26.892 C25.388,26.941 25.388,26.992 25.388,27.04 C25.5302463,30.0198339 25.8253009,32.9904061 26.272,35.94 C27.053,41.953 25.9,47.232 23.105,50.419 Z M17.5,14 C17.5,14.8284271 16.8284271,15.5 16,15.5 C15.1715729,15.5 14.5,14.8284271 14.5,14 L14.5,7 C14.5,6.17157288 15.1715729,5.5 16,5.5 C16.8284271,5.5 17.5,6.17157288 17.5,7 L17.5,14 Z M27.818,26.26 C27.3089303,26.580927 26.6587883,26.5727023 26.158,26.239 C25.9888107,26.131848 25.8459394,25.9879512 25.74,25.818 L18.44,14.533 C18.4788221,14.35796 18.498935,14.1792903 18.5,14 L18.5,9.094 L28.26,24.182 C28.7084058,24.8784983 28.5110589,25.8062964 27.818,26.26 Z M3.5,18.2 C3.5,5.887 10.061,1.5 16.2,1.5 C18.8928908,1.43801912 21.4746189,2.57340813 23.249,4.6 C25.9,7.611 27,12.546 26.264,18.137 L26.142,19.066 L18.5,7.252 L18.5,7 C18.5,5.61928813 17.3807119,4.5 16,4.5 C14.6192881,4.5 13.5,5.61928813 13.5,7 L13.5,7.113 L3.529,19.388 C3.51,19 3.5,18.6 3.5,18.2 Z M1.839,23.055 L13.5,8.7 L13.5,13.465 L4.155,24.952 C4.07449884,25.0533266 3.97986672,25.1425704 3.874,25.217 C3.3251731,25.6159693 2.57580028,25.5925128 2.053,25.16 C1.7440789,24.9136617 1.54758666,24.5531255 1.508,24.16 C1.46595632,23.7622077 1.58518772,23.3641694 1.839,23.055 Z" id="Shape"/><path d="M31.639,32.1 C32.222177,32.4768938 32.9358331,32.5942667 33.609,32.424 C33.554,34.736 33.015,38.791 32.744,40.805 C31.919,47.105 33.157,52.676 36.144,56.078 C38.063004,58.2965709 40.8670589,59.5498984 43.8,59.5 C50.365,59.5 53.98,52.884 53.98,40.81 C53.9621944,37.9605698 54.5334758,35.1382083 55.658,32.52 C55.833,32.12 55.98,31.727 56.118,31.331 C56.3152034,31.4088882 56.5215342,31.4613111 56.732,31.487 C56.822,31.496 56.912,31.501 57.001,31.501 C57.9646567,31.4995838 58.8417058,30.9444274 59.2553265,30.0740515 C59.6689472,29.2036757 59.5454909,28.1730582 58.938,27.425 L57.393,25.525 C57.461,24.766 57.5,23.987 57.5,23.202 C57.5,12.45 52.122,5.502 43.8,5.502 C40.819924,5.4359413 37.9636829,6.69341973 36,8.936 C33.164,12.168 31.978,17.391 32.745,23.263 L33.021,25.363 L30.9,28.639 C30.1539097,29.7998194 30.4838684,31.3451335 31.639,32.1 Z M52.98,40.87 C52.98,47.454 51.788,58.5 43.8,58.5 C41.1573056,58.5451066 38.6304812,57.4168246 36.9,55.419 C34.1,52.232 32.952,46.953 33.74,40.937 C34.1873571,37.987464 34.4827472,35.016875 34.625,32.037 C34.625,31.992 34.625,31.942 34.625,31.896 C34.8119223,31.7414542 34.9750128,31.5601677 35.109,31.358 L42.085,20.574 C42.6482169,21.2730765 43.5454848,21.6128652 44.4304858,21.4622179 C45.3154867,21.3115707 46.0497988,20.6940499 46.35,19.848 L55.06,30.572 C55.1197995,30.6425757 55.1839228,30.7093709 55.252,30.772 C55.104,31.224 54.94,31.672 54.741,32.124 C53.5561363,34.8863835 52.9565313,37.8643198 52.98,40.87 Z M42.5,19 L42.5,12 C42.5,11.1715729 43.1715729,10.5 44,10.5 C44.8284271,10.5 45.5,11.1715729 45.5,12 L45.5,19 C45.5,19.8284271 44.8284271,20.5 44,20.5 C43.1715729,20.5 42.5,19.8284271 42.5,19 Z M58.492,29.162 C58.4515485,29.5555589 58.2539558,29.9161295 57.944,30.162 C57.6347474,30.4163232 57.2360503,30.5352835 56.838,30.492 C56.4444411,30.4515485 56.0838705,30.2539558 55.838,29.944 L46.5,18.463 L46.5,13.7 L58.162,28.056 C58.4157141,28.3655765 58.5345965,28.7640126 58.492,29.162 Z M33.736,23.135 C33.005,17.546 34.104,12.611 36.751,9.596 C38.526133,7.57089303 41.107754,6.43701606 43.8,6.5 C49.939,6.5 56.5,10.887 56.5,23.2 C56.5,23.6 56.49,24 56.471,24.388 L46.5,12.113 L46.5,12 C46.5,10.6192881 45.3807119,9.5 44,9.5 C42.6192881,9.5 41.5,10.6192881 41.5,12 L41.5,12.252 L33.859,24.065 L33.736,23.135 Z M31.736,29.182 L41.5,14.094 L41.5,19 C41.501065,19.1792903 41.5211779,19.35796 41.56,19.533 L34.26,30.819 C33.7906853,31.4868054 32.8857263,31.6795726 32.185,31.261 C31.4902821,30.8082242 31.2914885,29.8794786 31.74,29.182 L31.736,29.182 Z" id="Shape"/></g></g></g></svg>