<?xml version="1.0" encoding="UTF-8" standalone="no"?>
<svg
   xmlns:dc="http://purl.org/dc/elements/1.1/"
   xmlns:cc="http://creativecommons.org/ns#"
   xmlns:rdf="http://www.w3.org/1999/02/22-rdf-syntax-ns#"
   xmlns:svg="http://www.w3.org/2000/svg"
   xmlns="http://www.w3.org/2000/svg"
   id="svg1932"
   version="1.1"
   viewBox="0 0 71.751809 78.120773"
   height="78.120773mm"
   width="71.751808mm">
  <defs
     id="defs1926">
    <clipPath
       id="clipPath106"
       clipPathUnits="userSpaceOnUse">
      <path
         id="path104"
         d="m 2187.21,2830.68 c 320.61,0 283.24,300.44 295.35,528.35 14.69,276.15 41.46,549.01 61.18,824.35 17.43,243.58 11.99,464.8 -183,644.32 -126.26,116.23 -452.89,238.62 -574.68,49.85 -253.74,-393.32 146.08,-874.96 99.7,-1289.31 -33.48,-299.03 -195.51,-757.56 301.45,-757.56 z m -1138.52,0 c -320.6,0 -283.237,300.44 -295.346,528.35 -14.696,276.15 -41.453,549.01 -61.172,824.35 -17.442,243.58 -12,464.8 182.988,644.32 126.26,116.23 452.9,238.62 574.69,49.85 253.73,-393.32 -146.09,-874.96 -99.71,-1289.31 33.49,-299.03 195.51,-757.56 -301.45,-757.56 z" />
    </clipPath>
    <clipPath
       id="clipPath258"
       clipPathUnits="userSpaceOnUse">
      <path
         id="path256"
         d="m 4441.53,2795.99 c 320.6,0 283.24,300.43 295.35,528.34 14.69,276.15 41.45,549 61.17,824.35 17.42,243.58 11.99,464.8 -183.01,644.32 -126.25,116.23 -452.89,238.62 -574.68,49.84 -253.72,-393.32 146.09,-874.96 99.7,-1289.3 -33.47,-299.04 -195.5,-757.55 301.47,-757.55 z m -1138.53,0 c -320.6,0 -283.23,300.43 -295.34,528.34 -14.7,276.15 -41.47,549 -61.18,824.35 -17.44,243.58 -12,464.8 182.99,644.32 126.26,116.23 452.89,238.62 574.69,49.84 253.74,-393.32 -146.09,-874.96 -99.71,-1289.3 33.48,-299.04 195.53,-757.55 -301.45,-757.55 z" />
    </clipPath>
    <clipPath
       id="clipPath620"
       clipPathUnits="userSpaceOnUse">
      <path
         id="path618"
         d="m 6701.74,2810.93 c 320.61,0 283.25,300.44 295.35,528.36 14.69,276.14 41.45,549 61.18,824.34 17.42,243.59 11.99,464.81 -182.99,644.32 -126.27,116.23 -452.89,238.62 -574.69,49.85 -253.75,-393.32 146.08,-874.96 99.69,-1289.31 -33.48,-299.02 -195.49,-757.56 301.46,-757.56 z m -1138.53,0 c -320.59,0 -283.22,300.44 -295.33,528.36 -14.69,276.14 -41.47,549 -61.18,824.34 -17.44,243.59 -12.01,464.81 182.99,644.32 126.27,116.23 452.89,238.62 574.69,49.85 253.73,-393.32 -146.09,-874.96 -99.71,-1289.31 33.48,-299.02 195.51,-757.56 -301.46,-757.56 z" />
    </clipPath>
    <clipPath
       id="clipPath24"
       clipPathUnits="userSpaceOnUse">
      <path
         id="path22"
         d="m 2172,487.441 c -496.73,15.2 -334.93,458.52 -301.46,757.559 46.39,414.34 -353.44,895.98 -99.71,1289.3 121.8,188.78 448.43,66.38 574.69,-49.85 194.99,-179.51 200.43,-400.74 182.99,-644.31 -19.71,-275.35 -46.47,-548.21 -61.17,-824.36 C 2455.23,787.871 2492.45,477.641 2172,487.441 Z" />
    </clipPath>
    <clipPath
       id="clipPath48"
       clipPathUnits="userSpaceOnUse">
      <path
         id="path46"
         d="m 1033.47,487.441 c 496.74,15.2 334.94,458.52 301.47,757.559 -46.39,414.34 353.43,895.98 99.7,1289.3 -121.79,188.78 -448.433,66.38 -574.683,-49.85 -195,-179.51 -200.43,-400.74 -183,-644.31 19.719,-275.35 46.477,-548.21 61.172,-824.36 12.109,-227.909 -25.098,-538.139 295.341,-528.339 z" />
    </clipPath>
  </defs>
  <metadata
     id="metadata1929">
    <rdf:RDF>
      <cc:Work
         rdf:about="">
        <dc:format>image/svg+xml</dc:format>
        <dc:type
           rdf:resource="http://purl.org/dc/dcmitype/StillImage" />
        <dc:title></dc:title>
      </cc:Work>
    </rdf:RDF>
  </metadata>
  <g
     transform="translate(18.150641,-44.322241)"
     id="layer1">
    <g
       id="g3030"
       transform="matrix(0.35277777,0,0,-0.35277777,-50.570871,137.88418)">
      <path
         id="path14"
         style="fill:#9e1f63;fill-opacity:1;fill-rule:nonzero;stroke:none;stroke-width:0.1"
         d="m 250.52361,47.911035 c -49.674,1.52 -33.494,45.852 -30.147,75.755895 4.639,41.434 -35.344,89.598 -9.971,128.93 12.18,18.878 44.844,6.638 57.469,-4.985 19.5,-17.951 20.043,-40.074 18.299,-64.431 -1.971,-27.535 -4.646,-54.821 -6.117,-82.436 -1.211,-22.790895 2.512,-53.813895 -29.533,-52.833895" />
      <path
         id="path16"
         style="fill:#9e1f63;fill-opacity:1;fill-rule:nonzero;stroke:none;stroke-width:0.1"
         d="m 136.66961,47.911035 c 49.674,1.52 33.494,45.852 30.147,75.755895 -4.639,41.434 35.343,89.598 9.97,128.93 -12.179,18.878 -44.8433,6.638 -57.4683,-4.985 -19.500002,-17.951 -20.043002,-40.074 -18.3008,-64.431 1.9727,-27.535 4.6485,-54.821 6.1172,-82.436 1.2109,-22.790895 -2.5098,-53.813895 29.5349,-52.833895" />
      <g
         id="g18"
         transform="matrix(0.1,0,0,0.1,33.322608,-0.83306519)">
        <g
           clip-path="url(#clipPath24)"
           id="g20">
          <path
             id="path26"
             style="fill:#cadb2a;fill-opacity:1;fill-rule:nonzero;stroke:none"
             d="M 965.582,1724.66 V 1302.3 C 1425.23,1716.95 1591.13,2430.21 2007.16,2725.38 H 1645.17 C 1442.58,2398.5 1267.44,1997.25 965.582,1724.66" />
          <path
             id="path28"
             style="fill:#00addd;fill-opacity:1;fill-rule:nonzero;stroke:none"
             d="M 965.582,1372.86 V 950.52 c 590.118,532.37 695.998,1557.04 1468.748,1557.04 73.17,0 140.27,-7.72 202.46,-22.1 v 239.92 H 1920.23 C 1565.37,2399.01 1391.75,1757.71 965.582,1372.86" />
          <path
             id="path30"
             style="fill:#b72467;fill-opacity:1;fill-rule:nonzero;stroke:none"
             d="m 2433.98,2577.9 c -772.59,0 -878.52,-1024.16 -1468.398,-1556.84 V 598.719 C 1555.7,1131.09 1661.58,2155.78 2434.33,2155.78 c 73.17,0 140.27,-7.71 202.46,-22.1 v 422.03 c -62.28,14.45 -129.51,22.19 -202.81,22.19" />
          <path
             id="path32"
             style="fill:#f68b1f;fill-opacity:1;fill-rule:nonzero;stroke:none"
             d="m 2434.33,1803.97 c 73.17,0 140.27,-7.71 202.46,-22.1 v 422.07 c -62.28,14.44 -129.51,22.18 -202.81,22.18 -772.59,0 -878.52,-1024.15 -1468.398,-1556.811 V 415.379 H 1125.44 C 1582.65,969.48 1736.95,1803.97 2434.33,1803.97" />
          <path
             id="path34"
             style="fill:#cadb2a;fill-opacity:1;fill-rule:nonzero;stroke:none"
             d="m 2434.33,1452.22 c 73.17,0 140.27,-7.72 202.46,-22.1 v 422.05 c -62.28,14.44 -129.51,22.19 -202.81,22.19 -727.58,0 -863.97,-908.231 -1370.06,-1458.981 h 303.07 C 1664.58,914.25 1874.41,1452.22 2434.33,1452.22" />
          <path
             id="path36"
             style="fill:#00addd;fill-opacity:1;fill-rule:nonzero;stroke:none"
             d="m 2434.33,1100.42 c 73.17,0 140.27,-7.71 202.46,-22.1 v 422.05 c -62.28,14.44 -129.51,22.19 -202.81,22.19 -586.37,0 -788.75,-589.908 -1110.13,-1107.181 h 244.78 c 214.38,370.82 437.8,685.041 865.7,685.041" />
          <path
             id="path38"
             style="fill:#b72467;fill-opacity:1;fill-rule:nonzero;stroke:none"
             d="m 2434.33,748.609 c 73.17,0 140.27,-7.711 202.46,-22.097 v 422.048 c -62.28,14.45 -129.51,22.19 -202.81,22.19 -454.74,0 -678.52,-354.82 -905.96,-755.371 h 272.83 c 159.93,197.84 352.65,333.23 633.48,333.23" />
          <path
             id="path40"
             style="fill:#f68b1f;fill-opacity:1;fill-rule:nonzero;stroke:none"
             d="m 2636.79,796.809 c -62.28,14.441 -129.51,22.179 -202.81,22.179 -313.04,0 -516.62,-168.148 -687.31,-403.609 h 890.12 v 381.43" />
        </g>
      </g>
      <g
         id="g42"
         transform="matrix(0.1,0,0,0.1,33.322608,-0.83306519)">
        <g
           clip-path="url(#clipPath48)"
           id="g44">
          <path
             id="path50"
             style="fill:#cadb2a;fill-opacity:1;fill-rule:nonzero;stroke:none"
             d="m 2065.79,1464.82 v 421.63 c -203.77,294.05 -347.32,593.33 -501.15,838.93 h -370.06 c 350,-237.87 522.36,-756.63 871.21,-1260.56" />
          <path
             id="path52"
             style="fill:#00addd;fill-opacity:1;fill-rule:nonzero;stroke:none"
             d="m 581.793,2492.45 c 48.543,9.78 99.93,15.11 154.785,15.11 707.622,0 856.012,-710.94 1329.212,-1394.49 v 421.6 c -317.9,458.73 -489.2,930.31 -781.67,1190.71 H 581.793 v -232.93" />
          <path
             id="path54"
             style="fill:#b72467;fill-opacity:1;fill-rule:nonzero;stroke:none"
             d="m 736.207,2577.9 c -54.707,0 -105.977,-5.3 -154.414,-15.04 v -422.19 c 48.543,9.78 99.93,15.11 154.785,15.11 707.622,0 856.012,-710.97 1329.212,-1394.51 v 421.59 C 1592.3,1866.11 1444.02,2577.9 736.207,2577.9" />
          <path
             id="path56"
             style="fill:#f68b1f;fill-opacity:1;fill-rule:nonzero;stroke:none"
             d="M 2065.79,831.102 C 1592.3,1514.33 1444.02,2226.12 736.207,2226.12 c -54.707,0 -105.977,-5.3 -154.414,-15.04 v -422.21 c 48.543,9.77 99.93,15.1 154.785,15.1 705.582,0 855.182,-706.86 1325.152,-1388.591 h 4.06 v 415.723" />
          <path
             id="path58"
             style="fill:#cadb2a;fill-opacity:1;fill-rule:nonzero;stroke:none"
             d="M 2065.79,479.352 C 1592.3,1162.57 1444.02,1874.36 736.207,1874.36 c -54.707,0 -105.977,-5.31 -154.414,-15.04 v -422.21 c 48.543,9.77 99.93,15.11 154.785,15.11 583.692,0 786.902,-483.759 1105.752,-1036.841 h 223.46 v 63.973" />
          <path
             id="path60"
             style="fill:#00addd;fill-opacity:1;fill-rule:nonzero;stroke:none"
             d="m 736.207,1522.56 c -54.707,0 -105.977,-5.3 -154.414,-15.04 v -422.21 c 48.543,9.78 99.93,15.11 154.785,15.11 454.792,0 678.592,-293.701 906.072,-685.041 h 240.24 C 1539.55,996.871 1344.5,1522.56 736.207,1522.56" />
          <path
             id="path62"
             style="fill:#b72467;fill-opacity:1;fill-rule:nonzero;stroke:none"
             d="m 736.207,1170.75 c -54.707,0 -105.977,-5.3 -154.414,-15.04 V 733.512 c 48.543,9.769 99.93,15.097 154.785,15.097 303.022,0 503.472,-130.449 670.822,-333.23 h 275.17 c -242.2,425.832 -464.76,755.371 -946.363,755.371" />
          <path
             id="path64"
             style="fill:#f68b1f;fill-opacity:1;fill-rule:nonzero;stroke:none"
             d="m 736.207,818.988 c -54.707,0 -105.977,-5.297 -154.414,-15.027 V 415.379 H 1461.71 C 1283,657.84 1072.92,818.988 736.207,818.988" />
        </g>
      </g>
      <path
         id="path66"
         style="fill:#9e1f63;fill-opacity:1;fill-rule:nonzero;stroke:none;stroke-width:0.1"
         d="m 180.70461,251.31293 c -3.197,4.958 -7.808,7.766 -13.096,9.006 3.496,-1.558 6.534,-4.015 8.839,-7.586 25.373,-39.332 -14.61,-87.496 -9.971,-128.931 3.347,-29.902995 19.551,-75.756095 -30.146,-75.756095 -3.6666,-0.1109 -6.8619,0.1992 -9.6529,0.8652 3.6621,-1.6191 8.2209,-2.4589 13.9109,-2.2832 49.696,0 33.493,45.8512 30.146,75.754095 -4.639,41.435 35.343,89.599 9.97,128.931" />
      <path
         id="path68"
         style="fill:#bed63a;fill-opacity:1;fill-rule:nonzero;stroke:none;stroke-width:0.1"
         d="m 142.59961,231.76893 c 0,0 5.615,3.066 7.468,4.918 1.851,1.851 5.585,1.638 5.585,-1.155 0,-2.793 -3.889,-7.263 -6.075,-8.476 l -6.978,4.713" />
      <path
         id="path70"
         style="fill:#00addd;fill-opacity:1;fill-rule:nonzero;stroke:none;stroke-width:0.1"
         d="m 95.576108,165.23093 c 0,0 -2.2402,-20.484 8.980502,-39.478 0,0 3.2539,-7.037 8.4383,-4.422 5.1418,2.592 1.0285,9.699 0.0422,11.885 -0.9825,2.174 -7.9043,12.133 -9.2969,14.18 -2.1379,3.14 -4.948502,12.968 -5.443402,16.099 -0.4914,3.104 -0.3398,8.108 1.0762,12.229 0,0 -3.2238,-6.43 -3.7969,-10.493" />
      <path
         id="path72"
         style="fill:none;stroke:#0088a8;stroke-width:1;stroke-linecap:butt;stroke-linejoin:miter;stroke-miterlimit:4;stroke-dasharray:none;stroke-opacity:1"
         d="m 95.576108,165.23093 c 0,0 -2.2402,-20.484 8.980502,-39.478 0,0 3.2539,-7.037 8.4383,-4.422 5.1418,2.592 1.0285,9.699 0.0422,11.885 -0.9825,2.174 -7.9043,12.133 -9.2969,14.18 -2.1379,3.14 -4.948502,12.968 -5.443402,16.099 -0.4914,3.104 -0.3398,8.108 1.0762,12.229 0,0 -3.2238,-6.43 -3.7969,-10.493 z" />
      <path
         id="path74"
         style="fill:#00addd;fill-opacity:1;fill-rule:nonzero;stroke:none;stroke-width:0.1"
         d="m 170.16361,184.35793 c 0,0 1.528,-20.582 0.826,-23.902 -0.707,-3.352 -5.948,-12.715 -9.794,-16.023 -3.887,-3.344 -10.378,-13.129 -10.981,-15.588 -0.607,-2.475 -3.478,-7.68 1.225,-10.992 4.733,-3.332 8.493,0.845 10.558,2.689 0,0 4.912,5.32 7.344,10.324 2.398,4.936 7.838,16.553 6.19,30.715 -1.589,13.658 -5.368,22.777 -5.368,22.777" />
      <path
         id="path76"
         style="fill:none;stroke:#0088a8;stroke-width:1;stroke-linecap:butt;stroke-linejoin:miter;stroke-miterlimit:4;stroke-dasharray:none;stroke-opacity:1"
         d="m 170.16361,184.35793 c 0,0 1.528,-20.582 0.826,-23.902 -0.707,-3.352 -5.948,-12.715 -9.794,-16.023 -3.887,-3.344 -10.378,-13.129 -10.981,-15.588 -0.607,-2.475 -3.478,-7.68 1.225,-10.992 4.733,-3.332 8.493,0.845 10.558,2.689 0,0 4.912,5.32 7.344,10.324 2.398,4.936 7.838,16.553 6.19,30.715 -1.589,13.658 -5.368,22.777 -5.368,22.777 z" />
      <path
         id="path78"
         style="fill:#bed63a;fill-opacity:1;fill-rule:nonzero;stroke:none;stroke-width:0.1"
         d="m 95.698008,154.19193 c 0,0 3.5598,29.653 19.312502,43.317 20.0011,17.347 30.7351,22.674 30.7351,22.674 0,0 17.071,-16.534 24.418,-38.336 5.85,-23.092 5.663,-26.575 5.663,-26.575 0,0 4.656,26.78 1.318,38.59 -3.826,13.537 -7.111,24.823 -19.887,34.043 -2.27,1.639 -7.778,5.039 -10.988,5.198 -3.598,0.177 -8.754,-3.295 -11.436,-4.745 -7.2028,-3.894 -13.6657,-8.642 -19.4665,-14.146 -7.8007,-7.402 -15.449202,-14.834 -18.014802,-25.156 -3.4121,-13.725 -1.6836,-21.211 -1.6543,-34.864" />
      <path
         id="path80"
         style="fill:none;stroke:#0088a8;stroke-width:1;stroke-linecap:butt;stroke-linejoin:miter;stroke-miterlimit:4;stroke-dasharray:none;stroke-opacity:1"
         d="m 95.698008,154.19193 c 0,0 3.5598,29.653 19.312502,43.317 20.0011,17.347 30.7351,22.674 30.7351,22.674 0,0 17.071,-16.534 24.418,-38.336 5.85,-23.092 5.663,-26.575 5.663,-26.575 0,0 4.656,26.78 1.318,38.59 -3.826,13.537 -7.111,24.823 -19.887,34.043 -2.27,1.639 -7.778,5.039 -10.988,5.198 -3.598,0.177 -8.754,-3.295 -11.436,-4.745 -7.2028,-3.894 -13.6657,-8.642 -19.4665,-14.146 -7.8007,-7.402 -15.449202,-14.834 -18.014802,-25.156 -3.4121,-13.725 -1.6836,-21.211 -1.6543,-34.864 z" />
      <path
         id="path82"
         style="fill:#9e1f63;fill-opacity:1;fill-rule:nonzero;stroke:none;stroke-width:0.1"
         d="m 206.48861,251.31293 c 3.198,4.958 7.808,7.766 13.097,9.006 -3.497,-1.558 -6.535,-4.015 -8.84,-7.586 -25.373,-39.332 14.61,-87.496 9.971,-128.931 -3.348,-29.902995 -19.551,-75.756095 30.146,-75.756095 3.667,-0.1109 6.862,0.1992 9.653,0.8652 -3.662,-1.6191 -8.221,-2.4589 -13.911,-2.2832 -49.697,0 -33.493,45.8512 -30.146,75.754095 4.639,41.435 -35.344,89.599 -9.97,128.931" />
      <path
         id="path84"
         style="fill:#bed63a;fill-opacity:1;fill-rule:nonzero;stroke:none;stroke-width:0.1"
         d="m 244.59361,231.76893 c 0,0 -5.615,3.066 -7.468,4.918 -1.851,1.851 -5.585,1.638 -5.585,-1.155 0,-2.793 3.889,-7.263 6.074,-8.476 l 6.979,4.713" />
      <path
         id="path86"
         style="fill:#00addd;fill-opacity:1;fill-rule:nonzero;stroke:none;stroke-width:0.1"
         d="m 291.61661,165.23093 c 0,0 2.241,-20.484 -8.98,-39.478 0,0 -3.254,-7.037 -8.439,-4.422 -5.141,2.592 -1.028,9.699 -0.042,11.885 0.983,2.174 7.905,12.133 9.297,14.18 2.138,3.14 4.949,12.968 5.444,16.099 0.491,3.104 0.34,8.108 -1.076,12.229 0,0 3.223,-6.43 3.796,-10.493" />
      <path
         id="path88"
         style="fill:none;stroke:#0088a8;stroke-width:1;stroke-linecap:butt;stroke-linejoin:miter;stroke-miterlimit:4;stroke-dasharray:none;stroke-opacity:1"
         d="m 291.61661,165.23093 c 0,0 2.241,-20.484 -8.98,-39.478 0,0 -3.254,-7.037 -8.439,-4.422 -5.141,2.592 -1.028,9.699 -0.042,11.885 0.983,2.174 7.905,12.133 9.297,14.18 2.138,3.14 4.949,12.968 5.444,16.099 0.491,3.104 0.34,8.108 -1.076,12.229 0,0 3.223,-6.43 3.796,-10.493 z" />
      <path
         id="path90"
         style="fill:#00addd;fill-opacity:1;fill-rule:nonzero;stroke:none;stroke-width:0.1"
         d="m 216.94761,184.35793 c 0,0 -1.527,-20.582 -0.826,-23.902 0.707,-3.352 5.948,-12.715 9.795,-16.023 3.886,-3.344 10.378,-13.129 10.98,-15.588 0.608,-2.475 3.479,-7.68 -1.224,-10.992 -4.734,-3.332 -8.494,0.845 -10.559,2.689 0,0 -4.912,5.32 -7.344,10.324 -2.397,4.936 -7.838,16.553 -6.19,30.715 1.59,13.658 5.368,22.777 5.368,22.777" />
      <path
         id="path92"
         style="fill:none;stroke:#0088a8;stroke-width:1;stroke-linecap:butt;stroke-linejoin:miter;stroke-miterlimit:4;stroke-dasharray:none;stroke-opacity:1"
         d="m 216.94761,184.35793 c 0,0 -1.527,-20.582 -0.826,-23.902 0.707,-3.352 5.948,-12.715 9.795,-16.023 3.886,-3.344 10.378,-13.129 10.98,-15.588 0.608,-2.475 3.479,-7.68 -1.224,-10.992 -4.734,-3.332 -8.494,0.845 -10.559,2.689 0,0 -4.912,5.32 -7.344,10.324 -2.397,4.936 -7.838,16.553 -6.19,30.715 1.59,13.658 5.368,22.777 5.368,22.777 z" />
      <path
         id="path94"
         style="fill:#bed63a;fill-opacity:1;fill-rule:nonzero;stroke:none;stroke-width:0.1"
         d="m 291.49061,154.14493 c 0,0 -3.555,29.7 -19.308,43.364 -20.001,17.347 -30.735,22.674 -30.735,22.674 0,0 -17.071,-16.534 -24.418,-38.336 -5.766,-22.938 -5.743,-26.641 -5.743,-26.641 0,0 -4.576,26.846 -1.238,38.656 3.826,13.537 7.11,24.823 19.887,34.043 2.27,1.639 7.778,5.039 10.988,5.198 3.598,0.177 8.754,-3.295 11.436,-4.745 7.203,-3.894 13.666,-8.642 19.466,-14.146 7.801,-7.402 15.45,-14.834 18.015,-25.156 3.412,-13.725 1.679,-21.259 1.65,-34.911" />
      <path
         id="path96"
         style="fill:none;stroke:#0088a8;stroke-width:1;stroke-linecap:butt;stroke-linejoin:miter;stroke-miterlimit:4;stroke-dasharray:none;stroke-opacity:1"
         d="m 291.49061,154.14493 c 0,0 -3.555,29.7 -19.308,43.364 -20.001,17.347 -30.735,22.674 -30.735,22.674 0,0 -17.071,-16.534 -24.418,-38.336 -5.766,-22.938 -5.743,-26.641 -5.743,-26.641 0,0 -4.576,26.846 -1.238,38.656 3.826,13.537 7.11,24.823 19.887,34.043 2.27,1.639 7.778,5.039 10.988,5.198 3.598,0.177 8.754,-3.295 11.436,-4.745 7.203,-3.894 13.666,-8.642 19.466,-14.146 7.801,-7.402 15.45,-14.834 18.015,-25.156 3.412,-13.725 1.679,-21.259 1.65,-34.911 z" />
    </g>
  </g>
</svg>
