<?xml version="1.0" encoding="UTF-8" standalone="no"?>
<svg
   xmlns:dc="http://purl.org/dc/elements/1.1/"
   xmlns:cc="http://creativecommons.org/ns#"
   xmlns:rdf="http://www.w3.org/1999/02/22-rdf-syntax-ns#"
   xmlns:svg="http://www.w3.org/2000/svg"
   xmlns="http://www.w3.org/2000/svg"
   xmlns:sodipodi="http://sodipodi.sourceforge.net/DTD/sodipodi-0.dtd"
   xmlns:inkscape="http://www.inkscape.org/namespaces/inkscape"
   sodipodi:docname="8 - Hotel Slipper.svg"
   inkscape:version="1.0 (4035a4fb49, 2020-05-01)"
   id="svg831"
   version="1.1"
   viewBox="0 0 22.577778 22.577778"
   height="64pt"
   width="64pt"
   inkscape:export-filename="C:\Users\RainBoyz\Desktop\Oktober 2\Expand [Done!]\8 - Hotel Slipper.png"
   inkscape:export-xdpi="576"
   inkscape:export-ydpi="576">
  <defs
     id="defs825">
    <pattern
       y="0"
       x="0"
       height="6"
       width="6"
       patternUnits="userSpaceOnUse"
       id="EMFhbasepattern" />
    <pattern
       y="0"
       x="0"
       height="6"
       width="6"
       patternUnits="userSpaceOnUse"
       id="EMFhbasepattern-9" />
    <pattern
       y="0"
       x="0"
       height="6"
       width="6"
       patternUnits="userSpaceOnUse"
       id="EMFhbasepattern-0" />
    <pattern
       y="0"
       x="0"
       height="6"
       width="6"
       patternUnits="userSpaceOnUse"
       id="EMFhbasepattern-7" />
    <pattern
       y="0"
       x="0"
       height="6"
       width="6"
       patternUnits="userSpaceOnUse"
       id="EMFhbasepattern-2" />
    <pattern
       y="0"
       x="0"
       height="6"
       width="6"
       patternUnits="userSpaceOnUse"
       id="EMFhbasepattern-98" />
    <pattern
       y="0"
       x="0"
       height="6"
       width="6"
       patternUnits="userSpaceOnUse"
       id="EMFhbasepattern-6" />
    <pattern
       y="0"
       x="0"
       height="6"
       width="6"
       patternUnits="userSpaceOnUse"
       id="EMFhbasepattern-01" />
    <pattern
       y="0"
       x="0"
       height="6"
       width="6"
       patternUnits="userSpaceOnUse"
       id="EMFhbasepattern-07" />
    <pattern
       y="0"
       x="0"
       height="6"
       width="6"
       patternUnits="userSpaceOnUse"
       id="EMFhbasepattern-8" />
    <pattern
       y="0"
       x="0"
       height="6"
       width="6"
       patternUnits="userSpaceOnUse"
       id="EMFhbasepattern-4" />
    <pattern
       y="0"
       x="0"
       height="6"
       width="6"
       patternUnits="userSpaceOnUse"
       id="EMFhbasepattern-40" />
    <pattern
       y="0"
       x="0"
       height="6"
       width="6"
       patternUnits="userSpaceOnUse"
       id="EMFhbasepattern-08" />
    <pattern
       y="0"
       x="0"
       height="6"
       width="6"
       patternUnits="userSpaceOnUse"
       id="EMFhbasepattern-04" />
    <pattern
       y="0"
       x="0"
       height="6"
       width="6"
       patternUnits="userSpaceOnUse"
       id="EMFhbasepattern-014" />
    <pattern
       y="0"
       x="0"
       height="6"
       width="6"
       patternUnits="userSpaceOnUse"
       id="EMFhbasepattern-27" />
    <pattern
       y="0"
       x="0"
       height="6"
       width="6"
       patternUnits="userSpaceOnUse"
       id="EMFhbasepattern-09" />
    <pattern
       y="0"
       x="0"
       height="6"
       width="6"
       patternUnits="userSpaceOnUse"
       id="EMFhbasepattern-5" />
    <pattern
       y="0"
       x="0"
       height="6"
       width="6"
       patternUnits="userSpaceOnUse"
       id="EMFhbasepattern-018" />
  </defs>
  <sodipodi:namedview
     inkscape:document-rotation="0"
     inkscape:snap-global="true"
     inkscape:snap-nodes="false"
     inkscape:bbox-nodes="true"
     inkscape:snap-bbox="true"
     showguides="true"
     inkscape:snap-midpoints="true"
     inkscape:snap-smooth-nodes="true"
     inkscape:snap-intersection-paths="true"
     inkscape:object-paths="true"
     inkscape:showpageshadow="false"
     inkscape:pagecheckerboard="true"
     inkscape:window-maximized="1"
     inkscape:window-y="-8"
     inkscape:window-x="-8"
     inkscape:window-height="715"
     inkscape:window-width="1366"
     units="pt"
     showgrid="false"
     inkscape:current-layer="layer1"
     inkscape:document-units="pt"
     inkscape:cy="42.666667"
     inkscape:cx="-46.521273"
     inkscape:zoom="2.175182"
     inkscape:pageshadow="2"
     inkscape:pageopacity="0.0"
     borderopacity="1.0"
     bordercolor="#666666"
     pagecolor="#ffffff"
     id="base">
    <inkscape:grid
       id="grid1378"
       type="xygrid" />
    <sodipodi:guide
       inkscape:locked="false"
       id="guide1380"
       orientation="78.000048,0"
       position="0.97013831,21.607643" />
    <sodipodi:guide
       inkscape:locked="false"
       id="guide1382"
       orientation="0,78.000005"
       position="0.97013831,0.97013129" />
    <sodipodi:guide
       inkscape:locked="false"
       id="guide1384"
       orientation="-78.000048,0"
       position="21.607639,0.97013129" />
    <sodipodi:guide
       inkscape:locked="false"
       id="guide1386"
       orientation="0,-78.000005"
       position="21.607639,21.607643" />
  </sodipodi:namedview>
  <metadata
     id="metadata828">
    <rdf:RDF>
      <cc:Work
         rdf:about="">
        <dc:format>image/svg+xml</dc:format>
        <dc:type
           rdf:resource="http://purl.org/dc/dcmitype/StillImage" />
        <dc:title />
      </cc:Work>
    </rdf:RDF>
  </metadata>
  <g
     transform="translate(0,-274.42223)"
     id="layer1"
     inkscape:groupmode="layer"
     inkscape:label="Icon">
    <path
       id="path1496"
       style="color:#000000;font-style:normal;font-variant:normal;font-weight:normal;font-stretch:normal;font-size:medium;line-height:normal;font-family:sans-serif;font-variant-ligatures:normal;font-variant-position:normal;font-variant-caps:normal;font-variant-numeric:normal;font-variant-alternates:normal;font-variant-east-asian:normal;font-feature-settings:normal;font-variation-settings:normal;text-indent:0;text-align:start;text-decoration:none;text-decoration-line:none;text-decoration-style:solid;text-decoration-color:#000000;letter-spacing:normal;word-spacing:normal;text-transform:none;writing-mode:lr-tb;direction:ltr;text-orientation:mixed;dominant-baseline:auto;baseline-shift:baseline;text-anchor:start;white-space:normal;shape-padding:0;shape-margin:0;inline-size:0;clip-rule:nonzero;display:inline;overflow:visible;visibility:visible;opacity:1;isolation:auto;mix-blend-mode:normal;color-interpolation:sRGB;color-interpolation-filters:linearRGB;solid-color:#000000;solid-opacity:1;vector-effect:none;fill:#000000;fill-opacity:1;fill-rule:nonzero;stroke:none;stroke-width:0.695603;stroke-linecap:round;stroke-linejoin:round;stroke-miterlimit:4;stroke-dasharray:none;stroke-dashoffset:0;stroke-opacity:1;color-rendering:auto;image-rendering:auto;shape-rendering:auto;text-rendering:auto;enable-background:accumulate;stop-color:#000000;stop-opacity:1"
       d="m 5.7048552,275.72508 c -2.6108451,0 -4.73471671,2.12388 -4.73471671,4.73472 v 7.57622 c 0.0231396,0.34624 0.23086251,0.63765 0.39806951,0.86271 v 2.85986 c -2e-7,2.17032 1.7682561,3.93857 3.9385778,3.93857 h 0.7981769 c 2.1703218,0 3.9358613,-1.76825 3.9358613,-3.93857 v -2.85714 c 0.232277,-0.28998 0.363105,-0.55139 0.398068,-0.86543 0.0011,-2.53 0,-5.04982 0,-7.57622 0,-2.61084 -2.1231924,-4.73472 -4.7340368,-4.73472 z m 11.1683618,0 c -2.610846,0 -4.737434,2.12388 -4.737434,4.73472 v 7.57622 c 0.02337,0.34772 0.23248,0.63977 0.400785,0.86543 v 2.85714 c 0,2.17032 1.76554,3.93857 3.935862,3.93857 h 0.798856 c 2.170321,0 3.937898,-1.76825 3.937898,-3.93857 v -2.85986 c 0.231527,-0.28928 0.362898,-0.54946 0.398068,-0.86271 8.7e-4,-2.52891 0,-5.04903 0,-7.57622 0,-2.61084 -2.123191,-4.73472 -4.734035,-4.73472 z m -11.1683618,0.69357 c 2.2349127,0 4.0384352,1.80624 4.0384352,4.04115 v 0.81652 c -0.4652103,-0.31034 -1.0105973,-0.48013 -1.5202727,-0.59847 -0.1485899,0.009 -0.274503,0.11292 -0.3131565,0.25678 -0.049466,0.18655 0.062414,0.37771 0.2493035,0.42592 0.6115957,0.15726 1.16635,0.38854 1.5841257,0.84436 v 0.66572 c -0.4722601,-0.3049 -1.0068062,-0.49492 -1.5202727,-0.59847 -0.1485899,0.009 -0.274503,0.11292 -0.3131565,0.25678 -0.049466,0.18656 0.062427,0.37772 0.2493035,0.42592 0.6110672,0.15652 1.1649672,0.3917 1.5841257,0.84506 v 0.7248 c -1.1982733,-0.7466 -2.8357002,-0.94659 -4.0384352,-0.95373 -1.4716521,0.058 -2.8634993,0.23399 -4.0384347,0.95509 v -0.59438 c 0.3727229,-0.56875 1.119109,-0.81026 1.6765108,-0.97684 0.1855061,-0.0497 0.2955935,-0.2404 0.2459063,-0.42592 -0.041152,-0.15176 -0.1790109,-0.25703 -0.3362531,-0.25677 -0.5766916,0.10122 -1.1250387,0.37888 -1.586164,0.65756 v -0.59371 c 0.4151443,-0.54829 1.1109727,-0.80667 1.6765108,-0.97547 0.1855063,-0.0497 0.2955939,-0.24041 0.2459063,-0.42592 -0.040122,-0.15284 -0.1782348,-0.25943 -0.3362531,-0.2595 -0.5765649,0.10661 -1.1242964,0.38115 -1.586164,0.66029 v -0.87562 c 0,-2.23491 1.8035223,-4.04115 4.0384347,-4.04115 z m 11.1683618,0 c 2.234912,0 4.038435,1.80624 4.038435,4.04115 v 0.81855 c -0.464938,-0.31105 -1.010645,-0.48183 -1.520271,-0.6005 -0.148592,0.009 -0.274503,0.11292 -0.313158,0.25678 -0.04964,0.18572 0.06081,0.3765 0.246586,0.42592 0.611562,0.15848 1.170148,0.38793 1.586843,0.8464 v 0.66571 c -0.464933,-0.31104 -1.010645,-0.48182 -1.520271,-0.6005 -0.148592,0.009 -0.274503,0.11292 -0.313158,0.25678 -0.04964,0.18573 0.06081,0.37649 0.246586,0.42592 0.61102,0.15776 1.168766,0.3911 1.586843,0.84709 v 0.72481 c -1.197454,-0.74859 -2.835739,-0.94863 -4.038435,-0.95577 -1.473104,0.0572 -2.863893,0.23581 -4.041153,0.95509 v -0.59099 c 0.406212,-0.53378 1.089785,-0.80286 1.676512,-0.98023 0.185781,-0.0494 0.296228,-0.24019 0.246585,-0.42592 -0.04095,-0.15102 -0.17773,-0.25612 -0.334215,-0.25678 -0.568001,0.12975 -1.163638,0.38735 -1.588882,0.65825 v -0.591 c 0.407781,-0.53598 1.093393,-0.80237 1.676512,-0.97886 0.185782,-0.0494 0.296228,-0.2402 0.246585,-0.42592 -0.03992,-0.15211 -0.176956,-0.25851 -0.334215,-0.2595 -0.568291,0.13578 -1.162519,0.38935 -1.588882,0.66096 v -0.87629 c 0,-2.23491 1.80624,-4.04115 4.041153,-4.04115 z m -11.673081,1.7227 c -0.2177584,0.0199 -0.4002226,0.22211 -0.3573116,0.46736 l 0.055703,0.31452 -0.2296032,0.22416 c -0.2363244,0.23069 -0.1059888,0.63213 0.2207721,0.67998 l 0.3151949,0.0469 0.1440116,0.28597 c 0.064638,0.13252 0.197057,0.21955 0.3444047,0.2235 0.1569078,0.005 0.3020547,-0.0824 0.3708977,-0.2235 l 0.1412943,-0.28597 0.315195,-0.0469 c 0.3267613,-0.0478 0.4570963,-0.44929 0.220772,-0.67998 l -0.2296032,-0.22416 0.056381,-0.31452 c 0.057215,-0.32688 -0.286926,-0.57688 -0.5801215,-0.42117 l -0.2825885,0.15013 -0.2825886,-0.15013 c -0.073299,-0.0389 -0.150224,-0.0528 -0.2228102,-0.0461 z m 11.167003,0 c -0.217757,0.0199 -0.400217,0.22211 -0.357311,0.46736 l 0.0557,0.31452 -0.229604,0.22416 c -0.236324,0.23069 -0.10599,0.63213 0.220773,0.67998 l 0.315194,0.0469 0.144012,0.28597 c 0.06463,0.13252 0.197058,0.21955 0.344405,0.2235 0.156908,0.005 0.302056,-0.0824 0.370897,-0.2235 l 0.141295,-0.28597 0.315195,-0.0469 c 0.326767,-0.0478 0.457096,-0.44929 0.220772,-0.67998 l -0.229603,-0.22416 0.05571,-0.31452 c 0.05721,-0.32688 -0.286247,-0.57688 -0.579443,-0.42117 l -0.282589,0.15013 -0.282588,-0.15013 c -0.0733,-0.0389 -0.150225,-0.0528 -0.222811,-0.0461 z m -13.0534176,0.72209 c -0.2214867,-8.7e-4 -0.400977,0.17865 -0.4001074,0.40012 7.513e-4,0.22035 0.1797638,0.39894 0.4001074,0.39806 0.2191946,-7.6e-4 0.3966432,-0.17887 0.3973903,-0.39806 8.695e-4,-0.22033 -0.1770541,-0.39934 -0.3973903,-0.40012 z m 4.785664,0 c -0.2214869,-8.7e-4 -0.400976,0.17865 -0.4001071,0.40012 7.65e-4,0.22035 0.1797638,0.39894 0.4001071,0.39806 0.2191943,-7.6e-4 0.3966433,-0.17887 0.3973899,-0.39806 8.703e-4,-0.22033 -0.1770533,-0.39934 -0.3973899,-0.40012 z m 6.3813386,0 c -0.221487,-8.7e-4 -0.400976,0.17865 -0.400107,0.40012 7.65e-4,0.22035 0.179764,0.39894 0.400107,0.39806 0.219195,-7.6e-4 0.396645,-0.17887 0.39739,-0.39806 8.7e-4,-0.22033 -0.177053,-0.39934 -0.39739,-0.40012 z m 4.785665,0 c -0.221487,-8.7e-4 -0.400977,0.17865 -0.400107,0.40012 7.65e-4,0.22035 0.179764,0.39894 0.400107,0.39806 0.219194,-7.6e-4 0.396643,-0.17887 0.39739,-0.39806 8.7e-4,-0.22033 -0.177053,-0.39934 -0.39739,-0.40012 z m -13.5615338,5.40383 c 1.3683742,0.0701 2.7217732,0.17734 3.8047561,0.95985 0.175698,0.16319 0.2336817,0.29739 0.2336791,0.41573 v 1.27505 c -1.198272,-0.74661 -2.8356992,-0.9466 -4.0384352,-0.95374 -1.4716566,0.058 -2.8634989,0.23397 -4.0384347,0.9551 v -1.27641 c -2.9e-6,-0.1183 0.05798,-0.25254 0.2336789,-0.41573 1.0768687,-0.78196 2.6628344,-0.95279 3.8047558,-0.95985 z m 11.1683618,0 c 1.369301,0.0694 2.719918,0.17933 3.804756,0.95985 0.175698,0.16319 0.233681,0.29739 0.233679,0.41573 v 1.27709 c -0.229448,-0.1638 -0.501336,-0.30492 -0.811083,-0.4266 -0.849932,-0.33392 -1.978984,-0.52918 -3.227352,-0.52918 -1.248369,0 -2.380135,0.19526 -3.230068,0.52918 -0.309429,0.12159 -0.581781,0.26232 -0.811085,0.42592 v -1.27641 c -3e-6,-0.1183 0.05798,-0.25254 0.23368,-0.41573 1.078986,-0.78098 2.664793,-0.95279 3.807473,-0.95985 z m -11.1683618,2.3925 c 0.7497677,0 1.4426645,0.0852 2.0460497,0.21737 v 4.88145 c 0,1.00145 -0.806167,1.80489 -1.8076156,1.80489 H 5.4657418 c -1.0028194,0 -1.8048985,-0.7953 -1.8048985,-1.80489 v -4.88214 c 0.6028603,-0.13191 1.2952242,-0.21668 2.0440119,-0.21668 z m 11.1683618,0 c 0.749471,0 1.440863,0.0845 2.043334,0.21668 v 4.88214 c 0,1.00145 -0.80345,1.80489 -1.804899,1.80489 h -0.480266 c -1.002819,0 -1.804897,-0.7953 -1.804897,-1.80489 v -4.88145 c 0.603464,-0.13228 1.296813,-0.21737 2.046728,-0.21737 z m -13.9079762,0.39875 v 4.70007 c 0,1.38331 1.1244943,2.50117 2.500501,2.50117 h 0.4775475 c 1.3773783,0 2.5032186,-1.12379 2.5032186,-2.50117 v -4.6994 c 0.3200697,0.0948 0.6286924,0.27117 0.8987129,0.42999 -7.651e-4,1.42441 0,2.84358 0,4.26941 0,1.79437 -1.4458693,3.24297 -3.2402581,3.24297 H 5.3067858 c -1.7943894,0 -3.2429753,-1.4486 -3.2429752,-3.24297 0.00156,-1.42574 0,-2.8475 0,-4.26941 0.3128947,-0.20676 0.585006,-0.31792 0.9014302,-0.43066 z m 11.1656452,4.70008 c 0,1.38331 1.124493,2.50118 2.5005,2.50118 h 0.480266 c 1.377378,0 2.5005,-1.1238 2.5005,-2.50118 v -4.69941 c 0.320709,0.0953 0.63037,0.27145 0.90143,0.42999 -0.0025,1.42562 0,2.84096 0,4.26941 0,1.79437 -1.447907,3.24297 -3.242296,3.24297 H 16.47243 c -1.794389,0 -3.240258,-1.4486 -3.240257,-3.24297 v -4.27076 c 0.312219,-0.20495 0.583729,-0.31601 0.898713,-0.42863 z"
       sodipodi:nodetypes="ssccsssscccssscccsssccccsssccccccccccccccccccccccccsscccccccccccccccccccccccccsccccccccccccccccssccccccccccccccccsccccccccccccccccccccsccccscccsccccscccccsccssscsscsssscscsssscccssccccssscccccccscccs" />
  </g>
</svg>
